<?xml version="1.0" standalone="no"?>
<!DOCTYPE svg PUBLIC "-//W3C//DTD SVG 1.1//EN" "http://www.w3.org/Graphics/SVG/1.1/DTD/svg11.dtd" >
<svg>
<metadata>
Created by FontForge 20090914 at Tue Feb 25 21:12:32 2014
 By www-data
Converted by ALLTYPE
</metadata>
<defs>
<font id="Garamond-Normal" horiz-adv-x="278" >
  <font-face 
    font-family="Garamond-Normal"
    font-weight="5"
    font-style="italic"
    font-stretch="normal"
    units-per-em="1000"
    panose-1="0 0 0 0 0 0 0 0 0 0"
    ascent="800"
    descent="-200"
    x-height="417.997"
    cap-height="666.998"
    bbox="-86.0039 -226.002 1090 867.001"
    underline-thickness="50"
    underline-position="-55"
    slope="17560"
    unicode-range="U+0020-U+F002"
  />
<missing-glyph 
 />
    <glyph glyph-name=".notdef" 
 />
    <glyph glyph-name="space" unicode=" " 
 />
    <glyph glyph-name="space" unicode="&#xa0;" 
 />
    <glyph glyph-name="exclam" unicode="!" horiz-adv-x="232" 
d="M172 46c0 -16 -5.5 -29.333 -16.5 -40s-24.167 -16 -39.5 -16s-28.5 5.33301 -39.5 16s-16.5 23.667 -16.5 39s5.5 28.5 16.5 39.5s24.167 16.5 39.5 16.5s28.5 -5.5 39.5 -16.5s16.5 -24.167 16.5 -39.5v1zM129 193h-27l-17 171c-2 20 -3.83301 40.5 -5.5 61.5
s-3.16699 41.833 -4.5 62.5c-2 20.667 -3.33301 41.5 -4 62.5s-1 41.833 -1 62.5v4.5v4.5c1.33301 13.333 5.5 25.5 12.5 36.5s18.167 16.5 33.5 16.5s26.333 -5.5 33 -16.5s10.667 -23.167 12 -36.5v-4.5v-4.5c0 -20.667 -0.333008 -41.5 -1 -62.5
s-1.66699 -41.833 -3 -62.5s-3 -41.5 -5 -62.5l-6 -62.5l-17 -170v0z" />
    <glyph glyph-name="quotedbl" unicode="&#x22;" horiz-adv-x="333" 
d="M109 399h-35l-21 268h78l-22 -268v0zM260 399h-35l-21 268h77l-21 -268v0z" />
    <glyph glyph-name="numbersign" unicode="#" horiz-adv-x="566" 
d="M371 250l-36 -250h-37l34 250h-112l-35 -250h-39l34 250h-140v38h145l15 106h-136v39h141l33 234h40l-32 -234h111l34 234h37l-32 -234h130v-39h-135l-15 -106h128v-38h-133v0zM352 394h-111l-15 -106h111l15 106v0z" />
    <glyph glyph-name="dollar" unicode="$" horiz-adv-x="467" 
d="M206 735l32.0029 0.000976562v-59c0.666992 -0.666992 1.33398 -1 2.00098 -1s1.33398 0.333008 2.00098 1h2h2c7.33301 0 16.833 -0.833008 28.5 -2.5s23.834 -3.83398 36.501 -6.50098c19.333 -5.33301 37 -12.333 53 -21s24 -19.334 24 -32.001
c0 -6.66699 -2.83301 -13 -8.5 -19s-11.834 -10.333 -18.501 -13c-2 -0.666992 -4.16699 -1.33398 -6.5 -2.00098s-4.5 -1 -6.5 -1c-4 0 -9 3.16699 -15 9.5s-13.667 13.5 -23 21.5c-8.66699 7.33301 -19 14.166 -31 20.499s-25.667 9.5 -41 9.5v-250
c3.33301 -2.66699 6.66602 -5 9.99902 -7s6.66602 -4.33301 9.99902 -7c36.667 -22.667 70.167 -49.167 100.5 -79.5s45.5 -69.166 45.5 -116.499c0 -50.667 -15.833 -92.667 -47.5 -126s-71.167 -54.333 -118.5 -63v-65h-32v64c-24 0.666992 -47.333 2.83398 -70 6.50098
s-44.667 11.834 -66 24.501l-6.5 4.5c-2.33301 1.66699 -4.83301 3.16699 -7.5 4.5c-6.66699 5.33301 -12.834 11.166 -18.501 17.499s-8.5 13.5 -8.5 21.5c0 6.66699 2.66699 12.5 8 17.5s11 8.83301 17 11.5c2.66699 1.33301 5.16699 2.33301 7.5 3s4.5 1 6.5 1l2 1
c5.33301 -0.666992 11.5 -5 18.5 -13s15.5 -16.667 25.5 -26c10.667 -10 23.5 -19 38.5 -27s32.833 -12 53.5 -12v277c-38.667 22.667 -72.834 48.167 -102.501 76.5s-45.834 66.833 -48.501 115.5c0 45.333 13.833 84.833 41.5 118.5s64.167 53.834 109.5 60.501v62v0z
M238.003 31.001c25.333 7.33301 47 21.833 65 43.5s27 46.167 27 73.5c0 30.667 -9.5 56.667 -28.5 78s-40.167 39.333 -63.5 54v-249v0zM206.003 636.001c-24.667 -7.33301 -44.332 -21.167 -58.999 -41.5s-22 -43.5 -22 -69.5s8.16699 -47.667 24.5 -65
s34.166 -33 53.499 -47c0.666992 0 1.16699 -0.166992 1.5 -0.5l1.5 -1.5v225v0z" />
    <glyph glyph-name="percent" unicode="%" horiz-adv-x="791" 
d="M757 205c0 -11.333 -0.5 -22.667 -1.5 -34s-2.5 -22.666 -4.5 -33.999c-6.66699 -36.667 -20.167 -70.167 -40.5 -100.5s-51.166 -45.5 -92.499 -45.5c-40.667 0 -71.334 15.167 -92.001 45.5s-34.334 63.833 -41.001 100.5c-2 11.333 -3.5 22.666 -4.5 33.999
s-1.5 22.333 -1.5 33s0.5 21.667 1.5 33s2.5 23 4.5 35c7.33301 36 21.166 69.167 41.499 99.5s50.833 45.5 91.5 45.5s71.334 -15.167 92.001 -45.5s34.334 -63.5 41.001 -99.5c2 -12 3.5 -23.667 4.5 -35s1.5 -22.333 1.5 -33v1zM687 205.999
c0 8 -0.333008 19.834 -1 35.501s-2 32.167 -4 49.5c-4 24.667 -10.833 47.167 -20.5 67.5s-24.167 30.5 -43.5 30.5s-33.833 -10.167 -43.5 -30.5s-16.167 -42.833 -19.5 -67.5c-2.66699 -17.333 -4.16699 -33.833 -4.5 -49.5s-0.5 -27.834 -0.5 -36.501
s0.166992 -20.834 0.5 -36.501s1.83301 -32.167 4.5 -49.5c3.33301 -24.667 9.83301 -47.167 19.5 -67.5s24.167 -30.5 43.5 -30.5s33.833 10.167 43.5 30.5s16.5 42.833 20.5 67.5c2 17.333 3.33301 33.833 4 49.5s1 27.834 1 36.501v1zM496 634h41l-242 -634h-42l243 634
v0zM311 429c0 -11.333 -0.5 -22.834 -1.5 -34.501s-2.5 -23.5 -4.5 -35.5c-7.33301 -36 -21.166 -69.167 -41.499 -99.5s-50.833 -45.5 -91.5 -45.5c-40 0 -70.333 15.167 -91 45.5s-34.334 63.5 -41.001 99.5c-2.66699 12 -4.5 23.833 -5.5 35.5s-1.5 22.834 -1.5 33.501
s0.5 21.834 1.5 33.501s2.83301 23.5 5.5 35.5c6.66699 36 20.334 69.167 41.001 99.5s51 45.5 91 45.5c40.667 0 71.167 -15.167 91.5 -45.5s34.166 -63.5 41.499 -99.5c2 -12 3.5 -23.833 4.5 -35.5s1.5 -22.834 1.5 -33.501v1zM241 429.999
c0 8 -0.333008 19.834 -1 35.501s-2 32.167 -4 49.5c-4 24.667 -10.833 47.167 -20.5 67.5s-24.167 30.5 -43.5 30.5s-33.833 -10.167 -43.5 -30.5s-16.167 -42.833 -19.5 -67.5c-2.66699 -17.333 -4.16699 -33.833 -4.5 -49.5s-0.5 -27.834 -0.5 -36.501
s0.166992 -20.834 0.5 -36.501s1.83301 -32.167 4.5 -49.5c3.33301 -24.667 9.83301 -47.167 19.5 -67.5s24.167 -30.5 43.5 -30.5s33.833 10.167 43.5 30.5s16.5 42.833 20.5 67.5c2 17.333 3.33301 33.833 4 49.5s1 27.834 1 36.501v1z" />
    <glyph glyph-name="ampersand" unicode="&#x26;" horiz-adv-x="668" 
d="M426 342l0.000976562 30.0029c18 -2.66699 35.833 -4.33398 53.5 -5.00098s35.167 -1 52.5 -1s34.166 0.5 50.499 1.5s32.833 2.16699 49.5 3.5v-29c-30 -2.66699 -54.833 -12 -74.5 -28s-37.834 -35 -54.501 -57c-2.66699 -2.66699 -5 -5.33398 -7 -8.00098l-6 -8
l-16 -20.5l-16 -20.5l-16 -21l-16 -21c6 -6 12.333 -13.167 19 -21.5l21 -25.5c13.333 -15.333 27.166 -29.166 41.499 -41.499s29.166 -18.5 44.499 -18.5c10.667 0 20.834 2.5 30.501 7.5s18.834 10.5 27.501 16.5l6.5 4.5l6.5 4.5l18 -19
c-2 -3.33301 -4 -6.16602 -6 -8.49902s-4.33301 -4.83301 -7 -7.5c-13.333 -15.333 -28.666 -29.333 -45.999 -42s-36.333 -19 -57 -19c-24 0 -45.5 7.83301 -64.5 23.5s-36.167 32.834 -51.5 51.501l-17 21.5c-5.33301 7 -10.666 13.5 -15.999 19.5
c-2 -2.66699 -4.33301 -5.5 -7 -8.5s-5 -5.83301 -7 -8.5c-22 -24.667 -46.667 -47.334 -74 -68.001s-58.333 -31 -93 -31c-45.333 0 -83.666 15.167 -114.999 45.5s-47 68.5 -47 114.5c0 39.333 12.833 72.166 38.5 98.499s54.167 48.833 85.5 67.5
c2.66699 1.33301 5.5 3 8.5 5s5.83301 3.66699 8.5 5c-14.667 15.333 -28.334 32.5 -41.001 51.5s-19 39.5 -19 61.5c0 33.333 13.167 60.333 39.5 81s55.166 31 86.499 31h1.5h1.5c27.333 -0.666992 52.5 -10.334 75.5 -29.001s34.5 -43 34.5 -73
c0 -26.667 -9.16699 -49.667 -27.5 -69s-38.5 -35.333 -60.5 -48l16.5 -16.5c5.66699 -5.66699 11.5 -11.167 17.5 -16.5l4 -4l4 -4c17.333 -16 34.333 -32.5 51 -49.5s31.667 -35.5 45 -55.5c4.66699 6 10 12.5 16 19.5s12 14.5 18 22.5l16 20.5
c5.33301 7 10.333 14.167 15 21.5c4.66699 8 8.5 15.667 11.5 23s4.83301 14.666 5.5 21.999c0 9.33301 -3.66699 16 -11 20s-15.333 6.33301 -24 7c-4.66699 0.666992 -9 1 -13 1h-11v1zM198.001 300.003c-2 -2 -3.83398 -3.50098 -5.50098 -4.50098
s-3.16699 -2.16699 -4.5 -3.5c-20.667 -13.333 -39.5 -29.666 -56.5 -48.999s-25.5 -42.333 -25.5 -69c0 -32 10.333 -59.333 31 -82s47.334 -34 80.001 -34c27.333 0 52.833 7.33301 76.5 22s44.167 31.334 61.5 50.001c-24.667 29.333 -50.167 58.166 -76.5 86.499
l-80.5 82.5v1zM241 356.002c16 10.667 29.5 23.3301 40.5 37.9971s16.5 32.334 16.5 53.001c0 18 -5 34.5 -15 49.5s-25.333 22.5 -46 22.5c-16.667 0 -30.667 -5.66699 -42 -17s-17 -25.666 -17 -42.999c0 -19.333 5.33301 -36.666 16 -51.999s22.667 -29 36 -41l5.5 -5.5
l5.5 -5.5v1z" />
    <glyph glyph-name="quotesingle" unicode="'" horiz-adv-x="192" 
d="M114 399h-37l-21 268h80l-22 -268v0z" />
    <glyph glyph-name="parenleft" unicode="(" horiz-adv-x="286" 
d="M253 713l19.0029 -21.001c-54 -63.333 -92.667 -134.333 -116 -213s-35 -159 -35 -241c0 -14 0.333008 -28 1 -42s1.66699 -28.333 3 -43c5.33301 -65.333 18.666 -129 39.999 -191s53.666 -118 96.999 -168l-20 -19c-60.667 61.333 -109.5 132.833 -146.5 214.5
s-55.5 165.834 -55.5 252.501c0 18.667 1 37.334 3 56.001s5 37.667 9 57c14 67.333 38.667 132.666 74 195.999s77.666 117 126.999 161v1z" />
    <glyph glyph-name="parenright" unicode=")" horiz-adv-x="286" 
d="M33 -225l-20.002 21c54.667 62.667 93.5 133.167 116.5 211.5s34.5 158.5 34.5 240.5c0 10 -0.166992 20.167 -0.5 30.5s-0.833008 20.5 -1.5 30.5c-4 69.333 -16.667 137.333 -38 204s-54.666 126.667 -99.999 180l20 20c60.667 -62 109.334 -133.833 146.001 -215.5
s55 -166.167 55 -253.5c0 -14 -0.5 -28.167 -1.5 -42.5s-2.83301 -28.5 -5.5 -42.5c-11.333 -72.667 -35 -143 -71 -211s-80.667 -125.667 -134 -173v0z" />
    <glyph glyph-name="asterisk" unicode="*" horiz-adv-x="417" 
d="M201 516l10 5.00391l13 -15.5c4.66699 -5.66699 9.33398 -11.834 14.001 -18.501c3.33301 -4 6.66602 -8.5 9.99902 -13.5l10 -14.5c5.33301 -8.66699 9.83301 -17.334 13.5 -26.001s5.5 -16.334 5.5 -23.001c0 -8.66699 -3.5 -15.834 -10.5 -21.501
s-14.833 -8.5 -23.5 -8.5c-9.33301 0 -16.333 3.16699 -21 9.5s-8 13.5 -10 21.5c0 2 -0.333008 3.83301 -1 5.5s-1 3.5 -1 5.5c-2.66699 15.333 -4.66699 30.833 -6 46.5s-2.33301 31.167 -3 46.5v1zM169 531.004l7 -9l-13 -20.5
c-5.33301 -8.33301 -11.333 -16.833 -18 -25.5c-4.66699 -6.66699 -9.83398 -13.167 -15.501 -19.5s-11.167 -11.833 -16.5 -16.5s-10.666 -8.5 -15.999 -11.5s-10.333 -4.5 -15 -4.5c-8.66699 0 -16 3.16699 -22 9.5s-9 13.5 -9 21.5c0 12 6.5 22.5 19.5 31.5
s27.5 16.833 43.5 23.5c10.667 4.66699 21 8.66699 31 12l24 8v1zM225 540.004l0.000976562 11c4 1.33301 8.66699 3 14 5l16 6l13 4.5c4.66699 1.66699 9.33398 3.16699 14.001 4.5c10 3.33301 19.833 6 29.5 8s18.167 3 25.5 3c9.33301 0 17.166 -3.16699 23.499 -9.5
s9.5 -14.166 9.5 -23.499c0 -10 -3.83301 -17.833 -11.5 -23.5s-16.167 -8.5 -25.5 -8.5c-6.66699 0 -14.834 0.833008 -24.501 2.5s-19.5 3.5 -29.5 5.5c-4 0.666992 -8 1.5 -12 2.5s-8 2.16699 -12 3.5l-16 4c-5.33301 1.33301 -10 2.66602 -14 3.99902v1z
M176.001 567.004l-6.99902 -9.99902c-6 0.666992 -14.167 2.5 -24.5 5.5s-21.166 6.5 -32.499 10.5c-16.667 6 -31.834 13.167 -45.501 21.5s-20.5 17.833 -20.5 28.5c0 8 3 15.333 9 22s13 10 21 10c5.33301 0 10.666 -1.33301 15.999 -4s10.666 -6.33398 15.999 -11.001
c6 -4.66699 11.833 -10 17.5 -16l16.5 -18l18.5 -22.5c5.66699 -7 10.834 -12.833 15.501 -17.5v1zM209.002 572.005l-13.001 1.99902v74v10c0 4 0.333008 8 1 12c0.666992 10.667 3.33398 20.334 8.00098 29.001s13.334 13 26.001 13c8.66699 0 16.167 -2.66699 22.5 -8
s9.5 -12.666 9.5 -21.999c0 -7.33301 -1.5 -15.333 -4.5 -24s-7.16699 -17.667 -12.5 -27c-2 -4 -4.33301 -8.33301 -7 -13s-5.33398 -9 -8.00098 -13l-11.5 -18.5c-3.66699 -5.66699 -7.16699 -10.834 -10.5 -15.501v1z" />
    <glyph glyph-name="plus" unicode="+" horiz-adv-x="500" 
d="M22 363h205v193h44v-193h206v-43h-206v-193h-44v193h-205v43v0z" />
    <glyph glyph-name="comma" unicode="," horiz-adv-x="218" 
d="M26 -142l2.99805 28.999c23.333 0.666992 44.833 7 64.5 19s29.5 31.333 29.5 58c0 10.667 -3.33301 17.667 -10 21s-14.334 6.33301 -23.001 9c-1.33301 0 -2.66602 0.166992 -3.99902 0.5s-2.66602 0.833008 -3.99902 1.5c-10 2.66699 -19.333 7.16699 -28 13.5
s-13 18.833 -13 37.5c0 16 6 29 18 39s25.667 15 41 15c22 0 39 -8.33301 51 -25s19.667 -34.667 23 -54c0.666992 -4.66699 1.16699 -9.16699 1.5 -13.5s0.5 -8.16602 0.5 -11.499c0 -45.333 -14.167 -79.833 -42.5 -103.5s-64.166 -35.5 -107.499 -35.5v0z" />
    <glyph glyph-name="hyphen" unicode="-" horiz-adv-x="215" 
d="M0 252h215v-65h-215v65v0z" />
    <glyph glyph-name="period" unicode="." horiz-adv-x="218" 
d="M165 46c0 -16 -5.5 -29.333 -16.5 -40s-24.167 -16 -39.5 -16s-28.5 5.33301 -39.5 16s-16.5 23.667 -16.5 39s5.5 28.5 16.5 39.5s24.167 16.5 39.5 16.5s28.5 -5.5 39.5 -16.5s16.5 -24.167 16.5 -39.5v1z" />
    <glyph glyph-name="slash" unicode="/" horiz-adv-x="416" 
d="M356 713l41 -19l-410 -919l-42 19l411 919v0z" />
    <glyph glyph-name="zero" unicode="0" horiz-adv-x="467" 
d="M433 311c0 -17.333 -0.832031 -35.667 -2.49902 -55s-4.5 -38.666 -8.5 -57.999c-10.667 -52 -30.667 -99.333 -60 -142s-72.333 -64 -129 -64c-58.667 0 -102.334 22.167 -131.001 66.5s-48 93.166 -58 146.499c-3.33301 20 -5.83301 40.167 -7.5 60.5
s-2.5 39.166 -2.5 56.499c0 16.667 0.833008 34.667 2.5 54s4.16699 38.666 7.5 57.999c10.667 52.667 30.5 100.834 59.5 144.501s72.5 65.5 130.5 65.5s101.333 -22.167 130 -66.5s48 -93.166 58 -146.499c4 -21.333 6.83301 -42.333 8.5 -63s2.5 -40 2.5 -58v1z
M346.001 304.999l-0.000976562 8.00098c0 15.333 -0.333008 35 -1 59s-2.66699 49 -6 75c-5.33301 41.333 -15.666 79.166 -30.999 113.499s-39.666 51.5 -72.999 51.5c-31.333 0 -55 -15.833 -71 -47.5s-27.333 -66.5 -34 -104.5c-4.66699 -26 -7.66699 -50.833 -9 -74.5
s-2 -42.5 -2 -56.5c0 -14.667 0.333008 -35 1 -61s3 -53 7 -81c6 -40.667 16.667 -78 32 -112s39.666 -51 72.999 -51s57.833 15.833 73.5 47.5s26.5 66.5 32.5 104.5c3.33301 24.667 5.5 48.667 6.5 72s1.5 42 1.5 56v1z" />
    <glyph glyph-name="one" unicode="1" horiz-adv-x="467" 
d="M267 658l20.0039 -13.001c-2.66699 -36.667 -4.16699 -73 -4.5 -109s-0.5 -72 -0.5 -108v-265v-27c0 -40 4 -67.167 12 -81.5s33 -22.166 75 -23.499v-31c-20.667 0.666992 -41.834 1.5 -63.501 2.5s-43.167 1.5 -64.5 1.5c-10.667 0 -21.334 -0.166992 -32.001 -0.5
s-21.334 -0.5 -32.001 -0.5l-32 -2c-10.667 -0.666992 -21.334 -1 -32.001 -1v32c2 -0.666992 4 -0.833984 6 -0.500977s3.66699 0.5 5 0.5c36.667 4.66699 59.667 12.5 69 23.5s14 36.833 14 77.5v30v412c-5.33301 -3.33301 -10.833 -6.16602 -16.5 -8.49902l-17.5 -7.5
c-8 -4 -16.167 -7.83301 -24.5 -11.5s-16.833 -7.16699 -25.5 -10.5l-16 31c27.333 12.667 54.5 26.5 81.5 41.5s53.167 30.833 78.5 47.5v1z" />
    <glyph glyph-name="two" unicode="2" horiz-adv-x="467" 
d="M80 490l-26.999 15.002c17.333 35.333 42.666 67.333 75.999 96s71 43 113 43c45.333 0 82 -15 110 -45s42 -67.667 42 -113c0 -8 -0.666992 -16.167 -2 -24.5s-3 -16.5 -5 -24.5c-8.66699 -32 -23.667 -63.5 -45 -94.5s-44 -60.167 -68 -87.5l-33.5 -37l-30.5 -33
l-110 -118c2 -0.666992 4 -1 6 -1h7c2 -0.666992 4.16699 -1 6.5 -1h6.5l101 1c3.33301 -0.666992 6.83301 -1 10.5 -1h11.5c3.33301 -0.666992 6.83301 -1 10.5 -1h11.5c27.333 0 53.333 4.16699 78 12.5s43.334 25.833 56.001 52.5l27 -7l-56 -122h-42h-41
c-14 0.666992 -28 1 -42 1h-42c-21.333 0 -42.5 -0.166992 -63.5 -0.5s-41.833 -0.5 -62.5 -0.5h-31.5h-31.5l-12 24l57 59.5l65 73.5c20 22.667 39.5 46.667 58.5 72s36.5 50.666 52.5 75.999c18.667 30.667 34 61 46 91s18 58.333 18 85
c0 28.667 -9.83301 52.667 -29.5 72s-43.834 29 -72.501 29c-28 0 -52 -9.33301 -72 -28s-36.333 -39.334 -49 -62.001l-1.5 -1.5c-0.333008 -0.333008 -0.5 -0.833008 -0.5 -1.5v1z" />
    <glyph glyph-name="three" unicode="3" horiz-adv-x="467" 
d="M97 523l-26.0039 20.002c19.333 28 42.166 51.833 68.499 71.5s57.833 29.5 94.5 29.5c37.333 0 68.833 -13.333 94.5 -40s38.5 -58.667 38.5 -96c0 -38.667 -12 -69.167 -36 -91.5s-52 -40.833 -84 -55.5c46.667 -2.66699 83.834 -18.334 111.501 -47.001
s41.5 -66.667 41.5 -114c0 -60.667 -21.833 -110.5 -65.5 -149.5s-94.834 -58.5 -153.501 -58.5c-7.33301 0 -16 0.5 -26 1.5s-20.333 2.83301 -31 5.5c-19.333 3.33301 -37 10.166 -53 20.499s-24 24.833 -24 43.5c0 9.33301 3.83301 17.5 11.5 24.5
s15.834 10.833 24.501 11.5h1.5h1.5c6.66699 0 12.834 -1.66699 18.501 -5s11.167 -7.66602 16.5 -12.999c2.66699 -2.66699 5.33398 -5.5 8.00098 -8.5s5.66699 -5.83301 9 -8.5c8.66699 -9.33301 18.334 -17.666 29.001 -24.999s24 -11 40 -11
c30.667 0 54.334 11.5 71.001 34.5s28 48.167 34 75.5c1.33301 8.66699 2.5 17.167 3.5 25.5s1.5 16.5 1.5 24.5c0 47.333 -14 83.333 -42 108s-64.667 37 -110 37l-21 1v30c38.667 3.33301 73.167 15.166 103.5 35.499s45.5 52.166 45.5 95.499
c0 26.667 -8.5 49.5 -25.5 68.5s-39.167 28.5 -66.5 28.5c-24 0 -44.167 -7 -60.5 -21s-30.833 -30.333 -43.5 -49v1z" />
    <glyph glyph-name="four" unicode="4" horiz-adv-x="467" 
d="M276 632l79 30v-415h70v-58h-70v-189h-73v189h-259l6 62l247 381v0zM282 247v330l-212 -330h212v0z" />
    <glyph glyph-name="five" unicode="5" horiz-adv-x="467" 
d="M139 637l248.998 -0.000976562l-17 -70h-206l-26 -138l24 2c8 0.666992 16 1 24 1c59.333 0 109.166 -16.333 149.499 -49s60.5 -80.667 60.5 -144c0 -67.333 -21.5 -125.333 -64.5 -174s-99.5 -73 -169.5 -73c-6.66699 0 -14.167 0.333008 -22.5 1
s-16.833 1.66699 -25.5 3c-17.333 2.66699 -33.166 8.33398 -47.499 17.001s-21.833 21.667 -22.5 39c0 11.333 4 20.833 12 28.5s17.333 11.5 28 11.5c8 0 15.333 -1.83301 22 -5.5s13.334 -8.16699 20.001 -13.5c2 -2 4 -3.83301 6 -5.5s4.33301 -3.5 7 -5.5
c8.66699 -7.33301 18 -14.166 28 -20.499s22 -9.5 36 -9.5c32 0 58.333 12.5 79 37.5s34.667 52.5 42 82.5c1.33301 7.33301 2.5 14.666 3.5 21.999s1.5 14.333 1.5 21c0 51.333 -14.167 91.333 -42.5 120s-68.166 43 -119.499 43c-11.333 0 -22.833 -1 -34.5 -3
s-23.167 -4.33301 -34.5 -7l-8 9l48 280v0z" />
    <glyph glyph-name="six" unicode="6" horiz-adv-x="467" 
d="M367 666l12.9961 -22.998c-70 -39.333 -124.167 -86.333 -162.5 -141s-65.166 -121 -80.499 -199c19.333 17.333 39.333 32.666 60 45.999s44.334 20 71.001 20c46 0 82.333 -17.5 109 -52.5s41.667 -73.5 45 -115.5v-6.5v-6.5c0 -54.667 -18 -101 -54 -139
s-81.667 -57 -137 -57c-61.333 0 -106.166 22.167 -134.499 66.5s-44.166 93.166 -47.499 146.499v9.5v9.5c0 95.333 32 183.333 96 264s138 139.667 222 177v1zM131.996 262.002c-0.666992 -7.33301 -1.33496 -14.166 -2.00195 -20.499s-1 -12.833 -1 -19.5
c0 -10 0.333008 -20.5 1 -31.5s2 -21.833 4 -32.5c4.66699 -31.333 14.834 -60 30.501 -86s40.5 -40 74.5 -42c35.333 0 62 13.167 80 39.5s27 55.833 27 88.5c0 6 -0.333008 12.167 -1 18.5l-2 19.5c-6 30 -18.167 57.333 -36.5 82s-44.166 37 -77.499 37
c-19.333 0 -37.333 -5.33301 -54 -16s-31 -23.334 -43 -38.001v1z" />
    <glyph glyph-name="seven" unicode="7" horiz-adv-x="467" 
d="M70 637l361.998 0.000976562l7 -13l-254 -624h-73l16 34c5.33301 11.333 11 22.666 17 33.999c3.33301 8 7 15.833 11 23.5s7.66699 15.167 11 22.5l203 457h-126l-55 -1c-29.333 -1.33301 -53.666 -5.83301 -72.999 -13.5s-34.666 -26.167 -45.999 -55.5l-29 1l29 135v0
z" />
    <glyph glyph-name="eight" unicode="8" horiz-adv-x="467" 
d="M284 344c33.333 -21.333 63.668 -46.999 91.001 -76.999s41 -66 41 -108c0 -50.667 -18.333 -91.167 -55 -121.5s-79.334 -45.5 -128.001 -45.5c-46.667 0 -88.667 13.833 -126 41.5s-56 66.834 -56 117.501c0 41.333 13.667 75.666 41 102.999s58 50 92 68l-6 4l-6 4
c-28 19.333 -52.167 40.5 -72.5 63.5s-30.5 53.833 -30.5 92.5c0 46 16 83.833 48 113.5s70.667 44.5 116 44.5c44 0 82 -12 114 -36s48 -59.667 48 -107c0 -37.333 -10.5 -68.833 -31.5 -94.5s-47.5 -46.834 -79.5 -63.501v1zM212.002 302.001
c-25.333 -15.333 -45.832 -35.166 -61.499 -59.499s-23.5 -51.5 -23.5 -81.5v-4v-4c2 -32.667 13.5 -62.334 34.5 -89.001s48.5 -40 82.5 -40c29.333 0 53.666 9.66699 72.999 29s29 43.333 29 72c0 36.667 -11.5 67.5 -34.5 92.5s-48.5 47.5 -76.5 67.5l-11.5 8l-11.5 8v1z
M258.003 364.001c19.333 12.667 35.667 29.166 49 49.499s20 42.833 20 67.5c0 32.667 -8.66699 61.834 -26 87.501s-44 38.5 -80 38.5c-24.667 0 -46.667 -8.16699 -66 -24.5s-29 -37.5 -29 -63.5c0 -30 10 -55.5 30 -76.5s41.667 -39.5 65 -55.5c6.66699 -4 13 -8 19 -12
l18 -12v1z" />
    <glyph glyph-name="nine" unicode="9" horiz-adv-x="467" 
d="M104 -17l-16.001 29.998c65.333 36.667 118.333 80.167 159 130.5s68 112.833 82 187.5c-16.667 -17.333 -35.5 -32.666 -56.5 -45.999s-44.167 -20 -69.5 -20c-46 0 -83.833 17.833 -113.5 53.5s-44.5 75.5 -44.5 119.5c0 57.333 17 106 51 146s80.667 60 140 60
s103.833 -22.167 133.5 -66.5s45.834 -93.166 48.501 -146.499v-7.5v-6.5c0 -96.667 -31.833 -183 -95.5 -259s-136.5 -134.333 -218.5 -175v0zM333.999 373.998c0.666992 2.66699 1.16699 5.83301 1.5 9.5s0.5 7.5 0.5 11.5c0.666992 3.33301 1 6.83301 1 10.5v10.5
c0 9.33301 -0.333008 19.5 -1 30.5s-2 21.833 -4 32.5c-5.33301 31.333 -16.333 60 -33 86s-42.667 39 -78 39c-32 0 -55.833 -11.667 -71.5 -35s-24.834 -49 -27.501 -77c-0.666992 -2.66699 -1 -5.5 -1 -8.5v-8.5c0 -6.66699 0.333008 -13.834 1 -21.501
s2 -15.167 4 -22.5c6 -28 18 -53.667 36 -77s42.333 -35 73 -35c20 0 38.333 5.33301 55 16s31.334 23.334 44.001 38.001v1z" />
    <glyph glyph-name="colon" unicode=":" horiz-adv-x="218" 
d="M165 46c0 -16 -5.5 -29.333 -16.5 -40s-24.167 -16 -39.5 -16s-28.5 5.33301 -39.5 16s-16.5 23.667 -16.5 39s5.5 28.5 16.5 39.5s24.167 16.5 39.5 16.5s28.5 -5.5 39.5 -16.5s16.5 -24.167 16.5 -39.5v1zM165 362c0 -15.333 -5.5 -28.5 -16.5 -39.5
s-24.167 -16.5 -39.5 -16.5s-28.5 5.5 -39.5 16.5s-16.5 23.833 -16.5 38.5c0 15.333 5.5 28.5 16.5 39.5s24.167 16.5 39.5 16.5s28.5 -5.5 39.5 -16.5s16.5 -24.167 16.5 -39.5v1z" />
    <glyph glyph-name="semicolon" unicode=";" horiz-adv-x="218" 
d="M26 -142l2.99805 28.999c23.333 0.666992 44.833 7 64.5 19s29.5 31.333 29.5 58c0 10.667 -3.33301 17.667 -10 21s-14.334 6.33301 -23.001 9c-1.33301 0 -2.66602 0.166992 -3.99902 0.5s-2.66602 0.833008 -3.99902 1.5c-10 2.66699 -19.333 7.16699 -28 13.5
s-13 18.833 -13 37.5c0 16 6 29 18 39s25.667 15 41 15c22 0 39 -8.33301 51 -25s19.667 -34.667 23 -54c0.666992 -4.66699 1.16699 -9.16699 1.5 -13.5s0.5 -8.16602 0.5 -11.499c0 -45.333 -14.167 -79.833 -42.5 -103.5s-64.166 -35.5 -107.499 -35.5v0z
M155.998 362.999c0 -16 -5.5 -29.5 -16.5 -40.5s-24.167 -16.5 -39.5 -16.5c-14.667 0 -27.5 5.5 -38.5 16.5s-16.5 24.167 -16.5 39.5s5.5 28.5 16.5 39.5s23.833 16.5 38.5 16.5c15.333 0 28.5 -5.5 39.5 -16.5s16.5 -24.167 16.5 -39.5v1z" />
    <glyph glyph-name="less" unicode="&#x3c;" horiz-adv-x="500" 
d="M457 613v-38l-311 -202l311 -209v-100l-414 277v6l414 266v0z" />
    <glyph glyph-name="equal" unicode="=" horiz-adv-x="500" 
d="M22 292h455v-42h-455v42v0zM22 433h455v-42h-455v42v0z" />
    <glyph glyph-name="greater" unicode="&#x3e;" horiz-adv-x="500" 
d="M43 64v38l312 203l-312 208v100l414 -276v-7l-414 -266v0z" />
    <glyph glyph-name="question" unicode="?" horiz-adv-x="314" 
d="M174 46c0 -16 -5.5 -29.333 -16.5 -40s-24.167 -16 -39.5 -16c-14.667 0 -27.667 5.33301 -39 16s-17 23.667 -17 39s5.66699 28.5 17 39.5s24.333 16.5 39 16.5c15.333 0 28.5 -5.5 39.5 -16.5s16.5 -24.167 16.5 -39.5v1zM129 204l-33 -0.000976562v171
c0.666992 -0.666992 1.5 -0.833984 2.5 -0.500977s2.16699 0.5 3.5 0.5c32 4 61.333 14 88 30s40 42.667 40 80v6.5c0 2.33301 -0.333008 4.5 -1 6.5c-2.66699 26.667 -13 51 -31 73s-41.333 33 -70 33c-5.33301 0 -10.5 -0.333008 -15.5 -1s-9.83301 -1.66699 -14.5 -3
c-3.33301 -1.33301 -6.66602 -2.33301 -9.99902 -3s-6.66602 -1.66699 -9.99902 -3l-1.5 -0.5c-1 -0.333008 -1.83301 -0.5 -2.5 -0.5h-0.5h-1.5c-4.66699 0 -9.33398 3 -14.001 9s-8.33398 12.667 -11.001 20c-2 4.66699 -3.5 9.16699 -4.5 13.5s-1.5 7.83301 -1.5 10.5v2
c0.666992 6.66699 4 11.834 10 15.501s12.667 6.16699 20 7.5c3.33301 0 6.66602 0.166992 9.99902 0.5s6.33301 0.5 9 0.5h1.5h1.5c36.667 -1.33301 71.667 -18.333 105 -51s58 -68.667 74 -108c5.33301 -12.667 9.5 -25.5 12.5 -38.5s4.5 -25.5 4.5 -37.5v-6.5
c0 -2.33301 -0.333008 -4.5 -1 -6.5c-1.33301 -14.667 -5.66602 -29.167 -12.999 -43.5s-17 -26.166 -29 -35.499c-2.66699 -2.66699 -5.5 -5 -8.5 -7s-5.83301 -4 -8.5 -6c-10 -6 -19.833 -10.333 -29.5 -13s-18.5 -5 -26.5 -7
c-12.667 -3.33301 -23.167 -7.83301 -31.5 -13.5s-12.5 -17.167 -12.5 -34.5v-60v0z" />
    <glyph glyph-name="at" unicode="@" horiz-adv-x="734" 
d="M639 185l39.999 0.00390625c-22 -58 -59.667 -103.5 -113 -136.5s-109.666 -51.5 -168.999 -55.5c-4 -0.666992 -8.16699 -1 -12.5 -1h-12.5c-90.667 0 -168.667 33.667 -234 101s-98 145.666 -98 234.999c0 93.333 32.167 174.666 96.5 243.999s144.166 104 239.499 104
c79.333 0 151 -25.667 215 -77s96 -119.333 96 -204c0 -8 -0.333008 -16 -1 -24s-1.66699 -15.667 -3 -23c-10 -54 -34.167 -103.5 -72.5 -148.5s-86.833 -67.5 -145.5 -67.5h-2h-2c-16 0.666992 -31.167 5.16699 -45.5 13.5s-23.5 21.166 -27.5 38.499
c-14.667 -14.667 -31.5 -27 -50.5 -37s-39.5 -15 -61.5 -15c-34.667 0 -61.667 13.167 -81 39.5s-29 55.833 -29 88.5c0 12 0.833008 24.5 2.5 37.5s4.16699 26.167 7.5 39.5c13.333 49.333 37.333 94.5 72 135.5s78.334 61.5 131.001 61.5h4h4
c18 -1.33301 35.167 -6.33301 51.5 -15s27.5 -22 33.5 -40l14 43h77l-91 -265c-0.666992 -3.33301 -1.83398 -7.33301 -3.50098 -12s-3.5 -9.33398 -5.5 -14.001l-2 -8l-2 -8c-2 -6 -3.5 -11.667 -4.5 -17s-1.5 -10.333 -1.5 -15c0 -6.66699 2.16699 -11.834 6.5 -15.501
s9.83301 -5.5 16.5 -5.5c41.333 0 75.833 16.333 103.5 49s46.834 68.667 57.501 108c4 12.667 6.83301 25.167 8.5 37.5s2.5 24.166 2.5 35.499c0 73.333 -28.333 132.333 -85 177s-119.667 67 -189 67c-82.667 0 -152.334 -30.667 -209.001 -92s-85 -132.666 -85 -213.999
c0 -79.333 28.667 -149.166 86 -209.499s126.333 -90.5 207 -90.5c57.333 0 108.833 13.5 154.5 40.5s82.834 64.833 111.501 113.5v1zM396.999 267.004l54 157.999c1.33301 2.66699 2.16602 5.83398 2.49902 9.50098s0.5 7.16699 0.5 10.5v2.5v2.5
c-1.33301 14.667 -6.66602 28.167 -15.999 40.5s-22 18.5 -38 18.5c-30.667 0 -57.667 -17 -81 -51s-42 -71.333 -56 -112c-8.66699 -24 -15.167 -47.667 -19.5 -71s-6.5 -42.666 -6.5 -57.999c0 -16 4.83301 -29.833 14.5 -41.5s22.834 -17.5 39.501 -17.5
c22 0 40.833 8.16699 56.5 24.5s28.167 34.166 37.5 53.499c2 5.33301 4.16699 10.5 6.5 15.5s4.16602 9.83301 5.49902 14.5v1z" />
    <glyph glyph-name="A" unicode="A" horiz-adv-x="640" 
d="M300 660l58.001 25.999l21.5 -73c7 -24 14.5 -47.667 22.5 -71l107 -320l7.5 -25c2.33301 -8 4.83301 -15.667 7.5 -23c5.33301 -16 11 -31.833 17 -47.5s12.333 -31.167 19 -46.5c8 -17.333 18.5 -28.666 31.5 -33.999s28.167 -9.33301 45.5 -12
c0 -0.666992 0.333008 -1 1 -1h2v-33c-19.333 0.666992 -38.833 1.5 -58.5 2.5s-39.167 1.5 -58.5 1.5c-14 0 -28.167 -0.333008 -42.5 -1l-42.5 -2c-5.33301 -0.666992 -10.333 -1 -15 -1h-14v34c1.33301 -0.666992 2.83301 -1 4.5 -1s3.16699 0.333008 4.5 1
c2.66699 0 5.33398 0.166992 8.00098 0.5s5.33398 0.5 8.00098 0.5c9.33301 1.33301 17.833 4 25.5 8s11.5 11 11.5 21c0 2.66699 -0.166992 5.33398 -0.5 8.00098s-0.833008 5.66699 -1.5 9c-0.666992 4.66699 -1.83398 9.66699 -3.50098 15l-4.5 15
c-1.33301 3.33301 -2.5 6.5 -3.5 9.5s-1.83301 5.83301 -2.5 8.5l-44 138h-209l-36 -101c-1.33301 -4.66699 -2.66602 -8.83398 -3.99902 -12.501l-4 -11.5c-4.66699 -12.667 -9 -25.5 -13 -38.5s-6 -25.833 -6 -38.5c0 -10 3.83301 -17.167 11.5 -21.5
s16.167 -7.16602 25.5 -8.49902c4 -0.666992 7.66699 -1.16699 11 -1.5s6.66602 -0.5 9.99902 -0.5h0.5h1.5h1.5h0.5v-33c-17.333 0.666992 -34.833 1.5 -52.5 2.5s-35.167 1.5 -52.5 1.5c-16.667 0 -33.167 -0.5 -49.5 -1.5s-32.5 -1.83301 -48.5 -2.5l-1 34
c2 -0.666992 3.83301 -0.833984 5.5 -0.500977s3.5 0.5 5.5 0.5c6 0.666992 11.667 1.5 17 2.5s10.666 2.5 15.999 4.5s10.666 6.33301 15.999 13s11 14.667 17 24c6 10.667 12 22.5 18 35.5s11.667 26.167 17 39.5c8.66699 21.333 16.5 41.5 23.5 60.5l15.5 42.5l75 200
l19 50.5l20 50.5c6 17.333 12.333 34.5 19 51.5l19 50.5v1zM396.001 313.999l-82 256l-94 -256h176v0z" />
    <glyph glyph-name="B" unicode="B" horiz-adv-x="587" 
d="M344 365c53.333 -4 99.8291 -18.6631 139.496 -43.9961s59.5 -68.333 59.5 -129c0 -70.667 -24.5 -120.5 -73.5 -149.5s-104.833 -43.5 -167.5 -43.5c-12 0 -24 0.166992 -36 0.5s-23.667 0.833008 -35 1.5l-36 2c-12 0.666992 -24 1 -36 1
c-9.33301 0 -18.833 -0.166992 -28.5 -0.5s-19.167 -0.833008 -28.5 -1.5h-5c-1.33301 0 -2.66602 -0.333008 -3.99902 -1c-8 0 -16.167 -0.166992 -24.5 -0.5s-16.5 -0.5 -24.5 -0.5v34c25.333 -0.666992 44.5 2.66602 57.5 9.99902s19.833 25 20.5 53l1 66v342l-1 66
c-0.666992 29.333 -8.16699 47.166 -22.5 53.499s-34.166 9.5 -59.499 9.5v35c4 -0.666992 8.16699 -1.16699 12.5 -1.5s8.83301 -0.833008 13.5 -1.5c4 0 8.16699 -0.166992 12.5 -0.5s8.83301 -0.5 13.5 -0.5c8 -0.666992 16.333 -1.16699 25 -1.5
s17.334 -0.5 26.001 -0.5c12 0 24.167 0.166992 36.5 0.5s24.833 0.833008 37.5 1.5c12.667 0 25.167 0.166992 37.5 0.5s24.5 0.5 36.5 0.5l52 1c41.333 -0.666992 76.833 -13.167 106.5 -37.5s44.5 -58.5 44.5 -102.5c0 -46.667 -14.667 -82.834 -44 -108.501
s-64.666 -43.834 -105.999 -54.501v1zM205.996 334.004l-0.000976562 -161v-9.5v-9.5c-0.666992 -3.33301 -1 -7 -1 -11v-12c0 -36.667 5.33301 -61.834 16 -75.501s35 -20.5 73 -20.5c49.333 0 89 13.333 119 40s45 65.334 45 116.001c0 60 -19.667 98.5 -59 115.5
s-82.666 26.167 -129.999 27.5h-12.5h-12.5h-10h-9c-3.33301 -0.666992 -6.5 -1 -9.5 -1h-9.5v1zM205.995 375.004c3.33301 -0.666992 6.50098 -0.998047 9.50098 -0.998047h8.5c47.333 1.33301 90.666 10.166 129.999 26.499s59 54.166 59 113.499
c0 40.667 -14.667 69.667 -44 87s-61.333 26.333 -96 27h-3.5h-2.5h-15c-5.33301 0 -10.333 -0.333008 -15 -1c-5.33301 0 -10.5 -0.166992 -15.5 -0.5s-10.167 -0.5 -15.5 -0.5v-251v0z" />
    <glyph glyph-name="C" unicode="C" horiz-adv-x="679" 
d="M645 488l-33.002 -6c-12 52.667 -35.333 91.167 -70 115.5s-79 36.5 -133 36.5c-84 0 -150.5 -29.167 -199.5 -87.5s-73.5 -127.833 -73.5 -208.5c0 -86 24.333 -158.5 73 -217.5s118 -88.5 208 -88.5c58 0 103.333 14.167 136 42.5s55.334 69.833 68.001 124.5l35 -2
l-23 -154c-36.667 -15.333 -74.167 -28 -112.5 -38s-77.5 -15 -117.5 -15c-104 0 -190.5 29.833 -259.5 89.5s-103.5 143.5 -103.5 251.5c0 102.667 35 185.834 105 249.501s155.333 95.5 256 95.5c36.667 0 73.334 -4.33301 110.001 -13s73 -18.334 109 -29.001
c1.33301 -0.666992 2.83301 -1.16699 4.5 -1.5s3.16699 -0.833008 4.5 -1.5l16 -143v0z" />
    <glyph glyph-name="D" unicode="D" horiz-adv-x="743" 
d="M44 632v34.001c4 -0.666992 8 -1.16699 12 -1.5s7.66699 -0.833008 11 -1.5l36 -2c12 -0.666992 24 -1 36 -1c23.333 0 46.833 0.333008 70.5 1l70.5 2c23.333 0 46.833 0.333008 70.5 1s47.167 1 70.5 1c92.667 0 162.834 -32.833 210.501 -98.5
s71.5 -141.167 71.5 -226.5c0 -46.667 -8 -92 -24 -136s-41 -82.667 -75 -116c-36.667 -36.667 -76.167 -60.834 -118.5 -72.501s-88.5 -17.5 -138.5 -17.5c-14.667 0 -29.5 0.333008 -44.5 1l-44.5 2l-44.5 2c-15 0.666992 -29.833 1 -44.5 1
c-21.333 0 -42.833 -0.5 -64.5 -1.5s-43.167 -1.83301 -64.5 -2.5v34c25.333 -0.666992 45.166 2.5 59.499 9.5s21.833 24.833 22.5 53.5l1 66v339l-1 66c-0.666992 28 -7.66699 45.5 -21 52.5s-32.333 10.5 -57 10.5v1zM208 619.001l0.00292969 -23.002v-21
c-0.666992 -7.33301 -1 -14.666 -1 -21.999v-22v-322v-50c0 -11.333 0.166992 -22.166 0.5 -32.499s1.16602 -20.833 2.49902 -31.5c1.33301 -8 3.66602 -15.5 6.99902 -22.5s8.33301 -12.833 15 -17.5c6 -3.33301 13.333 -6 22 -8s17.667 -3.33301 27 -4
c8 -0.666992 15.833 -1.16699 23.5 -1.5s14.5 -0.5 20.5 -0.5h6h6c32.667 0.666992 65 4.66699 97 12s60.667 23 86 47c29.333 27.333 51.166 59.833 65.499 97.5s22.5 76.167 24.5 115.5c0.666992 4.66699 1 9 1 13v12c0 92.667 -26.667 163.167 -80 211.5
s-125.333 72.5 -216 72.5c-8.66699 0 -17.5 -0.166992 -26.5 -0.5s-17.833 -0.833008 -26.5 -1.5h-5.5h-5.5c-7.33301 -0.666992 -14.5 -1.16699 -21.5 -1.5s-14.167 -0.5 -21.5 -0.5v1z" />
    <glyph glyph-name="E" unicode="E" horiz-adv-x="574" 
d="M501 530l-35.0039 -7.99902l-0.5 1c-0.333008 0.666992 -0.5 1.33398 -0.5 2.00098l-2 10.5l-2 10.5c-2 10 -5 19.5 -9 28.5s-9.66699 16.5 -17 22.5c-10 8.66699 -22.167 14.667 -36.5 18s-28.833 5.66602 -43.5 6.99902c-7.33301 0.666992 -14.666 1 -21.999 1h-21
h-17.5h-16.5c-6 -0.666992 -11.833 -1 -17.5 -1h-17.5c-14 0 -23.333 -1.33301 -28 -4s-7 -11 -7 -25v-230h105c35.333 -0.666992 61.333 3.16602 78 11.499s25 31.166 25 68.499l35 1c-0.666992 -17.333 -1.16699 -34.333 -1.5 -51s-0.5 -33.667 -0.5 -51
c0 -8 0.166992 -16.167 0.5 -24.5s0.5 -16.5 0.5 -24.5l2 -24.5l2 -24.5l-38 1c-1.33301 38.667 -10 61.167 -26 67.5s-42.667 9.5 -80 9.5l-102 1v-137v-38v-11v-10c0.666992 -12.667 1.5 -24.834 2.5 -36.501s3.16699 -20.167 6.5 -25.5
c4 -6.66699 9.5 -11.334 16.5 -14.001s14.167 -4.66699 21.5 -6c12 -2 24 -3.16699 36 -3.5s24 -0.5 36 -0.5l29 1c50 -0.666992 86.833 4.83301 110.5 16.5s42.5 42.834 56.5 93.501l34 -8l-34 -144c-20 0 -40.167 0.333008 -60.5 1l-60.5 2
c-20 0 -40.167 0.166992 -60.5 0.5s-40.5 0.5 -60.5 0.5h-114c-20.667 -1.33301 -41.167 -2.16602 -61.5 -2.49902s-41.166 -0.833008 -62.499 -1.5v35c25.333 -0.666992 44.666 2.5 57.999 9.5s20.333 24.5 21 52.5l1 67v339l-1 65
c-0.666992 28.667 -7.66699 46.334 -21 53.001s-32.666 10 -57.999 10v36c18.667 -2 37.334 -3.33301 56.001 -4s37.334 -1 56.001 -1c18 -0.666992 36.333 -1 55 -1h56c18.667 0 37.167 0.166992 55.5 0.5s36.833 0.5 55.5 0.5l54.5 2l55.5 2l14 -136v0z" />
    <glyph glyph-name="F" unicode="F" horiz-adv-x="504" 
d="M478 523l-33.9922 -2.99707c-3.33301 36.667 -14.5 63 -33.5 79s-46.833 24.333 -83.5 25c-6.66699 0 -13.334 0.166992 -20.001 0.5s-13.334 0.5 -20.001 0.5c-7.33301 0 -14.333 0.166992 -21 0.5s-13.334 0.5 -20.001 0.5c-16.667 0 -27.5 -1.16699 -32.5 -3.5
s-7.5 -9.16602 -7.5 -20.499v-10c0 -3.33301 0.333008 -6.33301 1 -9v-10v-10v-218h93c44.667 -0.666992 72.5 2.16602 83.5 8.49902s18.5 20.5 22.5 42.5l2 14c0.666992 4.66699 1.66699 9.66699 3 15l33 1c0 -6 -0.166992 -11.833 -0.5 -17.5s-0.5 -11.5 -0.5 -17.5
c-0.666992 -11.333 -1.16699 -22.5 -1.5 -33.5s-0.5 -22.167 -0.5 -33.5c0 -8 0.166992 -16.167 0.5 -24.5s0.5 -16.5 0.5 -24.5c0 -2.66699 0.166992 -5.33398 0.5 -8.00098s0.5 -5.33398 0.5 -8.00098c0 -5.33301 0.166992 -10.833 0.5 -16.5s0.5 -11.167 0.5 -16.5l-33 1
c0 1.33301 -0.166992 3.16602 -0.5 5.49902s-0.5 4.5 -0.5 6.5c-1.33301 20 -6 35.833 -14 47.5s-32 17.5 -72 17.5l-117 1v-141l1 -66c0.666992 -30 8.16699 -48.167 22.5 -54.5s33.833 -9.5 58.5 -9.5v-34c-10 -0 -19.833 0.333008 -29.5 1l-29.5 2
c-10 0 -19.833 0.166992 -29.5 0.5s-19.5 0.5 -29.5 0.5c-10.667 0 -21.334 -0.166992 -32.001 -0.5s-21.334 -0.5 -32.001 -0.5l-32 -2c-10.667 -0.666992 -21.334 -1 -32.001 -1v35c25.333 -0.666992 44.666 2.5 57.999 9.5s20.333 24.5 21 52.5l1 67v339l-1 65
c-0.666992 30 -8.33398 48 -23.001 54s-34.667 9 -60 9v36c19.333 -2 38.5 -3.33301 57.5 -4s38.167 -1 57.5 -1c18.667 -0.666992 37.667 -1 57 -1h57c16 0 32.167 0.166992 48.5 0.5s32.5 0.5 48.5 0.5l48.5 2l48.5 2l16 -143v0z" />
    <glyph glyph-name="G" unicode="G" horiz-adv-x="703" 
d="M635 492l-30.0029 -4.99805c-12 50.667 -35 87.667 -69 111s-77 35 -129 35c-92.667 0 -161 -33 -205 -99s-66 -140.667 -66 -224c0 -78 23.667 -144.167 71 -198.5s111.333 -81.5 192 -81.5c39.333 0 70.5 5.66699 93.5 17s34.5 37.666 34.5 78.999v23
c0 37.333 -3.66699 61 -11 71s-32.666 16 -75.999 18l-23 2v36c22 -3.33301 43.833 -5.5 65.5 -6.5s43.167 -1.5 64.5 -1.5s42.5 0.666992 63.5 2s41.833 3 62.5 5v-35c-27.333 -2 -44.333 -7.33301 -51 -16s-10.667 -27 -12 -55v-58c0 -14.667 0.5 -28.667 1.5 -42
s3.5 -26.666 7.5 -39.999c-36.667 -12.667 -74 -22.834 -112 -30.501s-76.333 -11.5 -115 -11.5c-97.333 0 -180.333 28.5 -249 85.5s-103 136.833 -103 239.5c0 113.333 32.833 202.166 98.5 266.499s154.834 96.5 267.501 96.5c36 0 71.833 -3.83301 107.5 -11.5
s70.834 -16.5 105.501 -26.5l16 -145v0z" />
    <glyph glyph-name="H" unicode="H" horiz-adv-x="779" 
d="M207 368l366 0.00195312v135l-2 65c-0.666992 28 -7.5 45.5 -20.5 52.5s-32.5 10.5 -58.5 10.5v36c10 -1.33301 20.167 -2.33301 30.5 -3l30.5 -2c10 -0.666992 20.167 -1 30.5 -1h30.5c20.667 0 41.167 0.333008 61.5 1s40.833 2 61.5 4v-34h-11
c-24.667 -0.666992 -42.167 -5.16699 -52.5 -13.5s-15.833 -25.5 -16.5 -51.5l-1 -64v-339l1 -66c0.666992 -26 6.16699 -43.167 16.5 -51.5s27.833 -12.5 52.5 -12.5l11 1v-35c-20 0.666992 -40 1.5 -60 2.5s-40.333 1.5 -61 1.5c-10 0 -20.167 -0.166992 -30.5 -0.5
s-20.833 -0.833008 -31.5 -1.5c-5.33301 0 -10.5 -0.166992 -15.5 -0.5s-10.167 -0.5 -15.5 -0.5c-5.33301 -0.666992 -10.5 -1 -15.5 -1h-15.5v35c26 -0.666992 45.5 2.66602 58.5 9.99902s19.833 24.666 20.5 51.999l2 67v161h-366v-161l1 -66
c0.666992 -29.333 8 -47.333 22 -54s33.333 -10 58 -10v-34c-21.333 0.666992 -42.833 1.5 -64.5 2.5s-43.167 1.5 -64.5 1.5c-14.667 0 -29.334 -0.333008 -44.001 -1l-44 -2c-5.33301 -0.666992 -10.333 -1 -15 -1h-15v35c25.333 -0.666992 45 2.33301 59 9
s21.333 24.334 22 53.001l1 67v339l-1 65c-0.666992 29.333 -8 47.166 -22 53.499s-33.667 9.5 -59 9.5v36c20.667 -2 41.334 -3.5 62.001 -4.5s41.334 -1.5 62.001 -1.5s41.167 0.5 61.5 1.5s40.833 2.16699 61.5 3.5v-34h-11c-24 -0.666992 -41.333 -5.16699 -52 -13.5
s-16.334 -25.5 -17.001 -51.5l-1 -64v-135v0z" />
    <glyph glyph-name="I" unicode="I" horiz-adv-x="328" 
d="M42 632l0.000976562 34.998c10 -1.33301 20.167 -2.33301 30.5 -3l31.5 -2c10.667 -0.666992 21.167 -1 31.5 -1h30.5c20.667 0 41 0.5 61 1.5s40 2.16699 60 3.5v-34h-12c-24 -0.666992 -41.333 -5.16699 -52 -13.5s-16.334 -25.5 -17.001 -51.5l-1 -64v-339l1 -66
c0.666992 -29.333 8.16699 -47.333 22.5 -54s33.833 -10 58.5 -10v-34c-10 0 -20.167 0.333008 -30.5 1l-30.5 2c-10 0 -20.167 0.166992 -30.5 0.5s-20.5 0.5 -30.5 0.5c-20.667 0 -41.167 -0.5 -61.5 -1.5s-40.833 -1.83301 -61.5 -2.5v35
c25.333 -0.666992 45 2.33301 59 9s21.333 24.334 22 53.001l1 67v339l-1 65c-0.666992 28.667 -8 46.334 -22 53.001s-33.667 10 -59 10v1z" />
    <glyph glyph-name="J" unicode="J" horiz-adv-x="310" 
d="M33 667c10.667 -1.33301 21.1631 -2.33691 31.4961 -3.00391l31.5 -2c10 0 20.167 -0.166992 30.5 -0.5s20.833 -0.5 31.5 -0.5c10 0 20 0.166992 30 0.5s20.333 0.5 31 0.5l30 2l30 2v-34c-2 -0.666992 -4 -1 -6 -1s-4 -0.333008 -6 -1h-5.5h-4.5
c-11.333 -0.666992 -21.833 -3 -31.5 -7s-15.5 -13.667 -17.5 -29c-1.33301 -10.667 -2.16602 -21.5 -2.49902 -32.5s-0.5 -22.167 -0.5 -33.5v-74v-173c0 -10 0.166992 -19.667 0.5 -29s0.5 -18.666 0.5 -27.999c0 -10 0.166992 -19.667 0.5 -29s0.5 -18.666 0.5 -27.999
c0 -40 -1.33301 -76.833 -4 -110.5s-11.334 -66.167 -26.001 -97.5c-5.33301 -10.667 -11.5 -21.667 -18.5 -33s-15.167 -22.666 -24.5 -33.999l-15.5 -19c-5.66699 -6.66699 -12.167 -13.334 -19.5 -20.001c-12 -12.667 -25.5 -24.667 -40.5 -36s-30.167 -20.333 -45.5 -27
c-7.33301 -3.33301 -14.5 -5.83301 -21.5 -7.5s-14.167 -2.5 -21.5 -2.5c-2.66699 0 -6.33398 0.166992 -11.001 0.5s-9.66699 0.833008 -15 1.5c-7.33301 0.666992 -14.166 2.5 -20.499 5.5s-9.5 7.5 -9.5 13.5c0 2.66699 1.16699 6.83398 3.5 12.501s5.5 11.5 9.5 17.5
c2 4 4.16699 7.83301 6.5 11.5s4.83301 6.83398 7.5 9.50098c2.66699 3.33301 5.5 6 8.5 8s5.5 3.33301 7.5 4h2c0.666992 0 1.33398 -0.333008 2.00098 -1h2h2c8 -3.33301 15.833 -6.16602 23.5 -8.49902s15.834 -3.5 24.501 -3.5c34.667 0 59.334 12.833 74.001 38.5
s24.334 53.834 29.001 84.501c2 13.333 3.33301 26.166 4 38.499s1 23.833 1 34.5l1 121v117v155v63c0 21.333 -0.666992 42.666 -2 63.999c-2 30 -9.66699 47.833 -23 53.5s-33 9.16699 -59 10.5h-2.5h-2.5v36v0z" />
    <glyph glyph-name="K" unicode="K" horiz-adv-x="676" 
d="M205 336l120.001 130.999c10 10 19.833 20.667 29.5 32l28.5 34l4 4c1.33301 1.33301 2.33301 2.66602 3 3.99902l11.5 13.5l10.5 12.5c1.33301 1.33301 3 3.16602 5 5.49902s3.66699 4.5 5 6.5c2 2.66699 4 5.5 6 8.5s3.66699 5.83301 5 8.5s2.5 5.33398 3.5 8.00098
s1.5 5.33398 1.5 8.00098c0 6.66699 -2.33301 11.167 -7 13.5s-10 3.83301 -16 4.5c-2.66699 0.666992 -5.33398 1 -8.00098 1h-7l-11 1v35c18 -2 36 -3.5 54 -4.5s36 -1.5 54 -1.5c19.333 0 38.5 0.5 57.5 1.5s37.833 2.16699 56.5 3.5v-34
c-29.333 -2 -54.333 -8.66699 -75 -20s-40.334 -25.666 -59.001 -42.999l-18 -18c-6 -6 -12 -12.333 -18 -19l-116 -120l158 -208l22 -32l25 -34c19.333 -26.667 41.333 -51.167 66 -73.5s52.334 -33.5 83.001 -33.5v-31h-52.5h-52.5
c-15.333 0.666992 -27.5 2.66699 -36.5 6s-17.5 9 -25.5 17c-3.33301 3.33301 -6.83301 7.33301 -10.5 12l-11.5 15l-18.5 24.5l-18.5 25.5l-19.5 25.5l-18.5 24.5l-146 202l-64 -68v-120l2 -66c0.666992 -29.333 8 -47.333 22 -54s33.333 -10 58 -10v-34h-15.5
c-5 -0 -10.167 0.333008 -15.5 1l-44.5 2c-15 0.666992 -30.167 1 -45.5 1c-10.667 0 -21.167 -0.166992 -31.5 -0.5s-20.5 -0.5 -30.5 -0.5l-31.5 -2c-10.333 -0.666992 -20.833 -1 -31.5 -1v35c25.333 -0.666992 45 2.33301 59 9s21.333 24.334 22 53.001l1 67v339l-1 65
c-0.666992 29.333 -8 47.166 -22 53.499s-33.667 9.5 -59 9.5v36c20.667 -2 41.167 -3.5 61.5 -4.5s40.833 -1.5 61.5 -1.5s41.167 0.5 61.5 1.5s40.833 2.16699 61.5 3.5v-34h-12c-24 -0.666992 -41.167 -5.16699 -51.5 -13.5s-15.833 -25.5 -16.5 -51.5l-2 -64v-167v0z
" />
    <glyph glyph-name="L" unicode="L" horiz-adv-x="524" 
d="M499 149l32.001 -9.00195l-41 -140c-54 2 -108 3.16699 -162 3.5s-108.333 0.5 -163 0.5c-20 0 -40 -0.5 -60 -1.5s-40.333 -1.83301 -61 -2.5v35c25.333 -0.666992 44.666 2.5 57.999 9.5s20 24.5 20 52.5l2 67v339l-2 65c0 28.667 -6.83301 46.334 -20.5 53.001
s-32.834 10 -57.501 10v36c10 -1.33301 19.833 -2.33301 29.5 -3l28.5 -2c9.33301 0 18.833 -0.166992 28.5 -0.5s19.5 -0.5 29.5 -0.5c21.333 0 42.833 0.333008 64.5 1s43.5 2 65.5 4v-34h-13c-24.667 -0.666992 -42.167 -5.16699 -52.5 -13.5s-15.833 -25.5 -16.5 -51.5
l-1 -64v-329v-62v-9.5c0 -3 0.333008 -5.83301 1 -8.5c0.666992 -9.33301 2.33398 -18.166 5.00098 -26.499s7.66699 -14.833 15 -19.5c5.33301 -3.33301 13.5 -5.5 24.5 -6.5s22.5 -1.83301 34.5 -2.5h8.5h8.5c52.667 0 94 4.5 124 13.5s53.667 40.833 71 95.5v1z" />
    <glyph glyph-name="M" unicode="M" horiz-adv-x="882" 
d="M33 667c6.66699 -1.33301 13.167 -2.33496 19.5 -3.00195s12.833 -1 19.5 -1c6 -0.666992 12.167 -1 18.5 -1h19.5h21.5c7 0 14.167 0.333008 21.5 1c6.66699 0 13.667 0.333008 21 1l21 2l45 -103l47 -101l154 -318l152 319l16 31.5l16 33.5l11.5 23.5l11.5 23.5
l19.5 46c6.33301 15.333 11.5 30.333 15.5 45c14.667 -1.33301 29 -2.33301 43 -3s28 -1 42 -1c13.333 0 26.5 0.333008 39.5 1s25.833 1.66699 38.5 3v-32h-21c-26 -1.33301 -44.5 -5.83301 -55.5 -13.5s-16.5 -25.167 -16.5 -52.5v-12c0 -4 0.333008 -8 1 -12l10 -355
l1 -59c0.666992 -38.667 4.66699 -64 12 -76s30.333 -18.667 69 -20v-34c-20.667 0.666992 -41.167 1.5 -61.5 2.5s-40.833 1.5 -61.5 1.5s-41.167 -0.5 -61.5 -1.5s-40.833 -1.83301 -61.5 -2.5v35c32.667 0.666992 54.5 6.33398 65.5 17.001s16.5 31.667 16.5 63v37
l-4 386l-195 -413l-5.5 -13c-1.66699 -4 -3.5 -7.66699 -5.5 -11l-21.5 -47.5c-7 -15.667 -13.5 -31.834 -19.5 -48.501l-16 1l-250 526l-5 -326c-0.666992 -11.333 -1 -22.666 -1 -33.999v-34c0 -28.667 3.5 -53.167 10.5 -73.5s28.167 -30.5 63.5 -30.5l8 1v-35h-13.5
c-4.33301 0 -8.83301 0.333008 -13.5 1l-40.5 2c-13.667 0.666992 -27.5 1 -41.5 1c-16.667 0 -33.167 -0.5 -49.5 -1.5s-32.833 -1.83301 -49.5 -2.5v35c1.33301 -0.666992 2.5 -1 3.5 -1s1.83301 0.333008 2.5 1h3.5h2.5h3.5h2.5c8 0.666992 15.833 2.16699 23.5 4.5
s13.834 6.5 18.501 12.5c4.66699 6.66699 8.16699 15.167 10.5 25.5s4.16602 20.833 5.49902 31.5c0.666992 7.33301 1.16699 14.5 1.5 21.5s0.5 13.5 0.5 19.5v4.5v4.5l1 35l10 303c0 3.33301 0.166992 6.83301 0.5 10.5s0.5 7.5 0.5 11.5c0 2 0.166992 3.83301 0.5 5.5
s0.5 3.5 0.5 5.5c0 5.33301 0.166992 10.833 0.5 16.5s0.5 11.5 0.5 17.5c0 26.667 -4.83301 44.834 -14.5 54.501s-27.167 14.5 -52.5 14.5l-25 1v33v0z" />
    <glyph glyph-name="N" unicode="N" horiz-adv-x="760" 
d="M40 667c7.33301 -1.33301 14.4951 -2.16992 21.4951 -2.50293s14.167 -0.833008 21.5 -1.5c7.33301 0 14.5 -0.166992 21.5 -0.5s14.167 -0.5 21.5 -0.5c6.66699 0 13.167 0.166992 19.5 0.5s12.833 0.5 19.5 0.5c6 0.666992 12.167 1.16699 18.5 1.5
s12.833 0.833008 19.5 1.5l395 -518v232v58l-4 103c-0.666992 34.667 -5.16699 58.334 -13.5 71.001s-30.833 19.334 -67.5 20.001v35c8.66699 -1.33301 17.5 -2.33301 26.5 -3l26.5 -2c8.66699 -0.666992 17.5 -1 26.5 -1h26.5c9.33301 0 18.333 0.166992 27 0.5
s17.667 0.5 27 0.5l26.5 2l26.5 2v-33c-2.66699 -0.666992 -5.66699 -1 -9 -1h-9c-6.66699 -0.666992 -13 -1.66699 -19 -3s-11.667 -3.66602 -17 -6.99902c-7.33301 -5.33301 -12.833 -12.666 -16.5 -21.999s-6.16699 -19 -7.5 -29c-0.666992 -6 -1 -12 -1 -18v-16v-5
l-2 -105l-4 -443h-18l-456 589l2 -295v-14.5v-13.5l2 -78.5c0.666992 -26.333 2.33398 -52.5 5.00098 -78.5c3.33301 -26.667 11 -43.5 23 -50.5s30.333 -10.5 55 -10.5v-32c-9.33301 0 -18.666 0.333008 -27.999 1l-28 2c-10 0 -19.667 0.166992 -29 0.5
s-18.666 0.5 -27.999 0.5c-8.66699 0 -17.167 -0.166992 -25.5 -0.5s-16.5 -0.833008 -24.5 -1.5c-4.66699 0 -9 -0.166992 -13 -0.5s-8.33301 -0.5 -13 -0.5c-4 -0.666992 -8.16699 -1 -12.5 -1h-12.5v33c38 -0.666992 60.333 8.16602 67 26.499s10.334 42.833 11.001 73.5
v2.5v2.5l2 72l4 301v34c0 36.667 -5.66699 59.667 -17 69s-33.666 15.333 -66.999 18v35v0z" />
    <glyph glyph-name="O" unicode="O" horiz-adv-x="774" 
d="M734 334c0 -99.333 -33.501 -181.5 -100.501 -246.5s-149.833 -97.5 -248.5 -97.5c-99.333 0 -181.666 33 -246.999 99s-98 148.333 -98 247c0 98 34.5 179.167 103.5 243.5s151.5 96.5 247.5 96.5c97.333 0 178.833 -32.833 244.5 -98.5s98.5 -147.167 98.5 -244.5v1z
M640.999 324c0 8 -0.335938 16.501 -1.00293 25.501s-1.66699 17.833 -3 26.5c-9.33301 65.333 -35.166 125 -77.499 179s-98.833 81 -169.5 81c-82.667 0 -146 -30 -190 -90s-66 -128 -66 -204c0 -5.33301 0.166992 -10.833 0.5 -16.5s0.5 -11.167 0.5 -16.5
c6.66699 -70.667 31.834 -135.334 75.501 -194.001s104.5 -88 182.5 -88c80.667 0 141.834 30.167 183.501 90.5s63.167 126.833 64.5 199.5v3.5v2.5v1z" />
    <glyph glyph-name="P" unicode="P" horiz-adv-x="511" 
d="M261 290v33.002c46 2 82.833 16.667 110.5 44s41.5 64.333 41.5 111c0 52.667 -15.833 91 -47.5 115s-71.834 36 -120.501 36h-18c-6 0 -11.667 -0.333008 -17 -1c-0.666992 -10.667 -1.16699 -21.334 -1.5 -32.001s-0.5 -21.334 -0.5 -32.001
c-0.666992 -10.667 -1 -21.334 -1 -32.001v-32v-336l1 -66c0.666992 -30.667 8.33398 -49 23.001 -55s34.667 -9 60 -9v-34c-10 0 -20 0.333008 -30 1l-30 2c-10.667 0 -21 0.166992 -31 0.5s-20 0.5 -30 0.5c-21.333 0 -42.833 -0.5 -64.5 -1.5
s-43.167 -1.83301 -64.5 -2.5v35c25.333 -0.666992 45 2.33301 59 9s21.333 24.334 22 53.001l2 67v339v16.5c0 5.66699 -0.333008 11.167 -1 16.5c0 31.333 -3.33301 55 -10 71s-30.667 24 -72 24v36c6.66699 -1.33301 13.5 -2.16602 20.5 -2.49902s13.833 -0.5 20.5 -0.5
c6.66699 -0.666992 13.5 -1 20.5 -1h20.5c14 0 27.833 0.333008 41.5 1l40.5 2l40.5 2c13.667 0.666992 27.5 1 41.5 1l34 1c53.333 -0.666992 95.5 -16.834 126.5 -48.501s46.5 -74.167 46.5 -127.5c0 -66.667 -23.5 -117.5 -70.5 -152.5s-101.167 -52.5 -162.5 -52.5v1z
" />
    <glyph glyph-name="Q" unicode="Q" horiz-adv-x="772" 
d="M438 -7l122.998 -59.001c0.666992 -0.666992 1.5 -1.16699 2.5 -1.5s2.16699 -0.833008 3.5 -1.5c50.667 -24.667 103.167 -47.5 157.5 -68.5s110.166 -31.5 167.499 -31.5c25.333 0 50.166 1.33301 74.499 4s48.5 7.33398 72.5 14.001l3 -25
c-2 -0.666992 -4.16699 -1.16699 -6.5 -1.5s-4.5 -0.833008 -6.5 -1.5c-7.33301 -1.33301 -14.833 -2.83301 -22.5 -4.5s-15.167 -3.16699 -22.5 -4.5c-29.333 -6 -58.666 -11 -87.999 -15s-59 -6 -89 -6c-39.333 0 -82.5 7.66699 -129.5 23s-94.833 34 -143.5 56l-56 27
l-55 28l-101.5 52c-32.333 16.667 -62.166 31.334 -89.499 44.001c-61.333 29.333 -108.666 71.833 -141.999 127.5s-50 117.167 -50 184.5c0 98 34.167 179.5 102.5 244.5s150.833 97.5 247.5 97.5c94.667 0 175.334 -32.667 242.001 -98s100 -145.666 100 -240.999
c0 -94.667 -26.5 -170.834 -79.5 -228.501s-124.5 -95.834 -214.5 -114.501v0zM639.998 324.999c0 4 -0.166992 8.5 -0.5 13.5s-0.5 9.83301 -0.5 14.5c-5.33301 70.667 -29.833 135.334 -73.5 194.001s-104.5 88 -182.5 88c-78.667 0 -139.667 -29.833 -183 -89.5
s-66 -125.167 -68 -196.5v-5v-4c0 -78.667 21.333 -150.334 64 -215.001s107.667 -97 195 -97c80.667 0 142 30.167 184 90.5s63.667 126.833 65 199.5v3.5v2.5v1z" />
    <glyph glyph-name="R" unicode="R" horiz-adv-x="637" 
d="M637 31l-0.00292969 -31.001h-67c-38 0 -63.167 3.66699 -75.5 11s-22.166 17 -29.499 29l-6 10l-6 10l-174 251c-6 -1.33301 -12 -2.16602 -18 -2.49902s-12 -0.5 -18 -0.5c-6.66699 -0.666992 -13 -1 -19 -1h-18v-143l1 -66c0.666992 -30 8.16699 -48.333 22.5 -55
s34.166 -10 59.499 -10l-1 -33c-20 0.666992 -40.167 1.5 -60.5 2.5s-40.833 1.5 -61.5 1.5s-41.334 -0.5 -62.001 -1.5s-41.334 -1.83301 -62.001 -2.5v34c25.333 -0.666992 44.833 2.5 58.5 9.5s20.834 24.833 21.501 53.5l1 67v339l-1 65
c-0.666992 28.667 -7.83398 46.334 -21.501 53.001s-33.167 10 -58.5 10v36c13.333 -2 26.5 -3.5 39.5 -4.5s25.833 -1.5 38.5 -1.5c16.667 0 33.334 0.333008 50.001 1s33.334 1.66699 50.001 3l49 2c16.667 0.666992 33.334 1 50.001 1c44 0 82.167 -14.333 114.5 -43
s48.5 -65.667 48.5 -111c0 -44 -11.167 -81.667 -33.5 -113s-53.5 -55 -93.5 -71c5.33301 -5.33301 10.5 -11.333 15.5 -18s9.83301 -13.667 14.5 -21c1.33301 -1.33301 2.5 -2.83301 3.5 -4.5s2.16699 -3.5 3.5 -5.5l95 -128l16 -23c6 -8.66699 12.333 -17.334 19 -26.001
l10 -12l10 -12c6.66699 -7.33301 13.334 -14.166 20.001 -20.499s12.667 -11.5 18 -15.5c8.66699 -4.66699 17.834 -7.83398 27.501 -9.50098s19.5 -3.16699 29.5 -4.5v1zM205.997 345.999l35 0.000976562c43.333 -0.666992 80.833 11.666 112.5 36.999s47.5 61 47.5 107
c0 48.667 -15.167 84 -45.5 106s-67.833 33 -112.5 33c-5.33301 0 -11 -0.166992 -17 -0.5s-12 -0.833008 -18 -1.5c0 -10 -0.166992 -20 -0.5 -30s-0.5 -20 -0.5 -30c0 -10.667 -0.166992 -21 -0.5 -31s-0.5 -20 -0.5 -30v-160v0z" />
    <glyph glyph-name="S" unicode="S" horiz-adv-x="457" 
d="M410 536l-34 -7.00098c-6.66699 28.667 -19.5 54 -38.5 76s-44.5 34 -76.5 36c-32.667 0 -62.5 -9.83301 -89.5 -29.5s-40.5 -47.5 -40.5 -83.5c0 -31.333 11 -57.333 33 -78s47.667 -40.334 77 -59.001c4.66699 -3.33301 9.66699 -6.66602 15 -9.99902
s11 -6.66602 17 -9.99902c35.333 -22 67.666 -47.5 96.999 -76.5s44 -68.5 44 -118.5c0 -60 -22 -106 -66 -138s-93.667 -48 -149 -48c-26.667 0 -53 3.16699 -79 9.5s-51 14.833 -75 25.5c-2 22.667 -4.83301 45.167 -8.5 67.5s-7.5 44.5 -11.5 66.5l38 8
c8 -37.333 22.333 -69.833 43 -97.5s52 -42.5 94 -44.5c35.333 0 67.333 11 96 33s43 52 43 90c0 36 -12.167 65.333 -36.5 88s-51.833 44 -82.5 64l-10 6l-10 6c-34.667 22 -66.5 47 -95.5 75s-43.5 65.667 -43.5 113c0 59.333 21.5 103.5 64.5 132.5
s91.167 43.5 144.5 43.5c20 0 40 -1.83301 60 -5.5s39.667 -8.5 59 -14.5c2 -20.667 4.83301 -41 8.5 -61s7.83398 -40 12.501 -60v1z" />
    <glyph glyph-name="T" unicode="T" horiz-adv-x="568" 
d="M44 685l16.0029 0.000976562c9.33301 -6.66699 19.166 -11.334 29.499 -14.001s20.833 -4.66699 31.5 -6c6 -0.666992 12 -1.16699 18 -1.5s12 -0.833008 18 -1.5c14 0 27.833 -0.166992 41.5 -0.5s27.167 -0.5 40.5 -0.5h40.5h41.5h37.5
c12.333 0 24.833 0.333008 37.5 1c12 0 24.167 0.333008 36.5 1l37.5 2c15.333 1.33301 30.166 3.5 44.499 6.5s28.5 7.16699 42.5 12.5l17 1c-6.66699 -24 -13 -48 -19 -72s-11 -48.333 -15 -73l-33 1c1.33301 4.66699 2.33301 9.5 3 14.5s1 9.83301 1 14.5
c0 22.667 -7.33301 37 -22 43s-31.667 9 -51 9l-112 1v-459l1 -66c0.666992 -31.333 8.66699 -49.833 24 -55.5s35.333 -8.5 60 -8.5v-34c-20.667 0.666992 -41.5 1.5 -62.5 2.5s-42.167 1.5 -63.5 1.5c-10 0 -20.167 -0.166992 -30.5 -0.5s-20.833 -0.833008 -31.5 -1.5
c-5.33301 0 -10.5 -0.166992 -15.5 -0.5s-10.167 -0.5 -15.5 -0.5c-5.33301 -0.666992 -10.5 -1 -15.5 -1h-15.5v35c25.333 -0.666992 44.666 2.5 57.999 9.5s20.333 24.5 21 52.5l2 67v459h-65c-35.333 -0.666992 -62.833 -4.16699 -82.5 -10.5s-37.5 -25.833 -53.5 -58.5
c-1.33301 -2 -2.5 -4.16699 -3.5 -6.5s-2.16699 -4.83301 -3.5 -7.5l-34 1c6 15.333 11.5 31 16.5 47s9.5 32 13.5 48l2 6l2 6c1.33301 6 2.83301 12 4.5 18s3.5 12 5.5 18v1z" />
    <glyph glyph-name="U" unicode="U" horiz-adv-x="728" 
d="M32 633l-0.000976562 34c8.66699 -1.33301 17.5 -2.33301 26.5 -3l26.5 -2c8.66699 -0.666992 17.5 -1 26.5 -1h26.5c22 0 43.833 0.5 65.5 1.5s43.167 2.16699 64.5 3.5v-33c-1.33301 -0.666992 -2.5 -1 -3.5 -1h-3.5c-2.66699 0 -5.16699 -0.166992 -7.5 -0.5
s-4.83301 -0.5 -7.5 -0.5c-8 -0.666992 -15.5 -2 -22.5 -4s-13.167 -5.66699 -18.5 -11c-5.33301 -6 -9.16602 -13.333 -11.499 -22s-3.83301 -18 -4.5 -28v-8.5v-8.5v-25v-219c0 -70.667 9.66699 -134.167 29 -190.5s72.333 -84.5 159 -84.5c88 0 143.333 26.167 166 78.5
s34 115.166 34 188.499v39v109l-1 75v5v6c-0.666992 29.333 -4.16699 53.5 -10.5 72.5s-28.5 28.5 -66.5 28.5v35c15.333 -2.66699 31 -4.33398 47 -5.00098s32 -1 48 -1c16.667 0 33.167 0.333008 49.5 1s32.833 2 49.5 4v-33
c-30.667 -0.666992 -49.5 -10.834 -56.5 -30.501s-10.5 -43.167 -10.5 -70.5v-22v-22c-0.666992 -7.33301 -1 -14.666 -1 -21.999v-22v-126c0 -93.333 -15.167 -172.166 -45.5 -236.499s-101.166 -96.5 -212.499 -96.5c-7.33301 0 -14.5 0.166992 -21.5 0.5
s-14.167 0.833008 -21.5 1.5c-38 3.33301 -74.5 12.5 -109.5 27.5s-62.167 40.5 -81.5 76.5c-7.33301 13.333 -12.833 27.833 -16.5 43.5s-6.16699 31.834 -7.5 48.501c-0.666992 12 -1.16699 24 -1.5 36s-0.5 23.333 -0.5 34v243v30c0 30.667 -3.33301 56 -10 76
s-28.334 30 -65.001 30v1z" />
    <glyph glyph-name="V" unicode="V" horiz-adv-x="586" 
d="M-27 633l-0.00195312 34c18.667 -3.33301 37.5 -5.16602 56.5 -5.49902s37.833 -0.5 56.5 -0.5c19.333 0 38.833 0.333008 58.5 1s39.5 2 59.5 4v-33c-2 -0.666992 -4.33301 -1.16699 -7 -1.5s-5 -0.5 -7 -0.5c-11.333 -2 -21.666 -5.5 -30.999 -10.5
s-14 -13.833 -14 -26.5c0 -10.667 1.66699 -21.167 5 -31.5s7.33301 -20.166 12 -29.499c0 -1.33301 0.166992 -2.5 0.5 -3.5s0.833008 -1.83301 1.5 -2.5l144 -370l140 352l4.5 11.5c1.66699 4.33301 3.5 8.5 5.5 12.5c4 10 7.83301 20.167 11.5 30.5s5.5 20.833 5.5 31.5
c0 13.333 -5.16699 22.5 -15.5 27.5s-21.833 7.83301 -34.5 8.5c-2 0.666992 -3.83301 1 -5.5 1h-5.5v35c8.66699 -1.33301 17.334 -2.33301 26.001 -3l26 -2c8 -0.666992 16.333 -1 25 -1h26c16.667 0 33.167 0.333008 49.5 1s32.833 2 49.5 4v-33
c-34 -0.666992 -58.667 -12.5 -74 -35.5s-28 -48.167 -38 -75.5c-0.666992 -3.33301 -1.66699 -6.66602 -3 -9.99902s-2.33301 -6.33301 -3 -9c-1.33301 -4.66699 -2.83301 -9 -4.5 -13s-3.16699 -8 -4.5 -12l-124 -303c-3.33301 -8.66699 -6.5 -17.334 -9.5 -26.001
s-5.83301 -17.334 -8.5 -26.001c-1.33301 -4 -2.83301 -8.16699 -4.5 -12.5s-3.16699 -8.5 -4.5 -12.5c-6 -18 -12.333 -35.667 -19 -53s-14 -33.333 -22 -48h-16l-21 57l-23 58c-2.66699 6 -5.16699 12.167 -7.5 18.5l-7.5 19.5l-113 291l-10 23l-10 25
c-0.666992 2.66699 -1.66699 5.33398 -3 8.00098s-2.33301 5.33398 -3 8.00098c-2 5.33301 -4.16699 10.666 -6.5 15.999s-4.5 10.666 -6.5 15.999s-4.16699 10.666 -6.5 15.999l-6.5 15c-8 18.667 -17.5 33.5 -28.5 44.5s-29.167 17.5 -54.5 19.5z" />
    <glyph glyph-name="W" unicode="W" horiz-adv-x="877" 
d="M-26 634v32.001c4.66699 -0.666992 9.16699 -1.16699 13.5 -1.5s8.5 -0.833008 12.5 -1.5l38 -2c12.667 -0.666992 25.334 -1 38.001 -1c18.667 0 37.167 0.5 55.5 1.5s36.5 2.16699 54.5 3.5v-31c-2 -0.666992 -3.83301 -1.16699 -5.5 -1.5s-3.16699 -0.5 -4.5 -0.5
c-9.33301 -1.33301 -17.833 -4 -25.5 -8s-11.5 -11.333 -11.5 -22c0 -4.66699 0.333008 -9.16699 1 -13.5s1.66699 -8.83301 3 -13.5c2 -6.66699 4.33301 -13.167 7 -19.5l8 -19.5l6 -13.5c2 -4.33301 3.66699 -8.5 5 -12.5l148 -373l93 206l-88 198
c-0.666992 0.666992 -1.16699 1.5 -1.5 2.5s-0.833008 2.16699 -1.5 3.5c-0.666992 0.666992 -1.16699 1.66699 -1.5 3s-0.833008 2.33301 -1.5 3c-8.66699 19.333 -18.667 37 -30 53s-29 25 -53 27v33c4.66699 -0.666992 9.16699 -1.16699 13.5 -1.5
s8.5 -0.833008 12.5 -1.5l39.5 -2c13 -0.666992 25.833 -1 38.5 -1c8 0 16 0.166992 24 0.5s16 0.833008 24 1.5c3.33301 0 7 0.166992 11 0.5s8 0.5 12 0.5c4 0.666992 8 1.16699 12 1.5s8 0.5 12 0.5v-31c-10.667 -1.33301 -20.334 -3.5 -29.001 -6.5
s-13 -10.833 -13 -23.5c0 -10 1.66699 -20 5 -30s7 -20 11 -30c0.666992 -1.33301 1.33398 -2.83301 2.00098 -4.5s1.33398 -3.5 2.00098 -5.5l45 -101l47 108c0.666992 0 1.16699 0.5 1.5 1.5s0.5 1.83301 0.5 2.5c4.66699 8.66699 8.66699 17.834 12 27.501
s5 19.167 5 28.5c0 13.333 -4.33301 22 -13 26s-18.334 6 -29.001 6v33c3.33301 -0.666992 6.66602 -1.16699 9.99902 -1.5s6.66602 -0.833008 9.99902 -1.5l30.5 -2c10.333 -0.666992 20.833 -1 31.5 -1c7.33301 0 14.666 0.166992 21.999 0.5s14.666 0.5 21.999 0.5l22 2
l22 2v-31c-24.667 -0.666992 -42.667 -6.66699 -54 -18s-21.333 -26 -30 -44l-6 -14c-2 -4.66699 -4.33301 -9.33398 -7 -14.001l-73 -163l108 -244l134 311c6 13.333 11.833 27 17.5 41s11.167 28.333 16.5 43c0.666992 2 1.33398 3.83301 2.00098 5.5
s1.33398 3.5 2.00098 5.5c3.33301 7.33301 6.16602 14.833 8.49902 22.5s3.83301 15.5 4.5 23.5c0 16 -5.5 26.833 -16.5 32.5s-23.167 9.16699 -36.5 10.5c-1.33301 0.666992 -2.66602 1 -3.99902 1h-4v33c8 -1.33301 16.167 -2.33301 24.5 -3l25.5 -2
c8.66699 0 17.167 -0.166992 25.5 -0.5s16.5 -0.5 24.5 -0.5c16 0 32 0.5 48 1.5s32 2.16699 48 3.5v-33c-0.666992 -0.666992 -1.33398 -1 -2.00098 -1h-2c-0.666992 -0.666992 -1.33398 -1 -2.00098 -1h-2c-11.333 -0.666992 -20.666 -2.33398 -27.999 -5.00098
s-14.333 -7.66699 -21 -15c-1.33301 -2 -2.66602 -3.83301 -3.99902 -5.5s-2.66602 -3.5 -3.99902 -5.5c-7.33301 -10.667 -14.333 -22.834 -21 -36.501l-20 -42.5c-5.33301 -11.333 -10.333 -22.666 -15 -33.999l-13 -31l-138 -318c-7.33301 -15.333 -14 -30.5 -20 -45.5
l-18 -45.5v-1v-1l-10.5 -26.5l-10.5 -25.5h-11l-133 294l-132 -294h-11l-211 522c-0.666992 0.666992 -1.16699 1.5 -1.5 2.5s-0.5 1.83301 -0.5 2.5l-6 14.5l-6 14.5c-8 21.333 -18.5 40.833 -31.5 58.5s-32.167 26.5 -57.5 26.5z" />
    <glyph glyph-name="X" unicode="X" horiz-adv-x="592" 
d="M6 635l-0.00585938 32.0059c20 -2.66699 40 -4.33398 60 -5.00098s40 -1 60 -1c21.333 0 42.833 0.333008 64.5 1s43.167 2 64.5 4v-31h-14c-2 -0.666992 -4.16699 -1 -6.5 -1s-4.83301 -0.333008 -7.5 -1c-7.33301 0 -14.166 -1.33301 -20.499 -4s-10.5 -7 -12.5 -13
c0 -0.666992 -0.166992 -1.33398 -0.5 -2.00098l-0.5 -1v-2v-2c0 -2 0.166992 -3.83301 0.5 -5.5s0.5 -3.5 0.5 -5.5c2 -6 4.5 -12 7.5 -18s6.5 -11.667 10.5 -17c2 -2.66699 4 -5.5 6 -8.5s3.66699 -5.83301 5 -8.5l87 -142l81 122c2.66699 2.66699 5.5 6.16699 8.5 10.5
s5.83301 8.83301 8.5 13.5c2 2.66699 3.83301 5.5 5.5 8.5s3.5 5.83301 5.5 8.5c3.33301 6 6.33301 12 9 18s4.33398 11.333 5.00098 16c0 12.667 -4.5 21.167 -13.5 25.5s-18.833 6.83301 -29.5 7.5h-8h-8v33c17.333 -2.66699 34.833 -4.33398 52.5 -5.00098
s35.167 -1 52.5 -1c19.333 0 38.5 0.5 57.5 1.5s37.833 2.16699 56.5 3.5v-31c-32.667 -0.666992 -59.167 -11 -79.5 -31s-38.833 -42 -55.5 -66l-5.5 -9c-1.66699 -2.66699 -3.5 -5.33398 -5.5 -8.00098c-0.666992 -0.666992 -1.16699 -1.33398 -1.5 -2.00098
s-0.833008 -1.33398 -1.5 -2.00098l-107 -156l104 -170l17.5 -30l19.5 -33c15.333 -24 33 -46 53 -66s42.333 -30.667 67 -32v-30c-20.667 1.33301 -41.5 2.33301 -62.5 3s-42.167 1 -63.5 1c-15.333 0 -30.666 -0.333008 -45.999 -1l-46 -2
c-5.33301 -0.666992 -10.5 -1 -15.5 -1h-15.5v31c1.33301 -0.666992 2.5 -1 3.5 -1h3.5c3.33301 0 6.83301 0.166992 10.5 0.5s7.5 0.5 11.5 0.5c10 1.33301 19.167 4 27.5 8s12.5 11.333 12.5 22c0 5.33301 -2.66699 13.5 -8 24.5s-11.333 22.5 -18 34.5
c-1.33301 2 -2.66602 4.16699 -3.99902 6.5s-2.66602 4.5 -3.99902 6.5c-5.33301 9.33301 -10.666 18.166 -15.999 26.499s-9.66602 14.833 -12.999 19.5l-69 115l-117 -178c-1.33301 -2.66699 -2.83301 -5.16699 -4.5 -7.5s-3.5 -4.5 -5.5 -6.5
c-4 -6 -7.66699 -12.167 -11 -18.5s-5.33301 -13.166 -6 -20.499v0c0 -10.667 4.16699 -18.334 12.5 -23.001s17.166 -7.66699 26.499 -9c5.33301 -0.666992 10.333 -1 15 -1h13v-30c-18 0.666992 -36 1.5 -54 2.5s-36 1.5 -54 1.5s-36 -0.5 -54 -1.5
s-35.667 -1.83301 -53 -2.5l-1 31c32.667 2.66699 60 15.5 82 38.5s41.667 47.833 59 74.5l15 23.5l14 22.5l96 147l-110 176l-8.5 13c-3 4.66699 -6.16699 9.33398 -9.5 14.001c-14.667 24 -31.667 45.667 -51 65s-44 29 -74 29v1z" />
    <glyph glyph-name="Y" unicode="Y" horiz-adv-x="537" 
d="M-30 635l0.000976562 32c10 -1.33301 19.333 -2.33301 28 -3l27 -2c9.33301 -0.666992 18.5 -1 27.5 -1h27.5h30.5c10.333 0 20.5 0.333008 30.5 1l30.5 2l30.5 2v-31c-2.66699 -0.666992 -5.66699 -1.16699 -9 -1.5s-6.66602 -0.833008 -9.99902 -1.5
c-8.66699 -1.33301 -16.5 -3.83301 -23.5 -7.5s-10.5 -10.5 -10.5 -20.5v0c0.666992 -10 2.83398 -19.333 6.50098 -28s7.83398 -17 12.501 -25c2 -2.66699 3.83301 -5.5 5.5 -8.5s3.16699 -6.16699 4.5 -9.5l110 -201l96 180l7.5 12.5c3 5 5.83301 10.5 8.5 16.5
c1.33301 2.66699 2.83301 5.5 4.5 8.5s3.16699 6.16699 4.5 9.5c3.33301 8 6.33301 15.833 9 23.5s4 14.5 4 20.5v2c-0.666992 10 -4.83398 17 -12.501 21s-15.834 6.33301 -24.501 7c-2.66699 0.666992 -5.16699 1 -7.5 1h-7.5v33c9.33301 -1.33301 18.5 -2.33301 27.5 -3
l27.5 -2c8.66699 -0.666992 17.667 -1 27 -1h27c15.333 0 30.666 0.5 45.999 1.5s30.333 2.16699 45 3.5v-31c-34 -2 -59.5 -12.5 -76.5 -31.5s-32.167 -41.167 -45.5 -66.5l-8 -16l-8 -16l-121 -232v-109v-11.5v-11.5c-0.666992 -3.33301 -1 -6.83301 -1 -10.5v-11.5
c0 -28.667 4.16699 -50 12.5 -64s27.833 -21 58.5 -21l12 1v-35c-20.667 0.666992 -41.167 1.5 -61.5 2.5s-40.833 1.5 -61.5 1.5h-31.5c-10.333 0 -20.5 -0.333008 -30.5 -1c-10.667 -0.666992 -21.167 -1.16699 -31.5 -1.5s-20.833 -0.833008 -31.5 -1.5v35
c1.33301 -0.666992 2.66602 -1 3.99902 -1h4c18 0.666992 34.5 4 49.5 10s23.167 19.667 24.5 41c0.666992 6.66699 1 13.167 1 19.5v19.5v40v112l-154 275c-12 22.667 -25.5 41.667 -40.5 57s-35.833 24 -62.5 26z" />
    <glyph glyph-name="Z" unicode="Z" horiz-adv-x="594" 
d="M77 681l11.002 -0.00292969c3.33301 -3.33301 6.5 -6.16602 9.5 -8.49902s6.5 -4.16602 10.5 -5.49902c7.33301 -2 16.166 -3.66699 26.499 -5s21.166 -2 32.499 -2c6 -0.666992 12.167 -1 18.5 -1h18.5c30 0 59.833 0.166992 89.5 0.5s59.167 0.833008 88.5 1.5
s58.833 1.16699 88.5 1.5s59.5 0.5 89.5 0.5l6 -10c-12 -14.667 -23.333 -29.667 -34 -45s-21 -31 -31 -47c-2.66699 -3.33301 -5 -6.66602 -7 -9.99902s-4.33301 -7 -7 -11l-12.5 -18.5l-12.5 -18.5l-314 -460h155c4 -0.666992 7.83301 -1 11.5 -1h10.5
c58.667 0.666992 104 6.83398 136 18.501s58 50.167 78 115.5l31 -7c-2 -10 -4.16699 -19.667 -6.5 -29s-4.5 -18.666 -6.5 -27.999c-4.66699 -18.667 -9 -37.334 -13 -56.001s-7.33301 -37.334 -10 -56.001h-6h-7h-6.5h-6.5l-105 2l-97 1c-10 -0.666992 -20 -1 -30 -1h-30
c-10.667 0 -21 -0.166992 -31 -0.5s-20 -0.5 -30 -0.5h-120c-2.66699 -0.666992 -5.5 -1 -8.5 -1h-8.5h-8.5h-8.5l-8 13l22.5 32l23.5 32c8 10 15.833 20.5 23.5 31.5l22.5 32.5l326 480h-132h-49c-46.667 -0.666992 -85.5 -6.5 -116.5 -17.5s-53.167 -43.167 -66.5 -96.5
l-31 6l31 168v0z" />
    <glyph glyph-name="bracketleft" unicode="[" horiz-adv-x="286" 
d="M77 700h176v-33h-105v-845h105v-33h-176v911v0z" />
    <glyph glyph-name="backslash" unicode="\" horiz-adv-x="416" 
d="M61 713l411 -919l-42 -19l-410 919l41 19v0z" />
    <glyph glyph-name="bracketright" unicode="]" horiz-adv-x="286" 
d="M209 -211h-176v33h105v845h-105v33h176v-911v0z" />
    <glyph glyph-name="asciicircum" unicode="^" horiz-adv-x="500" 
d="M524 286h-38l-202 312l-209 -312h-100l277 414h6l266 -414v0z" />
    <glyph glyph-name="underscore" unicode="_" horiz-adv-x="500" 
d="M22 -88h455v-43h-455v43v0z" />
    <glyph glyph-name="grave" unicode="`" horiz-adv-x="500" 
d="M263 661l70 -170.999l-21 -10l-124 161l-0.5 0.5l-1.5 1.5c-1.33301 2 -2.5 4 -3.5 6s-1.5 3.66699 -1.5 5s0.833008 2.66602 2.5 3.99902s4.5 2 8.5 2l71 1v0z" />
    <glyph glyph-name="a" unicode="a" horiz-adv-x="415" 
d="M389 52l12.002 -19c-12.667 -10.667 -26.667 -19.834 -42 -27.501s-31.333 -11.5 -48 -11.5c-19.333 0 -32.5 6 -39.5 18s-11.167 26.333 -12.5 43c-16.667 -18 -35.334 -33.5 -56.001 -46.5s-43.667 -19.5 -69 -19.5c-27.333 0 -49.833 9.16699 -67.5 27.5
s-26.5 40.833 -26.5 67.5c0 28 9.5 48.667 28.5 62s39.833 24 62.5 32l10 4l10 4l107 40v33c0 6 -0.166992 12.833 -0.5 20.5s-1.16602 15.834 -2.49902 24.501c-2 17.333 -7.16699 33.5 -15.5 48.5s-22.5 22.5 -42.5 22.5c-4.66699 0 -10 -0.666992 -16 -2
s-12.333 -3.33301 -19 -6c-11.333 -4.66699 -22.166 -11 -32.499 -19s-15.833 -17 -16.5 -27c-2 -15.333 -7 -25.666 -15 -30.999s-20 -8.66602 -36 -9.99902c-2.66699 0 -4.83398 0.833008 -6.50098 2.5s-2.5 3.83398 -2.5 6.50098c0 14.667 3.5 27 10.5 37
s16.167 19 27.5 27l19.5 13.5l21.5 15.5l18.5 12.5c6.33301 4.33301 12.833 8.16602 19.5 11.499c8.66699 4.66699 17.5 8.66699 26.5 12s17.5 5 25.5 5c43.333 0 71.666 -14.667 84.999 -44s20.333 -61.666 21 -96.999v-4v-4c0 -14.667 -0.166992 -29.334 -0.5 -44.001
s-0.5 -29.334 -0.5 -44.001c0 -15.333 -0.166992 -30.333 -0.5 -45s-0.5 -29.334 -0.5 -44.001v-8v-8c1.33301 -11.333 4 -21.833 8 -31.5s11.333 -14.5 22 -14.5c4 0 8.16699 1 12.5 3s8.16602 4.33301 11.499 7c1.33301 1.33301 2.83301 2.5 4.5 3.5
s3.16699 1.83301 4.5 2.5v1zM258.002 198c-8 -3.33301 -16.999 -6.66797 -26.999 -10.001s-20 -7 -30 -11c-21.333 -8 -40.833 -18.333 -58.5 -31s-26.5 -30 -26.5 -52c0 -15.333 5.33301 -28.666 16 -39.999s24 -17 40 -17s30.667 4.5 44 13.5s25.666 18.833 36.999 29.5
l2.5 2.5l2.5 2.5v113v0z" />
    <glyph glyph-name="b" unicode="b" horiz-adv-x="501" 
d="M146 366c5.33301 2.66699 10.6631 5.83594 15.9961 9.50293l16 10.5c18 10.667 36.5 19.667 55.5 27s40.167 11 63.5 11c47.333 0 84.833 -17.5 112.5 -52.5s44.834 -73.5 51.501 -115.5l2 -20c0.666992 -6.66699 1 -13.334 1 -20.001
c0 -63.333 -20.833 -116.333 -62.5 -159s-94.5 -64 -158.5 -64c-8.66699 0 -17.167 0.333008 -25.5 1l-25.5 2c-8.66699 1.33301 -17.167 2.33301 -25.5 3s-16.833 1 -25.5 1c-5.33301 0 -10.666 -0.166992 -15.999 -0.5s-10.666 -0.833008 -15.999 -1.5
c-6 -0.666992 -11.667 -1.5 -17 -2.5s-10.666 -2.16699 -15.999 -3.5v123v385l-1 67c0 21.333 -3.33301 37.666 -10 48.999s-21.667 17 -45 17v27c21.333 4.66699 41.5 11.667 60.5 21s37.833 19.666 56.5 30.999l19 -8c-4 -34.667 -6.66699 -69 -8 -103s-2 -68 -2 -102
v-133v0zM145.997 337.002v-144.999v-2.5v-0.5c0 -6 0.166992 -11.833 0.5 -17.5s0.5 -11.5 0.5 -17.5c2 -31.333 8.83301 -60 20.5 -86s37.5 -39 77.5 -39c48 0 84.333 17.167 109 51.5s37 73.5 37 117.5v6.5v6.5c-2.66699 39.333 -16 75.166 -40 107.499
s-57.667 48.5 -101 48.5c-18.667 0 -36.5 -2.83301 -53.5 -8.5s-33.833 -13.167 -50.5 -22.5v1z" />
    <glyph glyph-name="c" unicode="c" horiz-adv-x="398" 
d="M368 89l17.001 -17.999c-18.667 -24 -42 -43 -70 -57s-57 -21 -87 -21c-62 0 -109.333 21.167 -142 63.5s-49 92.5 -49 150.5c0 60.667 20.167 112 60.5 154s90.833 63 151.5 63c6.66699 0 15.334 -0.833008 26.001 -2.5s21.334 -4.16699 32.001 -7.5
c18 -5.33301 34.667 -12.666 50 -21.999s23 -20 23 -32c-0.666992 -6 -3.83398 -11.833 -9.50098 -17.5s-11.834 -9.83398 -18.501 -12.501c-2 -0.666992 -3.83301 -1.16699 -5.5 -1.5s-3.5 -0.5 -5.5 -0.5l-1 1c-5.33301 -0.666992 -10.833 2.33301 -16.5 9l-19.5 22
c-8 8 -17.167 15.333 -27.5 22s-22.5 10 -36.5 10c-37.333 0 -67.333 -14.5 -90 -43.5s-35.334 -61.167 -38.001 -96.5c-0.666992 -2 -1 -4.16699 -1 -6.5v-6.5c0 -6.66699 0.333008 -13.334 1 -20.001l2 -21c6 -38.667 20.833 -74 44.5 -106s57.167 -48 100.5 -48
c21.333 0 40.833 4.16699 58.5 12.5s34.5 18.833 50.5 31.5v1z" />
    <glyph glyph-name="d" unicode="d" horiz-adv-x="514" 
d="M472 41l-0.00195312 -29.002c-20 -1.33301 -40 -3.66602 -60 -6.99902s-39.667 -8.33301 -59 -15l-14 17c0 2.66699 0.166992 5.83398 0.5 9.50098s0.833008 7.16699 1.5 10.5v2.5v2.5c0.666992 4.66699 1.16699 9.16699 1.5 13.5s0.5 8.5 0.5 12.5
c-20.667 -16.667 -42.667 -31.5 -66 -44.5s-48.666 -19.5 -75.999 -19.5c-47.333 0 -84.166 17.333 -110.499 52s-42.833 73 -49.5 115c-1.33301 8 -2.33301 15.667 -3 23s-1 14.666 -1 21.999c0 59.333 19.667 110.5 59 153.5s89 64.5 149 64.5c18 0 35.833 -2.5 53.5 -7.5
s34.167 -12.167 49.5 -21.5v112l-1 61c0 22 -3.16699 38.333 -9.5 49s-21.5 16 -45.5 16v27c21.333 4.66699 41.5 11.834 60.5 21.501s37.5 20.167 55.5 31.5l19 -9c-3.33301 -33.333 -5.66602 -66.333 -6.99902 -99s-2 -65.667 -2 -99v-302v-58
c0 -14 0.166992 -27.333 0.5 -40s1.16602 -23.667 2.49902 -33c2.66699 -15.333 8.66699 -24.5 18 -27.5s20.333 -4.83301 33 -5.5v1zM346.998 99.998l-0.00195312 9.50195c0 3.66699 0.333008 7.16699 1 10.5v10.5v10.5v26.5v26.5c0 18 -0.166992 35.833 -0.5 53.5
s-1.16602 35.167 -2.49902 52.5c-2 28.667 -13 50.667 -33 66s-43.667 23 -71 23c-44.667 0 -78.167 -17 -100.5 -51s-33.5 -71.667 -33.5 -113c0 -6.66699 0.333008 -13.167 1 -19.5l2 -19.5c6 -34.667 19.833 -66.334 41.5 -95.001s51.834 -43 90.501 -43
c21.333 0 40.833 4.66699 58.5 14s33.167 21.666 46.5 36.999v1z" />
    <glyph glyph-name="e" unicode="e" horiz-adv-x="386" 
d="M352 84l14.001 -20c-20 -22.667 -43.333 -40.167 -70 -52.5s-54.667 -18.5 -84 -18.5c-50 0 -90.333 19 -121 57s-48.334 80 -53.001 126c0 4 -0.166992 7.83301 -0.5 11.5s-0.5 7.5 -0.5 11.5c0 58.667 17.5 110.834 52.5 156.501s83.5 68.5 145.5 68.5
c34.667 0 64.667 -11.833 90 -35.5s38 -52.834 38 -87.501c0 -18 -3 -29.667 -9 -35s-17 -8 -33 -8l-216 1c-0.666992 -6 -1.33398 -11.5 -2.00098 -16.5s-1 -10.167 -1 -15.5c0 -44.667 13.667 -85 41 -121s65 -54 113 -54c18 0 34.833 2.83301 50.5 8.5
s30.834 13.167 45.501 22.5v1zM112.001 293l144 -0.000976562c1.33301 -0.666992 2.5 -1 3.5 -1h3.5c8 0 15.333 1.33301 22 4s10 9.33398 10 20.001c0 20.667 -7.16699 37.667 -21.5 51s-31.5 20 -51.5 20c-30 0 -53.5 -9.5 -70.5 -28.5s-30.167 -41.167 -39.5 -66.5v1z
" />
    <glyph glyph-name="f" unicode="f" horiz-adv-x="316" 
d="M178 401l138.003 -0.00195312l-15 -41h-123v-196v-17v-16c-0.666992 -5.33301 -1 -10.666 -1 -15.999v-16c0 -23.333 3 -40.333 9 -51s22 -16 48 -16l23 1v-33c-8.66699 0 -17.5 0.333008 -26.5 1l-26.5 2c-9.33301 0 -18.333 0.166992 -27 0.5s-17.667 0.5 -27 0.5
c-13.333 0 -26.666 -0.333008 -39.999 -1l-40 -2c-4 -0.666992 -8.16699 -1 -12.5 -1h-13.5v33c27.333 -0.666992 44.833 3.83301 52.5 13.5s11.5 27.167 11.5 52.5v16v16c-0.666992 5.33301 -1 10.666 -1 15.999v16v197h-63l9 34
c20.667 2.66699 35.167 7.33398 43.5 14.001s13.166 20.334 14.499 41.001c6.66699 69.333 28 128.833 64 178.5s92.333 74.5 169 74.5c4 0 9.5 -0.333008 16.5 -1s13.833 -2 20.5 -4c11.333 -2.66699 21.666 -6.83398 30.999 -12.501s14 -13.167 14 -22.5v-3.5
c0 -1 -0.333008 -2.16699 -1 -3.5c-2 -7.33301 -6.33301 -14.5 -13 -21.5s-14 -11.833 -22 -14.5c-2 -0.666992 -4 -1.16699 -6 -1.5s-4 -0.5 -6 -0.5c-5.33301 0 -10.833 2.66699 -16.5 8l-18.5 17c-7.33301 6 -15 11.667 -23 17s-17.333 8 -28 8
c-36 0 -61.833 -14.667 -77.5 -44s-25.834 -61.666 -30.501 -96.999c-2.66699 -18.667 -4.33398 -37 -5.00098 -55s-1 -33.667 -1 -47v-23v0z" />
    <glyph glyph-name="g" unicode="g" horiz-adv-x="437" 
d="M427 390l0.00195312 -34.999l-95 1c5.33301 -11.333 9.5 -22.5 12.5 -33.5s4.5 -22.167 4.5 -33.5c0 -44.667 -16.5 -77.834 -49.5 -99.501s-69.167 -32.834 -108.5 -33.501h-1.5h-1.5c-2.66699 -2 -5.33398 -4.16699 -8.00098 -6.5s-5.33398 -4.5 -8.00098 -6.5
c-7.33301 -6 -14 -12.667 -20 -20s-9 -15.333 -9 -24c0 -10.667 4 -18 12 -22s16.667 -6.66699 26 -8c4 -0.666992 8 -1 12 -1h11l49 1c1.33301 -0.666992 3 -1 5 -1h5c6.66699 0 13.667 -0.166992 21 -0.5s14.666 -0.5 21.999 -0.5c28 -2 53.833 -8.5 77.5 -19.5
s35.5 -33.833 35.5 -68.5c0 -48.667 -19.333 -89.167 -58 -121.5s-81 -54.166 -127 -65.499c-10.667 -2.66699 -21.5 -4.66699 -32.5 -6s-21.5 -2 -31.5 -2c-38.667 0 -72.167 11 -100.5 33s-42.5 53.667 -42.5 95c0 16 4.83301 30.667 14.5 44s20.167 26 31.5 38l13.5 13.5
c4.33301 4.33301 8.5 8.83301 12.5 13.5c-8.66699 6.66699 -16.167 14.667 -22.5 24s-9.5 19.333 -9.5 30c0 2.66699 0.166992 5 0.5 7s0.833008 4 1.5 6l77 74c-28 10.667 -50.833 26.167 -68.5 46.5s-26.5 46.5 -26.5 78.5c0 42.667 16.333 76 49 100
s68.334 36.333 107.001 37h1.5h1.5c4 0 8 -0.166992 12 -0.5s8 -0.833008 12 -1.5c14 -2 27.5 -5.66699 40.5 -11s24.5 -13 34.5 -23l118 2v0zM123.002 9.00098c-7.33301 -10.667 -13.6699 -21.502 -19.0029 -32.502s-8.66602 -22.833 -9.99902 -35.5
c0 -36 13.833 -63.167 41.5 -81.5s57.834 -27.5 90.501 -27.5c6 0 12.333 0.333008 19 1s13 1.66699 19 3c22.667 5.33301 43.334 15 62.001 29s28.667 33 30 57c0 32.667 -13.5 53.667 -40.5 63s-56.5 14.333 -88.5 15c-5.33301 0 -10.5 0.166992 -15.5 0.5
s-10.167 0.5 -15.5 0.5c-14 0.666992 -27.333 1.33398 -40 2.00098s-23.667 2.33398 -33 5.00098v1zM275.998 279.999c0 5.33301 -0.333008 11.166 -1 17.499l-2 18.5c-4 20 -11.5 38.333 -22.5 55s-27.5 25.667 -49.5 27c-24.667 0 -43.5 -9.33301 -56.5 -28
s-20.167 -39 -21.5 -61v-4v-4c0 -4.66699 0.166992 -9.66699 0.5 -15s1.16602 -10.666 2.49902 -15.999c3.33301 -20 10.833 -38.667 22.5 -56s28.834 -26.333 51.501 -27c25.333 0 44.333 9.5 57 28.5s19 40.167 19 63.5v1z" />
    <glyph glyph-name="h" unicode="h" horiz-adv-x="534" 
d="M170 354c4.66699 2.66699 9.66797 5.83398 15.001 9.50098l16 11.5c17.333 12 35.833 23.167 55.5 33.5s39.5 15.5 59.5 15.5c54 0 88.833 -16.167 104.5 -48.5s23.5 -71.166 23.5 -116.499c0 -13.333 -0.166992 -26.5 -0.5 -39.5s-0.5 -26.167 -0.5 -39.5v-39.5v-39.5
v-7.5v-7.5c0.666992 -8.66699 1.66699 -17.167 3 -25.5s4 -14.166 8 -17.499c3.33301 -3.33301 7.33301 -5.83301 12 -7.5s9.33398 -2.5 14.001 -2.5c3.33301 -0.666992 6.66602 -1 9.99902 -1h9l2 1v-33c-16 0.666992 -32.167 1.5 -48.5 2.5s-32.833 1.5 -49.5 1.5
s-33.167 -0.5 -49.5 -1.5s-32.833 -1.83301 -49.5 -2.5v33c27.333 -0.666992 45.5 3 54.5 11s13.5 25.333 13.5 52v10v10c-0.666992 2.66699 -1 5.16699 -1 7.5v6.5v28.5c0 9.66699 0.333008 19.167 1 28.5v28.5v28.5c0 5.33301 -0.166992 10.833 -0.5 16.5
s-0.833008 11.5 -1.5 17.5c-2 23.333 -8.66699 44.833 -20 64.5s-31.333 29.5 -60 29.5c-22.667 0 -44.167 -5 -64.5 -15s-38.833 -22.667 -55.5 -38v-155v-17v-16c-0.666992 -5.33301 -1 -10.666 -1 -15.999v-16c0 -23.333 3 -40.333 9 -51s22 -16 48 -16l6 1v-33
c-8 0 -16 0.333008 -24 1l-24 2c-8.66699 0 -17 0.166992 -25 0.5s-16 0.5 -24 0.5c-12.667 0 -25.334 -0.333008 -38.001 -1l-38 -2c-4.66699 -0.666992 -9.16699 -1 -13.5 -1h-12.5v33c28.667 -0.666992 47 3.66602 55 12.999s12 27.666 12 54.999v63v341l-1 62
c0 22.667 -3.5 39.334 -10.5 50.001s-22.5 16 -46.5 16v27c21.333 4.66699 42 11.667 62 21s39.333 19.666 58 30.999l17 -8c-2 -17.333 -3.5 -34.333 -4.5 -51s-1.83301 -33 -2.5 -49c-0.666992 -16.667 -1.16699 -33.334 -1.5 -50.001s-0.5 -33.334 -0.5 -50.001v-150v0z
" />
    <glyph glyph-name="i" unicode="i" horiz-adv-x="276" 
d="M48 354l1.00195 26.002c21.333 5.33301 42 12.5 62 21.5s39.333 19.167 58 30.5l18 -7l-4 -29c-1.33301 -9.33301 -2.33301 -18.666 -3 -27.999c-0.666992 -10 -1.16699 -19.667 -1.5 -29s-0.5 -18.666 -0.5 -27.999l1 -86v-32.5v-30.5
c-0.666992 -10.667 -1 -21.167 -1 -31.5v-31.5c0 -23.333 3 -40.333 9 -51s22 -16 48 -16l5 1v-33c-16.667 0.666992 -33 1.5 -49 2.5s-32 1.5 -48 1.5c-8.66699 0 -17.334 -0.166992 -26.001 -0.5s-17 -0.5 -25 -0.5l-26 -2c-8.66699 -0.666992 -17.334 -1 -26.001 -1v33
c28.667 -0.666992 47 3.66602 55 12.999s12 27.666 12 54.999v46v47c0 15.333 -0.166992 30.666 -0.5 45.999s-0.5 30.666 -0.5 45.999c0 23.333 -3.5 40.333 -10.5 51s-22.833 16 -47.5 16v1zM182.002 647.002c0 -13.333 -4.83301 -24.332 -14.5 -32.999
s-20.834 -13 -33.501 -13c-12 0 -22.667 4.33301 -32 13s-14 19 -14 31c0 13.333 4.83301 24.833 14.5 34.5s20.834 14.5 33.501 14.5c13.333 0 24.333 -4.83301 33 -14.5s13 -20.834 13 -33.501v1z" />
    <glyph glyph-name="j" unicode="j" horiz-adv-x="240" 
d="M21 -184l-14 23.999c13.333 8.66699 24.666 17 33.999 25s17.333 16 24 24c15.333 18 24.5 37 27.5 57s4.83301 45.667 5.5 77c0.666992 2.66699 1 5.83398 1 9.50098v10.5c0 6 0.166992 12.167 0.5 18.5s0.5 12.833 0.5 19.5v19.5v18.5v113l-1 56
c0 21.333 -3.33301 37.5 -10 48.5s-22 16.5 -46 16.5l1 27c21.333 6 41.5 13.333 60.5 22s37.833 19 56.5 31l17 -8c-2.66699 -19.333 -4.66699 -38.333 -6 -57s-2 -37.667 -2 -57l1 -79v-148c0 -56.667 -3.16699 -99.834 -9.5 -129.501s-23.833 -56.5 -52.5 -80.5
c-10.667 -9.33301 -23.167 -18.666 -37.5 -27.999s-31.166 -19.333 -50.499 -30v0zM177 647.999c0 -13.333 -4.66797 -24.5 -14.001 -33.5s-20.666 -13.5 -33.999 -13.5c-12 0 -22.5 4.33301 -31.5 13s-13.5 19.334 -13.5 32.001c0 13.333 4.66699 24.666 14 33.999
s20.333 14 33 14c13.333 0 24.333 -4.83301 33 -14.5s13 -20.5 13 -32.5v1z" />
    <glyph glyph-name="k" unicode="k" horiz-adv-x="484" 
d="M233 33l0.000976562 -32.9961c-8 0 -16.167 0.333008 -24.5 1l-25.5 2c-8.66699 0 -17.167 0.166992 -25.5 0.5s-16.5 0.5 -24.5 0.5s-16.167 -0.166992 -24.5 -0.5s-16.5 -0.5 -24.5 -0.5l-24.5 -2c-8.33301 -0.666992 -16.5 -1 -24.5 -1v33
c27.333 -0.666992 45.166 3.5 53.499 12.5s12.5 26.833 12.5 53.5v16v16c-0.666992 5.33301 -1 10.666 -1 15.999v16v342l-1 62c0 22 -3.33301 38.5 -10 49.5s-21.667 16.5 -45 16.5v27c21.333 4.66699 41.5 11.667 60.5 21s37.833 19.666 56.5 30.999l19 -8
c-2 -17.333 -3.66699 -34.333 -5 -51s-2.33301 -33 -3 -49c-0.666992 -16.667 -1.16699 -33.334 -1.5 -50.001s-0.5 -33.334 -0.5 -50.001v-340v-62c0 -24 2.66699 -41.667 8 -53s21.333 -17 48 -17l7 1v0zM271.001 385.004l-0.00195312 32.998
c7.33301 -1.33301 14.833 -2.16602 22.5 -2.49902s15.5 -0.5 23.5 -0.5c7.33301 -0.666992 14.833 -1 22.5 -1h22.5c15.333 0 30.5 0.333008 45.5 1l44.5 2v-32c-36.667 -0.666992 -68.334 -11.167 -95.001 -31.5s-52.334 -42.5 -77.001 -66.5
c-0.666992 -1.33301 -1.66699 -2.5 -3 -3.5s-2.33301 -2.16699 -3 -3.5l-11.5 -11.5c-3.66699 -3.66699 -7.5 -7.16699 -11.5 -10.5l100 -132l13.5 -19.5c4.33301 -6.33301 8.83301 -12.166 13.5 -17.499c11.333 -15.333 23.833 -28.5 37.5 -39.5s32.167 -17.5 55.5 -19.5
v-30c-5.33301 0 -10.5 0.166992 -15.5 0.5s-10.167 0.5 -15.5 0.5c-5.33301 0.666992 -10.5 1 -15.5 1h-15.5h-16c-5.33301 0 -10.666 -0.333008 -15.999 -1c-5.33301 0 -10.666 -0.166992 -15.999 -0.5s-10.666 -0.5 -15.999 -0.5c-24.667 40 -51 79 -79 117l-86 112l85 86
c2 2 4.5 4.16699 7.5 6.5s5.83301 4.83301 8.5 7.5l11.5 12c3.66699 4 6.83398 8 9.50098 12c1.33301 2.66699 2.5 5.16699 3.5 7.5s1.5 4.5 1.5 6.5v2c0 4.66699 -2 8.16699 -6 10.5s-8.33301 3.83301 -13 4.5h-6h-5l-6 1v0z" />
    <glyph glyph-name="l" unicode="l" horiz-adv-x="267" 
d="M234 33v-32.999c-16 0.666992 -32 1.5 -48 2.5s-32 1.5 -48 1.5c-16.667 0 -33.5 -0.5 -50.5 -1.5s-34.167 -1.83301 -51.5 -2.5v33c28 -0.666992 45.667 4 53 14s11 28 11 54v63v342l-2 61c0 20.667 -3.16699 36.834 -9.5 48.501s-21.166 17.5 -44.499 17.5l-1 27
c21.333 4.66699 41.666 11.667 60.999 21s38 19.666 56 30.999l19 -8c-4 -33.333 -6.5 -66.5 -7.5 -99.5s-1.5 -66.167 -1.5 -99.5v-341v-18.5v-16.5c-0.666992 -5.33301 -1 -10.833 -1 -16.5v-17.5c0 -22.667 3.16699 -38.834 9.5 -48.501s21.833 -14.5 46.5 -14.5l9 1v0z
" />
    <glyph glyph-name="m" unicode="m" horiz-adv-x="796" 
d="M432 354l13.002 8.99609l14 10c15.333 10.667 31.333 20.667 48 30s33.667 15.666 51 18.999c3.33301 0.666992 6.66602 1.16699 9.99902 1.5s6.66602 0.5 9.99902 0.5c51.333 0 85.5 -15.833 102.5 -47.5s25.5 -69.5 25.5 -113.5v-41.5v-40.5
c-0.666992 -13.333 -1 -26.833 -1 -40.5v-41.5v-5.5v-5.5c0.666992 -9.33301 1.66699 -18.166 3 -26.499s4 -14.5 8 -18.5c3.33301 -3.33301 7.33301 -5.66602 12 -6.99902s9.33398 -2.33301 14.001 -3c4 -0.666992 7.66699 -1 11 -1h9l4 1v-33h-12
c-4 0 -7.66699 0.333008 -11 1l-36 2c-12 0.666992 -24 1 -36 1c-8 0 -16.167 -0.166992 -24.5 -0.5s-16.833 -0.833008 -25.5 -1.5c-4 0 -8.16699 -0.166992 -12.5 -0.5s-8.5 -0.5 -12.5 -0.5c-4 -0.666992 -8.16699 -1 -12.5 -1h-12.5v33
c32 -0.666992 50.667 4.16602 56 14.499s8 27.5 8 51.5v33.5v33.5c-0.666992 10.667 -1 21.667 -1 33v33v13.5v13.5c-1.33301 28 -7 53.833 -17 77.5s-33 35.5 -69 35.5c-20.667 0 -40 -4.83301 -58 -14.5s-35 -20.5 -51 -32.5c0 -2.66699 0.166992 -5.5 0.5 -8.5
s0.5 -5.83301 0.5 -8.5v-8.5v-8.5v-189v-8.5v-7.5c0.666992 -8.66699 1.66699 -17.167 3 -25.5s4 -14.166 8 -17.499c3.33301 -3.33301 7.33301 -5.83301 12 -7.5s9.33398 -2.5 14.001 -2.5c3.33301 -0.666992 6.66602 -1 9.99902 -1h9l6 1v-33h-12c-4 0 -8 0.333008 -12 1
l-36 2c-12 0.666992 -24.333 1 -37 1c-8 0 -16 -0.166992 -24 -0.5s-15.667 -0.5 -23 -0.5l-24 -2c-8 -0.666992 -16 -1 -24 -1v33c25.333 -0.666992 41.666 3.83301 48.999 13.5s11 25.834 11 48.501v38.5v38.5c-0.666992 12.667 -1 25.5 -1 38.5v38.5
c0 32 -4.5 60.5 -13.5 85.5s-33.167 37.5 -72.5 37.5c-19.333 0 -37.666 -4.33301 -54.999 -13s-33.666 -18.667 -48.999 -30v-165v-17v-16c-0.666992 -5.33301 -1 -10.666 -1 -15.999v-16c0 -23.333 3 -40.333 9 -51s22 -16 48 -16l4 1v-33
c-16.667 0.666992 -33.167 1.5 -49.5 2.5s-32.833 1.5 -49.5 1.5c-8 0 -16.167 -0.166992 -24.5 -0.5s-16.833 -0.833008 -25.5 -1.5c-4 0 -8.16699 -0.166992 -12.5 -0.5s-8.5 -0.5 -12.5 -0.5c-4 -0.666992 -8.16699 -1 -12.5 -1h-12.5v33
c29.333 -0.666992 48 3.5 56 12.5s12 27.5 12 55.5c0 31.333 -0.166992 62.5 -0.5 93.5s-0.833008 61.833 -1.5 92.5c0 22 -3 38.5 -9 49.5s-21 16.5 -45 16.5v28c20 4.66699 39.5 11.667 58.5 21s37.167 19.333 54.5 30l20 -8l-2 -16
c-0.666992 -5.33301 -1.33398 -10.333 -2.00098 -15c0 -5.33301 -0.333008 -10.5 -1 -15.5s-1 -10.167 -1 -15.5l14.5 10l15.5 10l31 18c10.667 6 21.667 11 33 15c6.66699 2.66699 13.667 4.83398 21 6.50098s14.333 2.5 21 2.5c25.333 0 48.666 -5.83301 69.999 -17.5
s37 -29.5 47 -53.5v1z" />
    <glyph glyph-name="n" unicode="n" horiz-adv-x="542" 
d="M179 319l0.00292969 -155.004c0 -6 -0.166992 -11.5 -0.5 -16.5s-0.5 -10.167 -0.5 -15.5v-15.5v-15.5c0 -23.333 2.66699 -40.666 8 -51.999s21.333 -17 48 -17l8 1v-33h-12.5c-4.33301 0 -8.5 0.333008 -12.5 1l-39 2c-12.667 0.666992 -25.334 1 -38.001 1
c-8 0 -16.167 -0.166992 -24.5 -0.5s-16.833 -0.5 -25.5 -0.5l-25.5 -2c-8.33301 -0.666992 -16.5 -1 -24.5 -1v33c27.333 -0.666992 45.5 3.33301 54.5 12s13.5 26.667 13.5 54v46.5c0 15.667 -0.333008 31.5 -1 47.5c0 15.333 -0.166992 30.833 -0.5 46.5
s-0.5 31.167 -0.5 46.5c0 24.667 -3 42 -9 52s-21.333 15 -46 15v27c20 6.66699 39.5 14.334 58.5 23.001s37.833 18.334 56.5 29.001l19 -8c-1.33301 -12 -2.5 -23.833 -3.5 -35.5s-1.83301 -23.167 -2.5 -34.5c3.33301 2.66699 7 5.33398 11 8.00098l12 8
c18.667 13.333 38.834 25.666 60.501 36.999s44.167 17 67.5 17c46 0 77.833 -15.167 95.5 -45.5s26.5 -65.5 26.5 -105.5v-44.5v-44.5c-0.666992 -14.667 -1 -29.5 -1 -44.5v-44.5v-4v-3c0 -10 0.833008 -19.167 2.5 -27.5s4.5 -14.166 8.5 -17.499
c3.33301 -3.33301 7.66602 -5.83301 12.999 -7.5s10.666 -2.5 15.999 -2.5c2.66699 -0.666992 5.5 -1 8.5 -1h8.5l2 1v-33h-12.5c-4.33301 -0 -8.5 0.333008 -12.5 1l-37 2c-12.667 0.666992 -25.334 1 -38.001 1c-8 0 -16 -0.166992 -24 -0.5s-16 -0.833008 -24 -1.5
c-4.66699 0 -9 -0.166992 -13 -0.5s-8 -0.5 -12 -0.5c-4 -0.666992 -8 -1 -12 -1h-12v33c29.333 -0.666992 47.833 3.83301 55.5 13.5s11.5 27.834 11.5 54.501v34.5v34.5c-0.666992 11.333 -1 22.833 -1 34.5v34.5c0 5.33301 -0.166992 10.833 -0.5 16.5
s-0.5 11.167 -0.5 16.5c-2.66699 25.333 -9.66699 48.333 -21 69s-32 31 -62 31c-22.667 0 -43.5 -5.33301 -62.5 -16s-36.833 -23.334 -53.5 -38.001v1z" />
    <glyph glyph-name="o" unicode="o" horiz-adv-x="508" 
d="M472 207c0 -61.333 -21.833 -112.334 -65.5 -153.001s-95.167 -61 -154.5 -61c-63.333 0 -115 20.667 -155 62s-60 93.333 -60 156c0 62 22 113.667 66 155s96.333 62 157 62c63.333 0 114.5 -21.667 153.5 -65s58.5 -95.666 58.5 -156.999v1zM394 197.999
c0 6.66699 -0.330078 13.833 -0.99707 21.5s-1.66699 15.167 -3 22.5c-6.66699 37.333 -21.5 71.5 -44.5 102.5s-54.833 46.5 -95.5 46.5c-42.667 0 -75.334 -16.333 -98.001 -49s-34.334 -68.334 -35.001 -107.001v-1.5v-1.5c0 -9.33301 0.5 -19.166 1.5 -29.499
s2.5 -20.5 4.5 -30.5c7.33301 -36 21.666 -69 42.999 -99s52.333 -45 93 -45c46.667 0 80.667 17.333 102 52s32.333 72.667 33 114v1.5v1.5v1z" />
    <glyph glyph-name="p" unicode="p" horiz-adv-x="520" 
d="M172 17l-0.000976562 -139.999c0 -24 3 -41.5 9 -52.5s21.667 -16.5 47 -16.5h8v-33l-25.5 2l-24.5 2c-8.66699 0 -17.167 0.166992 -25.5 0.5s-16.833 0.5 -25.5 0.5s-17.167 -0.166992 -25.5 -0.5s-16.5 -0.5 -24.5 -0.5l-25.5 -2l-25.5 -2v33
c25.333 0 42.833 3.33301 52.5 10s14.5 24.334 14.5 53.001v17.5v16.5c-0.666992 5.33301 -1 10.833 -1 16.5v17.5v286l-1 63c0 20.667 -2.33301 36.334 -7 47.001s-18.334 16.334 -41.001 17.001c-0.666992 0.666992 -1.5 1 -2.5 1h-3.5v27
c20 5.33301 39.5 12.666 58.5 21.999s37.5 19.333 55.5 30l20 -8c-0.666992 -5.33301 -1.33398 -10.333 -2.00098 -15l-2 -14c-0.666992 -4.66699 -1.16699 -9.33398 -1.5 -14.001s-0.833008 -9.33398 -1.5 -14.001c0.666992 0.666992 1.33398 1.16699 2.00098 1.5
s1.33398 0.833008 2.00098 1.5c20 13.333 40.333 25.666 61 36.999s43.667 17 69 17c56 0 99.5 -21.167 130.5 -63.5s46.5 -89.5 46.5 -141.5v-4v-5c-2 -54 -21.667 -103.667 -59 -149s-85 -68 -143 -68c-18.667 0 -37.167 2 -55.5 6s-36.166 9.66699 -53.499 17v1z
M171.999 75.001c9.33301 -12.667 21.002 -22.502 35.002 -29.502s28.333 -11.833 43 -14.5c4.66699 -0.666992 9 -1.16699 13 -1.5s8 -0.5 12 -0.5c45.333 0 79.166 16.833 101.499 50.5s34.166 70.834 35.499 111.501v3.5v2.5c0 44.667 -12 84.334 -36 119.001
s-60.667 52 -110 52c-4.66699 0 -9.16699 -0.166992 -13.5 -0.5s-8.83301 -1.16602 -13.5 -2.49902c-12 -2 -23.667 -5.33301 -35 -10s-22 -10.334 -32 -17.001v-263v0z" />
    <glyph glyph-name="q" unicode="q" horiz-adv-x="488" 
d="M361 376l49.999 51.001l16 -9c-2 -17.333 -3.66699 -34.333 -5 -51s-2 -33 -2 -49c-0.666992 -16.667 -1.16699 -33.334 -1.5 -50.001s-0.5 -33.334 -0.5 -50.001v-279c0 -5.33301 -0.166992 -10.5 -0.5 -15.5s-0.5 -10.167 -0.5 -15.5v-15.5v-15.5
c0 -26 3.16699 -44 9.5 -54s21.833 -15 46.5 -15h8v-33c-4 0 -8.16699 0.166992 -12.5 0.5s-8.5 0.833008 -12.5 1.5l-36.5 2c-12.333 0.666992 -24.833 1 -37.5 1c-17.333 0 -34.5 -0.5 -51.5 -1.5s-34.167 -2.16699 -51.5 -3.5v33c29.333 0 48 4.33301 56 13
s12 27.334 12 56.001v15.5v15.5c0 5.33301 -0.166992 10.5 -0.5 15.5s-0.5 10.167 -0.5 15.5v129c-18.667 -20.667 -40.167 -38.334 -64.5 -53.001s-51.166 -22 -80.499 -22c-46.667 0 -83.334 17.333 -110.001 52s-43.334 73.334 -50.001 116.001
c-1.33301 7.33301 -2.33301 14.5 -3 21.5s-1 14.167 -1 21.5c0 59.333 19.333 110.833 58 154.5s88.334 65.5 149.001 65.5c22.667 0 43.834 -4.33301 63.501 -13s37.5 -20.667 53.5 -36v1zM345.999 104.001v144.999c0 35.333 -5.83301 67.5 -17.5 96.5
s-39.834 43.5 -84.501 43.5c-45.333 0 -79 -16.667 -101 -50s-33 -70.666 -33 -111.999c0 -7.33301 0.333008 -14.833 1 -22.5s1.66699 -15.167 3 -22.5c6.66699 -33.333 20.334 -64 41.001 -92s49.667 -42 87 -42c3.33301 0 6.83301 0.166992 10.5 0.5
s7.16699 0.833008 10.5 1.5c16.667 2.66699 32.5 8.66699 47.5 18s26.833 21 35.5 35v1z" />
    <glyph glyph-name="r" unicode="r" horiz-adv-x="348" 
d="M52 356l-0.000976562 23.998c20 6.66699 39.333 14.334 58 23.001s37 18.334 55 29.001l13 -3v-90c1.33301 1.33301 2.83301 3.16602 4.5 5.49902l5.5 7.5c12.667 18 27.667 34.5 45 49.5s38 22.5 62 22.5c2 0 4.16699 -0.166992 6.5 -0.5s4.83301 -0.5 7.5 -0.5
c6 -2 11.667 -4.83301 17 -8.5s8 -8.83398 8 -15.501c0 -3.33301 -0.166992 -7.16602 -0.5 -11.499s-1.16602 -8.83301 -2.49902 -13.5c-1.33301 -8 -4 -15.333 -8 -22s-9.33301 -10 -16 -10c-3.33301 0 -6.66602 0.333008 -9.99902 1l-10 2
c-1.33301 0 -2.83301 0.333008 -4.5 1s-3.5 1.33398 -5.5 2.00098c-4.66699 1.33301 -9.5 2.5 -14.5 3.5s-10.167 1.5 -15.5 1.5c-14 0 -26.333 -4.5 -37 -13.5s-18.334 -19.833 -23.001 -32.5c-2.66699 -6.66699 -4.5 -14.667 -5.5 -24s-1.83301 -19 -2.5 -29
c-0.666992 -8.66699 -1 -17.167 -1 -25.5v-22.5v-26v-26c-0.666992 -9.33301 -1 -18.333 -1 -27v-26c0 -23.333 2.66699 -40.666 8 -51.999s21.333 -17 48 -17l10 1v-33c-17.333 0.666992 -34.833 1.5 -52.5 2.5s-35.167 1.5 -52.5 1.5c-16.667 0 -33.167 -0.5 -49.5 -1.5
s-32.833 -1.83301 -49.5 -2.5v33c29.333 -0.666992 48 3.5 56 12.5s12 27.5 12 55.5v15.5v15.5c0 5.33301 -0.166992 10.5 -0.5 15.5s-0.5 10.167 -0.5 15.5v28c0 9.33301 0.333008 18.666 1 27.999v28v28c0 26 -2.33301 45.333 -7 58s-20.667 20 -48 22v1z" />
    <glyph glyph-name="s" unicode="s" horiz-adv-x="336" 
d="M275 406l9 -85.002l-25 -4l-0.5 0.5c-0.333008 0.333008 -0.5 0.833008 -0.5 1.5c-5.33301 18 -14.166 34.5 -26.499 49.5s-28.833 22.5 -49.5 22.5c-16.667 0 -31.167 -5.16699 -43.5 -15.5s-18.5 -24.166 -18.5 -41.499c0 -20 7 -36.667 21 -50s30.667 -26 50 -38
c2.66699 -2 5.5 -3.83301 8.5 -5.5s5.83301 -3.5 8.5 -5.5c22 -14 42.167 -29.833 60.5 -47.5s27.5 -41.5 27.5 -71.5c0 -38 -13.5 -68 -40.5 -90s-58.833 -33 -95.5 -33c-5.33301 0 -10.5 0.166992 -15.5 0.5s-10.167 0.833008 -15.5 1.5
c-13.333 1.33301 -26.333 3.5 -39 6.5s-25 6.83301 -37 11.5l-13 103l27 5c5.33301 -24.667 14.166 -47 26.499 -67s32.833 -30 61.5 -30c20 0 37.333 6 52 18s22 28.333 22 49c0 16.667 -5.83301 30.834 -17.5 42.501s-25.834 23.167 -42.501 34.5
c-4.66699 2.66699 -9.16699 5.5 -13.5 8.5s-8.83301 5.83301 -13.5 8.5c-22 14.667 -42 31.167 -60 49.5s-27 42.5 -27 72.5c0 37.333 12.5 66.166 37.5 86.499s55.167 30.5 90.5 30.5c4 0 8 -0.166992 12 -0.5s7.66699 -0.5 11 -0.5
c12 -1.33301 23.833 -3.66602 35.5 -6.99902s22.834 -7 33.501 -11v1z" />
    <glyph glyph-name="t" unicode="t" horiz-adv-x="303" 
d="M140 521l26.999 0.00195312l-2 -126h128l-14 -40h-118v-121c0.666992 -16 1 -31.833 1 -47.5v-46.5v-10.5c0 -3.66699 0.333008 -7.5 1 -11.5c1.33301 -20.667 6.33301 -39.834 15 -57.501s26 -26.5 52 -26.5c9.33301 0 18.333 1 27 3s17.334 4.66699 26.001 8l10 -25
c-14 -6.66699 -28.5 -12.334 -43.5 -17.001s-30.167 -7.66699 -45.5 -9c-3.33301 -0.666992 -6.5 -1 -9.5 -1h-9.5c-32.667 0 -56.834 8.16699 -72.501 24.5s-23.5 40.5 -23.5 72.5v14c0 4.66699 0.333008 9.66699 1 15v14v14v208h-55l7 28c23.333 16 43.833 35.667 61.5 59
s29.834 49.333 36.501 78v1z" />
    <glyph glyph-name="u" unicode="u" horiz-adv-x="521" 
d="M484 39l0.00195312 -29.0068c-21.333 -2.66699 -42.5 -5.66699 -63.5 -9s-41.833 -8 -62.5 -14l-12 13c2 10 3.83301 20.333 5.5 31s2.5 21.334 2.5 32.001c-20 -20 -43 -37.333 -69 -52s-53.667 -22 -83 -22c-40 0 -67.833 13.5 -83.5 40.5s-24.834 56.833 -27.501 89.5
c-0.666992 4.66699 -1 9.16699 -1 13.5v12.5v19.5c0 6.33301 0.333008 12.833 1 19.5v18.5v19.5v24c0 8 0.333008 16 1 24v24v24c0 25.333 -4.16699 42.333 -12.5 51s-24.5 13 -48.5 13v33c2 -1.33301 4 -2 6 -2h5c21.333 0 42.166 0.333008 62.499 1s40.833 3 61.5 7
c-2 -38 -3.33301 -76 -4 -114s-1 -76 -1 -114v-5v-5c0.666992 -5.33301 1 -10.666 1 -15.999s0.333008 -10.666 1 -15.999c1.33301 -25.333 7 -48.666 17 -69.999s31 -32 63 -32c21.333 0 41 4.33301 59 13s35.333 19.334 52 32.001v159v15.5
c0 5.66699 0.333008 11.167 1 16.5v16.5v16.5c0 24.667 -3.83301 41.5 -11.5 50.5s-24.167 13.5 -49.5 13.5v33c1.33301 -1.33301 2.66602 -2 3.99902 -2h4h7.5h7.5c2.66699 -0.666992 5.16699 -1 7.5 -1h7.5c16.667 0 33.167 0.833008 49.5 2.5s32.5 3.83398 48.5 6.50098
l-2 -19c-0.666992 -21.333 -1.16699 -42.5 -1.5 -63.5s-0.833008 -41.833 -1.5 -62.5v-62.5v-62.5v-7.5v-7.5c0 -17.333 0.5 -33.5 1.5 -48.5s2.5 -24.833 4.5 -29.5c3.33301 -6.66699 8.16602 -11.167 14.499 -13.5s12.833 -4.16602 19.5 -5.49902
c2.66699 0 5.33398 -0.166992 8.00098 -0.5s5.33398 -0.5 8.00098 -0.5h1.5h1.5v1z" />
    <glyph glyph-name="v" unicode="v" horiz-adv-x="438" 
d="M-3 385l-0.0078125 33.999c8 -1.33301 16 -2.33301 24 -3l24 -2c7.33301 -0.666992 15 -1 23 -1h24c18 0 35.833 0.333008 53.5 1s35.167 2 52.5 4v-33h-14c-0.666992 -0.666992 -1.16699 -1 -1.5 -1h-1.5c-9.33301 -0.666992 -18 -2.83398 -26 -6.50098
s-12 -10.167 -12 -19.5c0 -2.66699 0.166992 -5.16699 0.5 -7.5s0.833008 -4.83301 1.5 -7.5c0.666992 -4 1.83398 -8.16699 3.50098 -12.5s3.5 -8.5 5.5 -12.5c1.33301 -3.33301 2.66602 -6.5 3.99902 -9.5s2.33301 -6.16699 3 -9.5l75 -186l58 139
c2 4.66699 4.33301 9.83398 7 15.501s5.33398 11.834 8.00098 18.501c1.33301 2.66699 2.66602 5.5 3.99902 8.5s2.33301 6.16699 3 9.5c4 8.66699 7.16699 17.167 9.5 25.5s3.5 16.166 3.5 23.499c0 10.667 -3.66699 18.167 -11 22.5s-15.333 6.83301 -24 7.5
c-3.33301 0.666992 -6.33301 1 -9 1h-8v35c14.667 -2.66699 29.334 -4.33398 44.001 -5.00098s29.334 -1 44.001 -1c6.66699 0 13.334 0.166992 20.001 0.5s13.334 0.5 20.001 0.5l20 2l20 2v-33c-9.33301 -1.33301 -18.5 -3.16602 -27.5 -5.49902
s-16.833 -7.16602 -23.5 -14.499c-8 -8.66699 -15.5 -19.167 -22.5 -31.5s-13.5 -25.166 -19.5 -38.499c-4 -8.66699 -7.66699 -17.334 -11 -26.001s-6.66602 -16.667 -9.99902 -24l-60 -141l-23.5 -57c-7.66699 -18.667 -14.834 -37.334 -21.501 -56.001h-19
c-1.33301 4.66699 -2.83301 9 -4.5 13s-3.5 8 -5.5 12c0 2 -0.333008 3.66699 -1 5l-2 4c-4 12 -8.16699 23.833 -12.5 35.5s-9.16602 23.167 -14.499 34.5l-65 161c-2.66699 5.33301 -6 12.833 -10 22.5s-8.33301 19.5 -13 29.5l-8 16c-2.66699 5.33301 -5 10.333 -7 15
c-4 6.66699 -7.66699 12.5 -11 17.5s-6.66602 9.16699 -9.99902 12.5c-5.33301 4.66699 -11.166 7.83398 -17.499 9.50098s-12.5 3.16699 -18.5 4.5c-2 0 -3.66699 0.166992 -5 0.5s-2.66602 0.5 -3.99902 0.5z" />
    <glyph glyph-name="w" unicode="w" horiz-adv-x="615" 
d="M-3 385l0.00390625 32.9932c13.333 -2 26.833 -3.5 40.5 -4.5s27.167 -1.5 40.5 -1.5c15.333 0 30.833 0.5 46.5 1.5s31.167 2.16699 46.5 3.5v-32c-2 -0.666992 -4.33301 -1.16699 -7 -1.5s-5.33398 -0.833008 -8.00098 -1.5
c-6.66699 -1.33301 -12.834 -3.66602 -18.501 -6.99902s-8.83398 -8.66602 -9.50098 -15.999c0 -2.66699 0.166992 -5.16699 0.5 -7.5s1.16602 -4.83301 2.49902 -7.5c0.666992 -3.33301 1.66699 -6.66602 3 -9.99902s2.66602 -6.33301 3.99902 -9
c0.666992 -2 1.5 -3.83301 2.5 -5.5s1.83301 -3.5 2.5 -5.5l71 -193l78 182l-4 10.5l-4 10.5c-6.66699 16.667 -14.5 30.667 -23.5 42s-24.5 17.333 -46.5 18v34c8 -1.33301 16.167 -2.33301 24.5 -3l24.5 -2c8 0 16.167 -0.166992 24.5 -0.5s16.5 -0.5 24.5 -0.5
c8.66699 0 17.334 0.166992 26.001 0.5s17.334 0.5 26.001 0.5l25 2l26 2v-32c-2 -1.33301 -4.33301 -2.16602 -7 -2.49902s-5.33398 -0.5 -8.00098 -0.5c-1.33301 0 -2.83301 -0.166992 -4.5 -0.5s-3.16699 -0.5 -4.5 -0.5h-1.5h-1.5c-8.66699 0 -16.667 -1.33301 -24 -4
s-11.333 -9.33398 -12 -20.001c0 -6 0.833008 -11.667 2.5 -17s3.83398 -10.666 6.50098 -15.999l80 -203l56 157c1.33301 3.33301 2.66602 7 3.99902 11l4 12c3.33301 9.33301 6.5 18.666 9.5 27.999s4.5 18.666 4.5 27.999c0 10 -2.5 16.333 -7.5 19
s-10.5 4.33398 -16.5 5.00098h-1.5h-1.5c-2.66699 0 -5.5 0.333008 -8.5 1s-5.5 1.33398 -7.5 2.00098v34c13.333 -1.33301 26.5 -2.5 39.5 -3.5s25.833 -1.5 38.5 -1.5c6 0 11.833 0.166992 17.5 0.5s11.167 0.5 16.5 0.5c5.33301 0.666992 10.833 1.16699 16.5 1.5
s11.5 0.833008 17.5 1.5v-32c-18 -2 -31.833 -9.66699 -41.5 -23s-17.834 -27.666 -24.501 -42.999l-6 -15.5l-6 -14.5l-68 -175l-21.5 -59.5l-20.5 -58.5h-19l-19 51.5c-6.66699 17.667 -13.667 35.167 -21 52.5l-64 156l-67 -155c-2.66699 -7.33301 -5.5 -14.5 -8.5 -21.5
s-5.83301 -14.167 -8.5 -21.5l-13.5 -31.5l-12.5 -30.5h-18l-12 34.5l-12 34.5c-0.666992 2 -1.5 4.16699 -2.5 6.5s-1.83301 4.83301 -2.5 7.5l-10 28l-10 28l-51 136c-1.33301 2.66699 -2.66602 5.83398 -3.99902 9.50098l-4 11.5l-0.5 1
c-0.333008 0.666992 -0.5 1.33398 -0.5 2.00098c-7.33301 20 -16 38.833 -26 56.5s-26.667 28.5 -50 32.5z" />
    <glyph glyph-name="x" unicode="x" horiz-adv-x="449" 
d="M20 386l0.00488281 32.0059c15.333 -2 30.666 -3.5 45.999 -4.5s30.333 -1.5 45 -1.5c16 0 31.833 0.5 47.5 1.5s31.167 2.16699 46.5 3.5v-31h-9c-0.666992 -0.666992 -1.16699 -1 -1.5 -1h-0.5c-1.33301 0 -2.66602 -0.166992 -3.99902 -0.5
s-2.66602 -0.5 -3.99902 -0.5c-4 -0.666992 -7.66699 -1.83398 -11 -3.50098s-5 -4.5 -5 -8.5c0 -6.66699 2.5 -14.834 7.5 -24.501s10.833 -19.5 17.5 -29.5c2 -2.66699 3.83301 -5.33398 5.5 -8.00098s3.5 -5 5.5 -7c6 -8.66699 11.833 -16.667 17.5 -24l13.5 -18
c3.33301 4 6.66602 8.33301 9.99902 13s6.66602 9 9.99902 13l23.5 36c7.66699 12 12.5 24.667 14.5 38c0 9.33301 -3 15.5 -9 18.5s-13 4.5 -21 4.5c-1.33301 0.666992 -2.66602 1 -3.99902 1h-4v33c7.33301 -1.33301 14.5 -2.33301 21.5 -3l21.5 -2
c7.33301 0 14.5 -0.166992 21.5 -0.5s14.167 -0.5 21.5 -0.5c13.333 0 26.166 0.5 38.499 1.5s24.833 2.16699 37.5 3.5v-31c-26.667 -0.666992 -50 -10.834 -70 -30.501s-38 -41.167 -54 -64.5l-19.5 -31c-6.33301 -10 -12.5 -19 -18.5 -27l80 -118l9 -15
c3.33301 -5.33301 6.66602 -10.333 9.99902 -15c5.33301 -8 11 -15.833 17 -23.5s12 -13.834 18 -18.501c4.66699 -4 9.66699 -6.66699 15 -8s10.666 -2.33301 15.999 -3h0.5h0.5c2.66699 0 5.33398 -0.333008 8.00098 -1l8 -2v-29c-14.667 0.666992 -29.167 1.5 -43.5 2.5
s-28.833 1.5 -43.5 1.5c-12.667 0 -25.334 -0.333008 -38.001 -1l-38 -2c-4 -0.666992 -8.16699 -1 -12.5 -1h-12.5v30h8c1.33301 -0.666992 2.83301 -1 4.5 -1h4.5c6 0.666992 11.5 2.16699 16.5 4.5s7.5 6.83301 7.5 13.5c0 1.33301 -0.166992 2.66602 -0.5 3.99902
s-0.5 2.66602 -0.5 3.99902c-1.33301 4 -3.16602 8 -5.49902 12l-6.5 11c-1.33301 1.33301 -2.5 2.83301 -3.5 4.5s-2.16699 3.16699 -3.5 4.5l-60 88c-3.33301 -6 -8.5 -13.5 -15.5 -22.5s-14.167 -18.833 -21.5 -29.5c-1.33301 -2.66699 -2.83301 -5.16699 -4.5 -7.5
s-3.5 -4.5 -5.5 -6.5c-8 -12.667 -15.167 -24.667 -21.5 -36s-9.5 -20.333 -9.5 -27v0c0 -6 2.16699 -10 6.5 -12s9.16602 -3.33301 14.499 -4c1.33301 0 2.83301 -0.166992 4.5 -0.5s3.16699 -0.5 4.5 -0.5h2h2l6 1v-30c-14 0.666992 -28 1.5 -42 2.5s-28 1.5 -42 1.5
c-6.66699 0 -13.334 -0.166992 -20.001 -0.5s-13.334 -0.5 -20.001 -0.5l-20 -2c-6.66699 -0.666992 -13.334 -1 -20.001 -1v30c20 1.33301 36.333 5.5 49 12.5s24.334 16.5 35.001 28.5c3.33301 4 6.66602 8.33301 9.99902 13s7 9.33398 11 14.001l78 106l-85 124
c-4.66699 6 -8.66699 11.5 -12 16.5s-6.66602 9.5 -9.99902 13.5c-8 9.33301 -16.5 16 -25.5 20s-22.5 6.33301 -40.5 7v1z" />
    <glyph glyph-name="y" unicode="y" horiz-adv-x="432" 
d="M-3 386l0.00585938 31.999c8 -1.33301 15.833 -2.33301 23.5 -3l22.5 -2c7.33301 0 14.833 -0.166992 22.5 -0.5s15.5 -0.5 23.5 -0.5c16.667 0 33.167 0.5 49.5 1.5s32.833 2.16699 49.5 3.5v-31c-2.66699 -0.666992 -5.83398 -1 -9.50098 -1
s-7.16699 -0.333008 -10.5 -1c-7.33301 -1.33301 -14.166 -3.66602 -20.499 -6.99902s-9.5 -9 -9.5 -17c0 -2.66699 0.166992 -5.16699 0.5 -7.5s0.833008 -4.83301 1.5 -7.5c0.666992 -5.33301 2 -10.666 4 -15.999s4 -10.333 6 -15c0.666992 -2 1.5 -4.16699 2.5 -6.5
s1.83301 -4.5 2.5 -6.5l78 -203l54 142c2 4 4 8.5 6 13.5l6 15.5c6 13.333 11.5 27.333 16.5 42s7.5 29.334 7.5 44.001c0 11.333 -4 19 -12 23s-16.667 6.33301 -26 7h-6.5h-6.5v33c4 -0.666992 7.83301 -1.16699 11.5 -1.5s7.16699 -0.833008 10.5 -1.5
c4 0 7.83301 -0.166992 11.5 -0.5s7.5 -0.5 11.5 -0.5c7.33301 -0.666992 14.666 -1.16699 21.999 -1.5s14.666 -0.5 21.999 -0.5c14 0 28 0.5 42 1.5s28.333 2.16699 43 3.5v-31c-33.333 -4.66699 -56.333 -16.334 -69 -35.001s-23.334 -40.667 -32.001 -66l-8 -22.5
c-2.66699 -7.66699 -5.66699 -15.5 -9 -23.5l-90 -224l-17.5 -44.5c-7 -17.667 -14.833 -35.834 -23.5 -54.501c-14 -30.667 -31 -59 -51 -85s-43 -39 -69 -39c-10.667 0 -20.334 3.83301 -29.001 11.5s-13 17.167 -13 28.5c0 12.667 4.66699 22.167 14 28.5
s19.333 10.5 30 12.5c2 0.666992 3.83301 1.16699 5.5 1.5s3.5 0.5 5.5 0.5c24 3.33301 42.667 14 56 32s24.666 37.667 33.999 59c2 5.33301 4.16699 10.666 6.5 15.999s4.5 10.666 6.5 15.999l1.5 3l1.5 3l-93 242l-18 42c-3.33301 8.66699 -6.33301 16.834 -9 24.501
s-5.33398 14.834 -8.00098 21.501c-6 15.333 -13.5 27 -22.5 35s-24.833 13.333 -47.5 16z" />
    <glyph glyph-name="z" unicode="z" horiz-adv-x="415" 
d="M62 433l18.9971 0.000976562l18.999 -10s10.666 -4.66699 15.999 -6c6.66699 -2 13.667 -3.33301 21 -4s16 -1 26 -1l218 1l5 -11l-265 -365c13.333 -1.33301 26.833 -2.16602 40.5 -2.49902s26.834 -0.5 39.501 -0.5c38.667 0 69.334 2.5 92.001 7.5
s43.667 21.167 63 48.5l8 12.5c2.66699 4.33301 5.33398 9.16602 8.00098 14.499l26 -6l-35 -111c-16.667 0.666992 -33.167 1 -49.5 1h-49.5l-63 1c-14.667 -0.666992 -29.5 -1 -44.5 -1h-44.5c-14.667 0 -29.5 -0.166992 -44.5 -0.5s-29.833 -0.5 -44.5 -0.5l-7 11
l18.5 23.5l18.5 25.5l18.5 25.5l18.5 24.5l193 270h-104c-29.333 -0.666992 -52.666 -4.83398 -69.999 -12.501s-30.666 -27.167 -39.999 -58.5l-29 5l22 119v0z" />
    <glyph glyph-name="braceleft" unicode="{" horiz-adv-x="500" 
d="M104 311v15.002c27.333 0.666992 50.666 5.83398 69.999 15.501s29 30.5 29 62.5c0 10 -0.166992 20 -0.5 30s-0.5 20 -0.5 30c0 9.33301 -0.166992 19 -0.5 29s-0.5 20 -0.5 30c0 61.333 6.5 109 19.5 143s53.833 52 122.5 54h14.5c5 0 9.83301 0.333008 14.5 1h14.5
h14.5v-21c-40.667 -1.33301 -73 -8.33301 -97 -21s-36.667 -42.667 -38 -90v-171c-0.666992 -26 -7 -47.5 -19 -64.5s-31 -28.5 -57 -34.5v-2c28 -5.33301 47.333 -18.833 58 -40.5s17 -44.834 19 -69.501v-7v-8c0 -12.667 -0.166992 -25.334 -0.5 -38.001
s-0.5 -25 -0.5 -37c0 -12.667 -0.166992 -25.334 -0.5 -38.001s-0.5 -25.334 -0.5 -38.001c0 -51.333 10.167 -86.166 30.5 -104.499s55.5 -27.5 105.5 -27.5v-22h-15c-54 0.666992 -98.5 7.16699 -133.5 19.5s-52.5 51.833 -52.5 118.5c0 22 0.166992 44 0.5 66
s0.833008 44 1.5 66c0 11.333 0.166992 22.5 0.5 33.5s0.5 21.833 0.5 32.5c0 35.333 -8.66699 58.333 -26 69s-41.666 16.667 -72.999 18v1z" />
    <glyph glyph-name="bar" unicode="|" horiz-adv-x="500" 
d="M223 666h54v-833h-54v833v0z" />
    <glyph glyph-name="braceright" unicode="}" horiz-adv-x="500" 
d="M396 326l-0.00488281 -14.999c-28.667 -2 -52.334 -8 -71.001 -18s-28 -31.667 -28 -65c0 -16.667 0.166992 -33.5 0.5 -50.5s0.833008 -33.833 1.5 -50.5c0 -17.333 0.166992 -34.333 0.5 -51s0.5 -33.667 0.5 -51c0 -50 -11.167 -85 -33.5 -105
s-58.166 -30.667 -107.499 -32h-14.5c-5 0 -10.167 -0.333008 -15.5 -1h-14.5h-15.5v22c42 0 74.667 7 98 21s35.333 43.667 36 89v45.5c0 15 0.333008 30.167 1 45.5v45.5v45.5c0.666992 28 5.83398 52.667 15.501 74s29.834 35 60.501 41v4
c-25.333 5.33301 -44.166 16.5 -56.499 33.5s-18.833 38.167 -19.5 63.5v122c0 58.667 -7.16699 99.667 -21.5 123s-52.166 35.666 -113.499 36.999v23c1.33301 -0.666992 2.83301 -1 4.5 -1h4.5c1.33301 -0.666992 2.83301 -1 4.5 -1h4.5c62 0 107.833 -7 137.5 -21
s44.5 -60.333 44.5 -139c0 -12.667 -0.166992 -25.5 -0.5 -38.5s-0.5 -25.833 -0.5 -38.5s-0.166992 -25.5 -0.5 -38.5s-0.5 -25.833 -0.5 -38.5c0 -32.667 9.33301 -54 28 -64s42.334 -15.667 71.001 -17v1z" />
    <glyph glyph-name="asciitilde" unicode="~" horiz-adv-x="500" 
d="M457 400l15.999 -7.99707c-14.667 -25.333 -34.667 -47.833 -60 -67.5s-53.333 -29.5 -84 -29.5c-16.667 0 -32.834 2.16699 -48.501 6.5s-31.167 9.16602 -46.5 14.499s-30.833 10.166 -46.5 14.499s-31.834 6.5 -48.501 6.5c-18 0 -33.333 -4.5 -46 -13.5
s-24.667 -19.167 -36 -30.5l-4.5 -4.5l-4.5 -4.5l-2.5 -2.5l-2.5 -2.5l-16 10l0.5 0.5l1.5 1.5c16.667 23.333 36.834 44.833 60.501 64.5s50.834 29.5 81.501 29.5c16 0 31.5 -2 46.5 -6s29.833 -8.66699 44.5 -14l44.5 -13.5c15 -4.33301 30.5 -6.5 46.5 -6.5
c21.333 0 40.833 5.16699 58.5 15.5s32.834 23.166 45.501 38.499v1z" />
    <glyph glyph-name="endash" unicode="&#xa1;" horiz-adv-x="232" 
d="M102 257h27l17 -171l6 -63c2 -20.667 3.66699 -41.334 5 -62.001s2.33301 -41.5 3 -62.5s1 -41.833 1 -62.5v-2.5v-2.5c-0.666992 -14.667 -4.16699 -27.834 -10.5 -39.501s-17.833 -17.5 -34.5 -17.5c-15.333 0 -26.333 5.5 -33 16.5s-10.667 23.167 -12 36.5v4.5v4.5
c0 20.667 0.333008 41.5 1 62.5s1.66699 41.833 3 62.5s2.83301 41.334 4.5 62.001s3.5 41.334 5.5 62.001l17 172v0zM60 404c0 14.667 5.5 27.5 16.5 38.5s24.167 16.5 39.5 16.5s28.5 -5.5 39.5 -16.5s16.5 -24.167 16.5 -39.5s-5.5 -28.5 -16.5 -39.5
s-24.167 -16.5 -39.5 -16.5s-28.5 5.5 -39.5 16.5s-16.5 24.167 -16.5 39.5v1z" />
    <glyph glyph-name="cent" unicode="&#xa2;" horiz-adv-x="467" 
d="M243 617h32.001v-60c15.333 -1.33301 30.333 -3.33301 45 -6s28.667 -7.66699 42 -15c2.66699 -1.33301 5.66699 -3 9 -5l10 -6c6.66699 -4.66699 12.667 -9.66699 18 -15s8 -11 8 -17c0 -7.33301 -3 -14 -9 -20s-12.667 -10 -20 -12
c-2 -0.666992 -3.83301 -1.16699 -5.5 -1.5s-3.16699 -0.5 -4.5 -0.5c-6 0 -12.167 3.33301 -18.5 10l-21.5 22c-7.33301 7.33301 -15.333 14.166 -24 20.499s-18.334 9.83301 -29.001 10.5v-342c1.33301 -0.666992 2.83301 -1 4.5 -1s3.5 -0.333008 5.5 -1
c21.333 0 41 4 59 12s34.667 19 50 33l18 -18c-16.667 -21.333 -37 -39.166 -61 -53.499s-49.333 -23.5 -76 -27.5v-57h-32v58c-58 4.66699 -102.667 27 -134 67s-47 88 -47 144c0 55.333 16.333 103.333 49 144s76.667 65.667 132 75v62v0zM243.001 523
c-30.667 -6.66699 -54.667 -22.668 -72 -48.001s-27.666 -52.666 -30.999 -81.999c-0.666992 -4.66699 -1.16699 -9.16699 -1.5 -13.5s-0.5 -8.5 -0.5 -12.5c0 -38.667 8.16699 -74.5 24.5 -107.5s43.166 -57.5 80.499 -73.5v337v0z" />
    <glyph glyph-name="sterling" unicode="&#xa3;" horiz-adv-x="467" 
d="M54 353l92.9971 -0.000976562c-2 9.33301 -3.83301 18.833 -5.5 28.5s-3.16699 19.5 -4.5 29.5s-2.33301 19.833 -3 29.5s-1 19.5 -1 29.5c0 56.667 15 105.834 45 147.501s75.667 62.5 137 62.5c6 0 13 -0.833008 21 -2.5s16.333 -3.83398 25 -6.50098
c15.333 -5.33301 29.5 -12.666 42.5 -21.999s19.5 -20 19.5 -32c0 -1.33301 -0.166992 -2.66602 -0.5 -3.99902s-0.833008 -2.66602 -1.5 -3.99902c-2 -5.33301 -5.5 -10.5 -10.5 -15.5s-10.5 -8.83301 -16.5 -11.5c-2 -0.666992 -4.16699 -1.33398 -6.5 -2.00098
s-4.5 -1 -6.5 -1c-1.33301 0 -2.5 0.166992 -3.5 0.5s-1.83301 0.833008 -2.5 1.5c-4.66699 2 -9.5 6.16699 -14.5 12.5l-15.5 19.5c-7.33301 8.66699 -15.5 16.5 -24.5 23.5s-19.833 10.5 -32.5 10.5c-23.333 0 -40.666 -8.66699 -51.999 -26s-18.666 -36.333 -21.999 -57
c-1.33301 -6.66699 -2.33301 -13.667 -3 -21s-1 -14 -1 -20c0 -26 1.66699 -52 5 -78s7.33301 -51.667 12 -77c0 -2.66699 0.166992 -5.33398 0.5 -8.00098s0.833008 -5.33398 1.5 -8.00098l145 1v-34h-140c0 -5.33301 0.166992 -10.333 0.5 -15s0.5 -9 0.5 -13
c0.666992 -4.66699 1 -9.33398 1 -14.001v-14c0 -26 -1 -51.833 -3 -77.5s-6.66699 -51.167 -14 -76.5l15.5 -6l14.5 -6c2 -1.33301 4 -2.33301 6 -3s4 -1.66699 6 -3c18.667 -8 37.334 -15.333 56.001 -22s38.334 -10 59.001 -10c13.333 0 24.5 4 33.5 12
s17.167 17 24.5 27c0.666992 0.666992 1.33398 1.5 2.00098 2.5s1.33398 1.83301 2.00098 2.5l21 -16c-2 -4 -4 -7.66699 -6 -11l-6 -10c-12.667 -19.333 -28.334 -37.166 -47.001 -53.499s-40.334 -24.5 -65.001 -24.5h-5.5c-1.66699 0 -3.5 0.333008 -5.5 1
c-14.667 2 -29 7.16699 -43 15.5s-27.667 17.5 -41 27.5l-18.5 14.5l-17.5 13.5c-10 -19.333 -23.5 -35.833 -40.5 -49.5s-37.167 -20.5 -60.5 -20.5c-21.333 0 -40.333 6.66699 -57 20s-25 31.333 -25 54c0 23.333 8.83301 41.833 26.5 55.5s37.5 20.5 59.5 20.5
c11.333 0 22.666 -1.16699 33.999 -3.5s22 -5.83301 32 -10.5c0 2 0.166992 4 0.5 6s0.5 4 0.5 6v5v6c0 22.667 -1.66699 45.334 -5 68.001l-10 67c-1.33301 6 -2.5 11.833 -3.5 17.5s-1.83301 11.167 -2.5 16.5l-99 1v34v0zM167.997 82.999
c-0.666992 0 -1.33105 0.168945 -1.99805 0.501953s-1.33398 0.833008 -2.00098 1.5c-8.66699 4.66699 -18 9.16699 -28 13.5s-20 6.5 -30 6.5c-12.667 0 -23.834 -3.5 -33.501 -10.5s-14.5 -17.167 -14.5 -30.5c0 -12.667 4.66699 -22.334 14 -29.001
s19.333 -10.334 30 -11.001h1.5h1.5c17.333 0 31.333 5.66699 42 17s17.667 25 21 41v1z" />
    <glyph glyph-name="Idieresis" unicode="&#xa4;" horiz-adv-x="667" 
d="M65 102l91.0029 90.9941c-1.33301 0.666992 -2.5 1.83398 -3.5 3.50098s-1.83301 3.16699 -2.5 4.5c-14.667 21.333 -26.334 43.333 -35.001 66s-13 47.667 -13 75c0 26.667 5.16699 52.334 15.5 77.001s22.166 48.334 35.499 71.001l-91 92l29 29l92 -91
c21.333 16 45 28.667 71 38s52.667 14 80 14c28 0 54.167 -5.16699 78.5 -15.5s47.833 -23.166 70.5 -38.499l93 94l29 -29l-93 -94l9.5 -17c3 -5.33301 5.83301 -10.666 8.5 -15.999c10 -18 17.833 -36.5 23.5 -55.5s8.5 -39.833 8.5 -62.5
c0 -26.667 -4.83301 -51.667 -14.5 -75s-21.834 -46 -36.501 -68l94 -93l-30 -30l-93 93c-22.667 -15.333 -46.167 -28 -70.5 -38s-50.5 -15 -78.5 -15c-27.333 0 -53 4.83301 -77 14.5s-47.333 21.834 -70 36.501l-92 -91l-29 30v0zM505.003 341.994
c0 46.667 -16.6689 87 -50.002 121s-73.666 51 -120.999 51s-88 -17 -122 -51s-51 -74.667 -51 -122c0 -46.667 17.167 -86.834 51.5 -120.501s74.833 -50.5 121.5 -50.5s86.834 16.833 120.501 50.5s50.5 73.834 50.5 120.501v1z" />
    <glyph glyph-name="ae" unicode="&#xa5;" horiz-adv-x="467" 
d="M28 387l121.992 -0.00195312l-64 164c-8 19.333 -17.667 36.833 -29 52.5s-28.666 25.834 -51.999 30.501v33c14.667 -2 29.167 -3.5 43.5 -4.5s28.833 -1.5 43.5 -1.5c18 0 36.167 0.333008 54.5 1s36.833 2 55.5 4v-31
c-2.66699 -0.666992 -5.33398 -1.16699 -8.00098 -1.5s-5.33398 -0.5 -8.00098 -0.5c-8 -1.33301 -15.333 -3.83301 -22 -7.5s-10 -10.167 -10 -19.5c0 -11.333 1.83301 -22.166 5.5 -32.499s7.83398 -20.5 12.501 -30.5c0.666992 -2 1.33398 -3.83301 2.00098 -5.5
s1.33398 -3.16699 2.00098 -4.5l71 -201l60 180c1.33301 4.66699 3 9.5 5 14.5l6 15.5v1c0 0.666992 0.333008 1.33398 1 2.00098l10 28.5c3.33301 9.66699 5 19.834 5 30.501c0 10 -3.5 17.167 -10.5 21.5s-14.833 6.83301 -23.5 7.5c-2 0.666992 -4.16699 1 -6.5 1h-6.5
v33c16.667 -2.66699 33.167 -4.33398 49.5 -5.00098s32.833 -1 49.5 -1c11.333 0 22.833 0.5 34.5 1.5s23.167 2.16699 34.5 3.5v-31c-24.667 -2 -44 -12 -58 -30s-25.333 -37.667 -34 -59l-8 -20.5c-2.66699 -7 -5 -13.833 -7 -20.5l-41 -118h125v-34h-137
c-1.33301 -4.66699 -2.83301 -9.16699 -4.5 -13.5s-3.16699 -8.5 -4.5 -12.5c-4.66699 -12 -9 -24.333 -13 -37s-6 -25.334 -6 -38.001l165 1v-33h-165v-26.5v-25.5c-0.666992 -8.66699 -1 -17.167 -1 -25.5v-25.5c0 -26 3.16699 -46.833 9.5 -62.5s24.833 -23.5 55.5 -23.5
l11 1v-32c-9.33301 -0 -18.666 0.333008 -27.999 1l-28 2c-9.33301 0 -18.666 0.166992 -27.999 0.5s-18.666 0.5 -27.999 0.5h-28c-9.33301 0 -18.666 -0.333008 -27.999 -1c-10 -0.666992 -19.667 -1.16699 -29 -1.5s-18.666 -0.833008 -27.999 -1.5v32
c18.667 -0.666992 35.334 2.33301 50.001 9s22.667 20.667 24 42c0.666992 6.66699 1 13.167 1 19.5v19.5v98h-164v33h164v23l-30 77h-134v34v0z" />
    <glyph glyph-name="brokenbar" unicode="&#xa6;" 
 />
    <glyph glyph-name="section" unicode="&#xa7;" horiz-adv-x="467" 
d="M340 88c17.333 -14.667 32.332 -32.165 44.999 -52.498s19 -41.833 19 -64.5c0 -48.667 -17.5 -87.834 -52.5 -117.501s-75.833 -45.834 -122.5 -48.501h-12c-4 0 -8 0.333008 -12 1c-24 1.33301 -47.667 6 -71 14s-43.666 21 -60.999 39c-4 4 -7.5 8.16699 -10.5 12.5
s-4.5 9.16602 -4.5 14.499c0 2 0.333008 3.83301 1 5.5s1.33398 3.5 2.00098 5.5c2.66699 4.66699 6.33398 9.33398 11.001 14.001s9.66699 8.33398 15 11.001c2 1.33301 4.33301 2.33301 7 3s5 1 7 1c5.33301 0 11.666 -4.33301 18.999 -13s16 -18.334 26 -29.001
c10 -10 21.667 -19.333 35 -28s29 -13 47 -13c30 0 54.5 10.5 73.5 31.5s28.5 46.167 28.5 75.5c0 26 -10.667 48 -32 66s-46.333 35.667 -75 53l-17.5 10l-17.5 10c-34 20 -65.5 42.333 -94.5 67s-44.833 56.334 -47.5 95.001v2v3
c0.666992 30.667 8.83398 59.667 24.501 87s38.5 47 68.5 59c-15.333 14 -28 29.667 -38 47s-16 36.333 -18 57c0 48.667 15.667 87.5 47 116.5s71 43.5 119 43.5c21.333 0 42 -2.66699 62 -8s38.333 -15 55 -29c5.33301 -3.33301 9.83301 -7.33301 13.5 -12
s5.5 -10.334 5.5 -17.001c0 -2 -0.333008 -4 -1 -6s-1.66699 -4.33301 -3 -7c-2.66699 -4 -6 -8.16699 -10 -12.5s-8.33301 -7.5 -13 -9.5c-2 -0.666992 -3.83301 -1.33398 -5.5 -2.00098s-3.5 -1 -5.5 -1c-5.33301 0 -11.333 3.5 -18 10.5l-22 23.5
c-8.66699 8 -18.5 15.5 -29.5 22.5s-23.833 10.5 -38.5 10.5c-24.667 0 -45.834 -8.5 -63.501 -25.5s-26.5 -38.167 -26.5 -63.5c0 -27.333 10.833 -50.166 32.5 -68.499s47.167 -35.5 76.5 -51.5c4.66699 -3.33301 9.66699 -6.5 15 -9.5s10.666 -5.83301 15.999 -8.5
c35.333 -20 67.5 -42.667 96.5 -68s43.5 -59.333 43.5 -102c0 -30.667 -8 -59 -24 -85s-37.667 -46 -65 -60v1zM163.999 385.002c-17.333 -11.333 -31.5029 -25.002 -42.5029 -41.002s-16.5 -34.667 -16.5 -56c0 -20.667 7.83301 -39 23.5 -55s32.834 -30 51.501 -42
c8.66699 -6 17.334 -11.5 26.001 -16.5l23 -13.5l43 -26.5l41 -27.5c17.333 10.667 30.833 24.667 40.5 42s14.5 36.333 14.5 57c0 24.667 -11.833 47.334 -35.5 68.001s-49.5 39.334 -77.5 56.001c-17.333 10.667 -34.166 20.5 -50.499 29.5s-29.833 17.167 -40.5 24.5v1z
" />
    <glyph glyph-name="dieresis" unicode="&#xa8;" horiz-adv-x="500" 
d="M215 566c0 -13.333 -4.49805 -24.5 -13.498 -33.5s-19.833 -13.5 -32.5 -13.5s-24.167 4.33301 -34.5 13s-15.5 19.334 -15.5 32.001c0 13.333 4.66699 25.166 14 35.499s20.666 15.5 33.999 15.5s24.666 -5 33.999 -15s14 -21.667 14 -35v1zM381.002 566
c0 -13.333 -4.49902 -24.5 -13.499 -33.5s-19.833 -13.5 -32.5 -13.5s-24 4.33301 -34 13s-15 19.334 -15 32.001c0 13.333 4.66699 25.166 14 35.499s20.666 15.5 33.999 15.5s24.5 -5 33.5 -15s13.5 -21.667 13.5 -35v1z" />
    <glyph glyph-name="copyright" unicode="&#xa9;" horiz-adv-x="804" 
d="M402 -13c-95.333 0 -177 33.833 -245 101.5s-102 149.167 -102 244.5s34 176.833 102 244.5s149.667 101.5 245 101.5s176.833 -33.833 244.5 -101.5s101.5 -149.167 101.5 -244.5s-33.833 -176.833 -101.5 -244.5s-149.167 -101.5 -244.5 -101.5v0zM402 19
c86.667 -0.666992 160.834 29.833 222.501 91.5s92.5 135.834 92.5 222.501s-30.833 160.834 -92.5 222.501s-135.834 92.5 -222.501 92.5s-161 -30.833 -223 -92.5s-93 -135.834 -93 -222.501s31 -160.834 93 -222.501s136.333 -92.5 223 -92.5v1zM549 524
l-0.000976562 -116.002h-16c-7.33301 26.667 -21 48.334 -41 65.001s-44.333 25 -73 25c-45.333 0 -78.333 -17 -99 -51s-31 -71.667 -31 -113c0 -42.667 9.83301 -80.667 29.5 -114s53.834 -50 102.501 -50c29.333 0 55.333 8.5 78 25.5s42 36.833 58 59.5v-35
c-18 -23.333 -39.5 -41.666 -64.5 -54.999s-52.167 -20 -81.5 -20c-53.333 0 -98.166 16.667 -134.499 50s-54.5 77.333 -54.5 132c0 55.333 17.5 101.5 52.5 138.5s80.167 55.5 135.5 55.5c10.667 0 20.667 -1.33301 30 -4l27 -8l24 -9c7.33301 -2.66699 14.333 -4 21 -4
c4 0 7.66699 1.83301 11 5.5s5.66602 7.5 6.99902 11.5c0.666992 1.33301 1.16699 2.83301 1.5 4.5s0.5 3.16699 0.5 4.5l17 2v0z" />
    <glyph glyph-name="ellipsis" unicode="&#xaa;" horiz-adv-x="311" 
d="M311 330v-33h-311v33h311v0zM299 531c0 -40 -14.668 -72.833 -44.001 -98.5s-63 -38.5 -101 -38.5c-40.667 0 -74.5 12.833 -101.5 38.5s-40.5 59.167 -40.5 100.5c0 40.667 14.833 74 44.5 100s63.834 39 102.501 39c41.333 0 75 -13.5 101 -40.5s39 -60.833 39 -101.5
v1zM243.999 526c0 3.33301 -0.165039 7.16797 -0.498047 11.501s-0.833008 8.5 -1.5 12.5c-4 23.333 -13.333 44.666 -28 63.999s-35 29 -61 29c-26.667 0 -47.334 -9.83301 -62.001 -29.5s-22 -41.834 -22 -66.501c0 -5.33301 0.166992 -10.666 0.5 -15.999
s1.16602 -11 2.49902 -17c4 -22.667 12.833 -43.667 26.5 -63s33.5 -29 59.5 -29c29.333 0 51 10.5 65 31.5s21 44.833 21 71.5v1z" />
    <glyph glyph-name="ydieresis" unicode="&#xab;" horiz-adv-x="385" 
d="M195 88l-20 -17l-141 144v9l141 141l20 -19l-88 -128l88 -130v0zM345 88l-20 -17l-141 144v9l141 141l20 -19l-88 -128l88 -130v0z" />
    <glyph glyph-name="emdash" unicode="&#xac;" 
 />
    <glyph glyph-name="uni00AD" unicode="&#xad;" horiz-adv-x="500" 
 />
    <glyph glyph-name="registered" unicode="&#xae;" horiz-adv-x="804" 
d="M402 -13c-95.333 0 -177 33.833 -245 101.5s-102 149.167 -102 244.5s34 176.833 102 244.5s149.667 101.5 245 101.5s176.833 -33.833 244.5 -101.5s101.5 -149.167 101.5 -244.5s-33.833 -176.833 -101.5 -244.5s-149.167 -101.5 -244.5 -101.5v0zM402 19
c86.667 -0.666992 160.834 29.833 222.501 91.5s92.5 135.834 92.5 222.501s-30.833 160.834 -92.5 222.501s-135.834 92.5 -222.501 92.5s-161 -30.833 -223 -92.5s-93 -135.834 -93 -222.501s31 -160.834 93 -222.501s136.333 -92.5 223 -92.5v1zM520 152l-98.9971 173
h-74v-117c0 -13.333 2 -23.333 6 -30s13 -10 27 -10l17 1v-17h-156v17c17.333 -0.666992 29.666 1 36.999 5s11 15 11 33v253c0 12 -1.83301 21.167 -5.5 27.5s-12.834 9.5 -27.501 9.5l-17 1v18h160c6 -0.666992 12 -1.16699 18 -1.5s12 -0.833008 18 -1.5
c28 -2.66699 53.667 -11 77 -25s35 -38.333 35 -73c0 -24 -6.33301 -42.833 -19 -56.5s-29.334 -24.834 -50.001 -33.501l76 -130c5.33301 -9.33301 11.833 -16.166 19.5 -20.499s16.5 -6.5 26.5 -6.5v-16h-80v0zM347.003 342h58c25.333 -0.666992 45.333 4.33301 60 15
s22 30 22 58c0 26 -7.83301 45.5 -23.5 58.5s-35.5 19.5 -59.5 19.5l-57 1v-152v0z" />
    <glyph glyph-name="glyph263" unicode="&#xaf;" 
 />
    <glyph glyph-name="glyph264" unicode="&#xb0;" 
 />
    <glyph glyph-name="mu" unicode="&#xb1;" horiz-adv-x="500" 
d="M22 98h455v-43h-455v43v0zM22 375h205v193h44v-193h206v-43h-206v-190h-44v190h-205v43v0z" />
    <glyph glyph-name="uni00B2" unicode="&#xb2;" 
 />
    <glyph glyph-name="uni00B3" unicode="&#xb3;" 
 />
    <glyph glyph-name="acute" unicode="&#xb4;" horiz-adv-x="500" 
d="M243 661l67 0.00292969c0.666992 -0.666992 1.5 -1 2.5 -1h2.5c2.66699 -0.666992 4.83398 -1.33398 6.50098 -2.00098s2.5 -2.33398 2.5 -5.00098v0c0 -2.66699 -0.666992 -4.83398 -2 -6.50098s-2.66602 -3.5 -3.99902 -5.5
c-0.666992 -1.33301 -1.33398 -2.5 -2.00098 -3.5s-1.33398 -1.83301 -2.00098 -2.5l-116 -155l-23 10l68 171v0z" />
    <glyph glyph-name="oslash" unicode="&#xb5;" horiz-adv-x="549" 
d="M460 457l-0.00390625 -339.997v-8v-11c0 -3.33301 0.333008 -7 1 -11c0.666992 -11.333 3.5 -22 8.5 -32s14.167 -15 27.5 -15c4 0 7.83301 0.5 11.5 1.5s7.16699 2.16699 10.5 3.5c2 0.666992 3.83301 1.5 5.5 2.5s3.5 1.83301 5.5 2.5v-15
c-3.33301 -2.66699 -8.33301 -6 -15 -10l-22 -13c-1.33301 -0.666992 -2.5 -1.33398 -3.5 -2.00098s-2.16699 -1.33398 -3.5 -2.00098c-9.33301 -5.33301 -18.166 -9.83301 -26.499 -13.5s-14.166 -5.5 -17.499 -5.5c-13.333 0 -23.333 5 -30 15s-11.334 21.333 -14.001 34
c-1.33301 6 -2.33301 12 -3 18s-1.33398 11.333 -2.00098 16c-2.66699 -2 -5.16699 -4.33301 -7.5 -7s-4.83301 -5 -7.5 -7c-19.333 -18.667 -40 -35.5 -62 -50.5s-47 -22.5 -75 -22.5c-30.667 0 -54.667 7.66699 -72 23s-30.666 36.666 -39.999 63.999
c0 -17.333 0.666992 -34.333 2 -51s3 -33.334 5 -50.001c0.666992 -4 1.16699 -8 1.5 -12s0.833008 -8 1.5 -12c1.33301 -12.667 2.83301 -25.5 4.5 -38.5s2.83398 -26.167 3.50098 -39.5c0 -2.66699 -0.166992 -5.66699 -0.5 -9s-0.5 -6.33301 -0.5 -9
c-2 -10.667 -5.66699 -20.167 -11 -28.5s-13.666 -12.5 -24.999 -12.5c-12 0 -20.833 4.33301 -26.5 13s-9.16699 18 -10.5 28c-0.666992 2.66699 -1 5.16699 -1 7.5v6.5c4 37.333 8.16699 71.5 12.5 102.5s7.83301 61.833 10.5 92.5c4 32.667 7 66.334 9 101.001
s3 73.334 3 116.001v180h71v-286v-15c0 -4.66699 0.333008 -9.33398 1 -14.001c2 -28 8.83301 -53.5 20.5 -76.5s34.834 -34.5 69.501 -34.5c27.333 0 50.5 8 69.5 24s35.833 34.333 50.5 55v347h71v0z" />
    <glyph glyph-name="paragraph" unicode="&#xb6;" horiz-adv-x="467" 
d="M211 -105l-0.000976562 413.002c-54 -0.666992 -100.667 14.166 -140 44.499s-59 74.5 -59 132.5c0 61.333 19.833 106.666 59.5 135.999s87.834 44 144.501 44l216 1v-26h-47v-745h-36v745h-103v-745h-35v0z" />
    <glyph glyph-name="glyph265" unicode="&#xb7;" 
 />
    <glyph glyph-name="bullet" unicode="&#xb8;" horiz-adv-x="500" 
d="M296 0l-33 -38.001h4h4c16.667 -2 32 -7.66699 46 -17s21 -23.666 21 -42.999c0 -24.667 -9.33301 -43.834 -28 -57.501s-39 -22.5 -61 -26.5c-5.33301 -1.33301 -10.666 -2.16602 -15.999 -2.49902s-10.666 -0.5 -15.999 -0.5c-2.66699 0 -6 0.166992 -10 0.5
s-7.66699 0.833008 -11 1.5c-8 1.33301 -15.167 4 -21.5 8s-9.5 9.66699 -9.5 17v1c0.666992 4.66699 3 8.66699 7 12s8.33301 5 13 5c4 0 8 -0.833008 12 -2.5s8 -3.5 12 -5.5c0.666992 0 1.16699 -0.166992 1.5 -0.5s0.833008 -0.5 1.5 -0.5
c3.33301 -2 6.66602 -3.83301 9.99902 -5.5s7 -2.83398 11 -3.50098c11.333 0 21.166 3.83301 29.499 11.5s12.5 17.167 12.5 28.5c0 12.667 -4.33301 22.334 -13 29.001s-18.667 10 -30 10c-6.66699 0 -13 -0.833008 -19 -2.5s-11.667 -3.83398 -17 -6.50098l-9 19
c13.333 10.667 26 21.834 38 33.501l36 35.5h35v0z" />
    <glyph glyph-name="uni00B9" unicode="&#xb9;" 
 />
    <glyph glyph-name="Agrave" unicode="&#xba;" horiz-adv-x="311" 
d="M311 330v-33h-311v33h311v0zM273 440l10.002 -16.001c-8.66699 -7.33301 -18.334 -13.833 -29.001 -19.5s-21.667 -8.5 -33 -8.5c-10.667 0 -19 3.33301 -25 10s-9.66699 15.334 -11 26.001c-10.667 -10.667 -22.667 -19.834 -36 -27.501s-27.666 -11.5 -42.999 -11.5
c-18.667 0 -34 6 -46 18s-18 27 -18 45c0 18.667 8.33301 33.5 25 44.5s35 19.833 55 26.5c12 4 23.333 7.5 34 10.5s20 5.83301 28 8.5v20v8.5c0 3 -0.333008 6.16699 -1 9.5c-0.666992 12.667 -3.5 24.334 -8.5 35.001s-14.167 16 -27.5 16
c-2.66699 0 -6 -0.333008 -10 -1s-8 -2 -12 -4c-7.33301 -2.66699 -14 -6.16699 -20 -10.5s-9.33301 -9.5 -10 -15.5c-2.66699 -12 -6.16699 -19.333 -10.5 -22s-10.166 -4.66699 -17.499 -6h-2h-2h-0.5h-1.5h-1.5h-0.5l-1 1c-2.66699 -0.666992 -4.5 -0.166992 -5.5 1.5
s-1.5 3.83398 -1.5 6.50098c0 12 5.66699 23.167 17 33.5s24 19.833 38 28.5l25 13.5l20 10.5c33.333 0 55.666 -9 66.999 -27s17 -43 17 -75c0 -8.66699 -0.166992 -17.5 -0.5 -26.5s-0.5 -17.833 -0.5 -26.5s-0.166992 -17.5 -0.5 -26.5s-0.5 -17.833 -0.5 -26.5v-3.5
v-3.5c0.666992 -6.66699 2 -13 4 -19s6.33301 -9 13 -9c3.33301 0 6.16602 0.666992 8.49902 2s4.5 2.66602 6.5 3.99902c1.33301 1.33301 2.66602 2.33301 3.99902 3l4 2v1zM180.002 523.999c-4.66699 -2.66699 -10.167 -5 -16.5 -7l-18.5 -6
c-13.333 -4.66699 -25.333 -10.667 -36 -18s-16 -17.666 -16 -30.999c0 -8.66699 3.5 -16.334 10.5 -23.001s14.833 -10 23.5 -10c10 0 19.167 2.66699 27.5 8s15.833 11.333 22.5 18l1.5 1.5l1.5 1.5v66v0z" />
    <glyph glyph-name="Ydieresis" unicode="&#xbb;" horiz-adv-x="385" 
d="M40 348l20 17l141 -144v-9l-141 -141l-20 18l88 128l-88 131v0zM190 348l20 17l141 -144v-9l-141 -141l-20 18l88 128l-88 131v0z" />
    <glyph glyph-name="onequarter" unicode="&#xbc;" 
 />
    <glyph glyph-name="glyph243" unicode="&#xbd;" horiz-adv-x="737" 
d="M458 635h42l-222 -635h-42l222 635v0zM490 288l-23.002 12c11.333 22.667 27.833 42.667 49.5 60s45.834 26 72.501 26c27.333 0 50.333 -9.16699 69 -27.5s28 -41.166 28 -68.499c0 -13.333 -3 -27.333 -9 -42s-14 -29.334 -24 -44.001
c-9.33301 -14 -20.166 -28.167 -32.499 -42.5s-24.833 -28.166 -37.5 -41.499l-40.5 -40.5l-34.5 -34.5c8 0 16.167 -0.166992 24.5 -0.5s16.5 -0.5 24.5 -0.5h24.5h24.5c17.333 0 33.166 2 47.499 6s25.833 15 34.5 33l24 -5l-38 -78h-26.5h-26.5h-26.5h-26.5h-30h-29h-30
h-30l-9 18l35.5 35.5c13.667 13.667 27.5 28.5 41.5 44.5l34 40c11.333 14 21.666 28 30.999 42c12.667 18.667 22.834 37 30.501 55s11.5 35 11.5 51c0 17.333 -5.83301 31.166 -17.5 41.499s-25.5 15.5 -41.5 15.5c-17.333 0 -32.166 -5.83301 -44.499 -17.5
s-22.5 -24.5 -30.5 -38.5v1zM173.998 650l16.0029 -9.99707c-2 -22 -3.16699 -43.833 -3.5 -65.5s-0.5 -43.167 -0.5 -64.5v-156v-17v-8v-7c0.666992 -6.66699 1.5 -12.834 2.5 -18.501s2.83301 -10.167 5.5 -13.5c3.33301 -4 7.66602 -6.83301 12.999 -8.5
s10.666 -2.5 15.999 -2.5h3.5h2.5l11 1v-26c-6.66699 0 -13.5 0.166992 -20.5 0.5s-13.833 0.5 -20.5 0.5c-6.66699 0.666992 -13.5 1 -20.5 1h-20.5h-20.5c-7 0 -13.833 -0.333008 -20.5 -1c-7.33301 0 -14.333 -0.166992 -21 -0.5s-13.667 -0.833008 -21 -1.5v27
c1.33301 -0.666992 2.83301 -1 4.5 -1s3.16699 0.333008 4.5 1h4.5h4.5h4c1.33301 0 3 0.333008 5 1c5.33301 0.666992 10.666 2 15.999 4s9 6.33301 11 13c1.33301 4 2.33301 8.16699 3 12.5s1 8.83301 1 13.5v6.5v6.5v17v238c-8 -4.66699 -16.167 -8.83398 -24.5 -12.501
s-16.833 -6.83398 -25.5 -9.50098l-13 25c4.66699 1.33301 9.16699 3 13.5 5l12.5 6l39.5 20.5c13 7 25.833 14.5 38.5 22.5v1z" />
    <glyph glyph-name="threequarters" unicode="&#xbe;" 
 />
    <glyph glyph-name="oe" unicode="&#xbf;" horiz-adv-x="314" 
d="M186 246l33.0059 -0.00195312v-171c-2 -0.666992 -3.83301 -1.16699 -5.5 -1.5s-3.5 -0.5 -5.5 -0.5c-30.667 -4.66699 -58.834 -15 -84.501 -31s-38.5 -42 -38.5 -78v-6.5c0 -2.33301 0.333008 -4.5 1 -6.5c2.66699 -26.667 13 -51 31 -73s41.333 -33 70 -33
c5.33301 0 10.5 0.333008 15.5 1s9.83301 2 14.5 4c3.33301 0.666992 6.66602 1.5 9.99902 2.5s6.66602 2.16699 9.99902 3.5c8.66699 0 16 -3.66699 22 -11s10.333 -15.666 13 -24.999c0.666992 -2 1.16699 -4.33301 1.5 -7s0.5 -5.33398 0.5 -8.00098
c0 -8.66699 -3.16699 -15 -9.5 -19s-13.5 -6.66699 -21.5 -8c-2.66699 0 -5.5 -0.166992 -8.5 -0.5s-5.83301 -0.5 -8.5 -0.5c-38.667 0 -74.834 16.667 -108.501 50s-58.5 70 -74.5 110c-5.33301 13.333 -9.33301 26.333 -12 39s-4 24.334 -4 35.001v6.5
c0 2.33301 0.333008 4.5 1 6.5c1.33301 14.667 5.66602 29.167 12.999 43.5s16.666 26.166 27.999 35.499l1.5 1.5c0.333008 0.333008 0.833008 0.5 1.5 0.5c12.667 10.667 25.167 17.834 37.5 21.501s23.833 6.83398 34.5 9.50098c12 3.33301 22 7.83301 30 13.5
s12 17.167 12 34.5v62v0zM142.006 403.998c0 14.667 5.5 27.5 16.5 38.5s24.167 16.5 39.5 16.5s28.333 -5.5 39 -16.5s16 -24.167 16 -39.5c0 -14.667 -5.33301 -27.667 -16 -39s-23.667 -17 -39 -17s-28.5 5.66699 -39.5 17s-16.5 24.333 -16.5 39v1z" />
    <glyph glyph-name="currency" unicode="&#xc0;" horiz-adv-x="640" 
d="M300 660l58.001 25.999l21.5 -73c7 -24 14.5 -47.667 22.5 -71l107 -320l7.5 -25c2.33301 -8 4.83301 -15.667 7.5 -23c5.33301 -16 11 -31.833 17 -47.5s12.333 -31.167 19 -46.5c8 -17.333 18.5 -28.666 31.5 -33.999s28.167 -9.33301 45.5 -12
c0 -0.666992 0.333008 -1 1 -1h2v-33c-19.333 0.666992 -38.833 1.5 -58.5 2.5s-39.167 1.5 -58.5 1.5c-14 0 -28.167 -0.333008 -42.5 -1l-42.5 -2c-5.33301 -0.666992 -10.333 -1 -15 -1h-14v34c1.33301 -0.666992 2.83301 -1 4.5 -1s3.16699 0.333008 4.5 1
c2.66699 0 5.33398 0.166992 8.00098 0.5s5.33398 0.5 8.00098 0.5c9.33301 1.33301 17.833 4 25.5 8s11.5 11 11.5 21c0 2.66699 -0.166992 5.33398 -0.5 8.00098s-0.833008 5.66699 -1.5 9c-0.666992 4.66699 -1.83398 9.66699 -3.50098 15l-4.5 15
c-1.33301 3.33301 -2.5 6.5 -3.5 9.5s-1.83301 5.83301 -2.5 8.5l-44 138h-209l-36 -101c-1.33301 -4.66699 -2.66602 -8.83398 -3.99902 -12.501l-4 -11.5c-4.66699 -12.667 -9 -25.5 -13 -38.5s-6 -25.833 -6 -38.5c0 -10 3.83301 -17.167 11.5 -21.5
s16.167 -7.16602 25.5 -8.49902c4 -0.666992 7.66699 -1.16699 11 -1.5s6.66602 -0.5 9.99902 -0.5h0.5h1.5h1.5h0.5v-33c-17.333 0.666992 -34.833 1.5 -52.5 2.5s-35.167 1.5 -52.5 1.5c-16.667 0 -33.167 -0.5 -49.5 -1.5s-32.5 -1.83301 -48.5 -2.5l-1 34
c2 -0.666992 3.83301 -0.833984 5.5 -0.500977s3.5 0.5 5.5 0.5c6 0.666992 11.667 1.5 17 2.5s10.666 2.5 15.999 4.5s10.666 6.33301 15.999 13s11 14.667 17 24c6 10.667 12 22.5 18 35.5s11.667 26.167 17 39.5c8.66699 21.333 16.5 41.5 23.5 60.5l15.5 42.5l75 200
l19 50.5l20 50.5c6 17.333 12.333 34.5 19 51.5l19 50.5v1zM396.001 313.999l-82 256l-94 -256h176v0zM326.001 862.999l70 -170.999l-21 -10l-124 161l-0.5 0.5l-1.5 1.5c-1.33301 2 -2.5 4 -3.5 6s-1.5 3.66699 -1.5 5s0.833008 2.66602 2.5 3.99902s4.5 2 8.5 2l71 1v0z
" />
    <glyph glyph-name="breve" unicode="&#xc1;" horiz-adv-x="640" 
d="M300 660l58.001 25.999l21.5 -73c7 -24 14.5 -47.667 22.5 -71l107 -320l7.5 -25c2.33301 -8 4.83301 -15.667 7.5 -23c5.33301 -16 11 -31.833 17 -47.5s12.333 -31.167 19 -46.5c8 -17.333 18.5 -28.666 31.5 -33.999s28.167 -9.33301 45.5 -12
c0 -0.666992 0.333008 -1 1 -1h2v-33c-19.333 0.666992 -38.833 1.5 -58.5 2.5s-39.167 1.5 -58.5 1.5c-14 0 -28.167 -0.333008 -42.5 -1l-42.5 -2c-5.33301 -0.666992 -10.333 -1 -15 -1h-14v34c1.33301 -0.666992 2.83301 -1 4.5 -1s3.16699 0.333008 4.5 1
c2.66699 0 5.33398 0.166992 8.00098 0.5s5.33398 0.5 8.00098 0.5c9.33301 1.33301 17.833 4 25.5 8s11.5 11 11.5 21c0 2.66699 -0.166992 5.33398 -0.5 8.00098s-0.833008 5.66699 -1.5 9c-0.666992 4.66699 -1.83398 9.66699 -3.50098 15l-4.5 15
c-1.33301 3.33301 -2.5 6.5 -3.5 9.5s-1.83301 5.83301 -2.5 8.5l-44 138h-209l-36 -101c-1.33301 -4.66699 -2.66602 -8.83398 -3.99902 -12.501l-4 -11.5c-4.66699 -12.667 -9 -25.5 -13 -38.5s-6 -25.833 -6 -38.5c0 -10 3.83301 -17.167 11.5 -21.5
s16.167 -7.16602 25.5 -8.49902c4 -0.666992 7.66699 -1.16699 11 -1.5s6.66602 -0.5 9.99902 -0.5h0.5h1.5h1.5h0.5v-33c-17.333 0.666992 -34.833 1.5 -52.5 2.5s-35.167 1.5 -52.5 1.5c-16.667 0 -33.167 -0.5 -49.5 -1.5s-32.5 -1.83301 -48.5 -2.5l-1 34
c2 -0.666992 3.83301 -0.833984 5.5 -0.500977s3.5 0.5 5.5 0.5c6 0.666992 11.667 1.5 17 2.5s10.666 2.5 15.999 4.5s10.666 6.33301 15.999 13s11 14.667 17 24c6 10.667 12 22.5 18 35.5s11.667 26.167 17 39.5c8.66699 21.333 16.5 41.5 23.5 60.5l15.5 42.5l75 200
l19 50.5l20 50.5c6 17.333 12.333 34.5 19 51.5l19 50.5v1zM396.001 313.999l-82 256l-94 -256h176v0zM314.001 862.999l67 0.00292969c0.666992 -0.666992 1.5 -1 2.5 -1h2.5c2.66699 -0.666992 4.83398 -1.33398 6.50098 -2.00098s2.5 -2.33398 2.5 -5.00098v0
c0 -2.66699 -0.666992 -4.83398 -2 -6.50098s-2.66602 -3.5 -3.99902 -5.5c-0.666992 -1.33301 -1.33398 -2.5 -2.00098 -3.5s-1.33398 -1.83301 -2.00098 -2.5l-116 -155l-23 10l68 171v0z" />
    <glyph glyph-name="tilde" unicode="&#xc2;" horiz-adv-x="640" 
d="M300 660l58.001 25.999l21.5 -73c7 -24 14.5 -47.667 22.5 -71l107 -320l7.5 -25c2.33301 -8 4.83301 -15.667 7.5 -23c5.33301 -16 11 -31.833 17 -47.5s12.333 -31.167 19 -46.5c8 -17.333 18.5 -28.666 31.5 -33.999s28.167 -9.33301 45.5 -12
c0 -0.666992 0.333008 -1 1 -1h2v-33c-19.333 0.666992 -38.833 1.5 -58.5 2.5s-39.167 1.5 -58.5 1.5c-14 0 -28.167 -0.333008 -42.5 -1l-42.5 -2c-5.33301 -0.666992 -10.333 -1 -15 -1h-14v34c1.33301 -0.666992 2.83301 -1 4.5 -1s3.16699 0.333008 4.5 1
c2.66699 0 5.33398 0.166992 8.00098 0.5s5.33398 0.5 8.00098 0.5c9.33301 1.33301 17.833 4 25.5 8s11.5 11 11.5 21c0 2.66699 -0.166992 5.33398 -0.5 8.00098s-0.833008 5.66699 -1.5 9c-0.666992 4.66699 -1.83398 9.66699 -3.50098 15l-4.5 15
c-1.33301 3.33301 -2.5 6.5 -3.5 9.5s-1.83301 5.83301 -2.5 8.5l-44 138h-209l-36 -101c-1.33301 -4.66699 -2.66602 -8.83398 -3.99902 -12.501l-4 -11.5c-4.66699 -12.667 -9 -25.5 -13 -38.5s-6 -25.833 -6 -38.5c0 -10 3.83301 -17.167 11.5 -21.5
s16.167 -7.16602 25.5 -8.49902c4 -0.666992 7.66699 -1.16699 11 -1.5s6.66602 -0.5 9.99902 -0.5h0.5h1.5h1.5h0.5v-33c-17.333 0.666992 -34.833 1.5 -52.5 2.5s-35.167 1.5 -52.5 1.5c-16.667 0 -33.167 -0.5 -49.5 -1.5s-32.5 -1.83301 -48.5 -2.5l-1 34
c2 -0.666992 3.83301 -0.833984 5.5 -0.500977s3.5 0.5 5.5 0.5c6 0.666992 11.667 1.5 17 2.5s10.666 2.5 15.999 4.5s10.666 6.33301 15.999 13s11 14.667 17 24c6 10.667 12 22.5 18 35.5s11.667 26.167 17 39.5c8.66699 21.333 16.5 41.5 23.5 60.5l15.5 42.5l75 200
l19 50.5l20 50.5c6 17.333 12.333 34.5 19 51.5l19 50.5v1zM396.001 313.999l-82 256l-94 -256h176v0zM294.001 866.999h51l86 -179l-18 -11l-95 116l-91 -116l-17 11l84 179v0z" />
    <glyph glyph-name="guilsinglleft" unicode="&#xc3;" horiz-adv-x="640" 
d="M300 660l58.001 25.999l21.5 -73c7 -24 14.5 -47.667 22.5 -71l107 -320l7.5 -25c2.33301 -8 4.83301 -15.667 7.5 -23c5.33301 -16 11 -31.833 17 -47.5s12.333 -31.167 19 -46.5c8 -17.333 18.5 -28.666 31.5 -33.999s28.167 -9.33301 45.5 -12
c0 -0.666992 0.333008 -1 1 -1h2v-33c-19.333 0.666992 -38.833 1.5 -58.5 2.5s-39.167 1.5 -58.5 1.5c-14 0 -28.167 -0.333008 -42.5 -1l-42.5 -2c-5.33301 -0.666992 -10.333 -1 -15 -1h-14v34c1.33301 -0.666992 2.83301 -1 4.5 -1s3.16699 0.333008 4.5 1
c2.66699 0 5.33398 0.166992 8.00098 0.5s5.33398 0.5 8.00098 0.5c9.33301 1.33301 17.833 4 25.5 8s11.5 11 11.5 21c0 2.66699 -0.166992 5.33398 -0.5 8.00098s-0.833008 5.66699 -1.5 9c-0.666992 4.66699 -1.83398 9.66699 -3.50098 15l-4.5 15
c-1.33301 3.33301 -2.5 6.5 -3.5 9.5s-1.83301 5.83301 -2.5 8.5l-44 138h-209l-36 -101c-1.33301 -4.66699 -2.66602 -8.83398 -3.99902 -12.501l-4 -11.5c-4.66699 -12.667 -9 -25.5 -13 -38.5s-6 -25.833 -6 -38.5c0 -10 3.83301 -17.167 11.5 -21.5
s16.167 -7.16602 25.5 -8.49902c4 -0.666992 7.66699 -1.16699 11 -1.5s6.66602 -0.5 9.99902 -0.5h0.5h1.5h1.5h0.5v-33c-17.333 0.666992 -34.833 1.5 -52.5 2.5s-35.167 1.5 -52.5 1.5c-16.667 0 -33.167 -0.5 -49.5 -1.5s-32.5 -1.83301 -48.5 -2.5l-1 34
c2 -0.666992 3.83301 -0.833984 5.5 -0.500977s3.5 0.5 5.5 0.5c6 0.666992 11.667 1.5 17 2.5s10.666 2.5 15.999 4.5s10.666 6.33301 15.999 13s11 14.667 17 24c6 10.667 12 22.5 18 35.5s11.667 26.167 17 39.5c8.66699 21.333 16.5 41.5 23.5 60.5l15.5 42.5l75 200
l19 50.5l20 50.5c6 17.333 12.333 34.5 19 51.5l19 50.5v1zM396.001 313.999l-82 256l-94 -256h176v0zM428.001 825.999l22.9951 0.00195312c0 -6 -0.5 -12 -1.5 -18s-2.16699 -12.333 -3.5 -19c-3.33301 -16 -9.66602 -30.667 -18.999 -44s-22.666 -20 -39.999 -20
c-10.667 0 -21.667 2 -33 6s-22.666 8.33301 -33.999 13l-35 12c-12 4 -24 6 -36 6c-10.667 0 -18.667 -4 -24 -12s-8.66602 -16.667 -9.99902 -26l-25 1c0 3.33301 0.333008 7.16602 1 11.499l2 12.5c2.66699 19.333 8.5 36.833 17.5 52.5s24.833 23.5 47.5 23.5
c12 0 23.667 -2 35 -6s22.666 -8.33301 33.999 -13c0.666992 -0.666992 1.33398 -1.16699 2.00098 -1.5s1.33398 -0.5 2.00098 -0.5c10 -4.66699 20.333 -8.83398 31 -12.501s21.667 -5.5 33 -5.5c8.66699 0 15.5 3.33301 20.5 10s8.83301 14 11.5 22
c0 1.33301 0.166992 2.5 0.5 3.5s0.5 2.16699 0.5 3.5v1z" />
    <glyph glyph-name="Adieresis" unicode="&#xc4;" horiz-adv-x="640" 
d="M300 660l58.001 25.999l21.5 -73c7 -24 14.5 -47.667 22.5 -71l107 -320l7.5 -25c2.33301 -8 4.83301 -15.667 7.5 -23c5.33301 -16 11 -31.833 17 -47.5s12.333 -31.167 19 -46.5c8 -17.333 18.5 -28.666 31.5 -33.999s28.167 -9.33301 45.5 -12
c0 -0.666992 0.333008 -1 1 -1h2v-33c-19.333 0.666992 -38.833 1.5 -58.5 2.5s-39.167 1.5 -58.5 1.5c-14 0 -28.167 -0.333008 -42.5 -1l-42.5 -2c-5.33301 -0.666992 -10.333 -1 -15 -1h-14v34c1.33301 -0.666992 2.83301 -1 4.5 -1s3.16699 0.333008 4.5 1
c2.66699 0 5.33398 0.166992 8.00098 0.5s5.33398 0.5 8.00098 0.5c9.33301 1.33301 17.833 4 25.5 8s11.5 11 11.5 21c0 2.66699 -0.166992 5.33398 -0.5 8.00098s-0.833008 5.66699 -1.5 9c-0.666992 4.66699 -1.83398 9.66699 -3.50098 15l-4.5 15
c-1.33301 3.33301 -2.5 6.5 -3.5 9.5s-1.83301 5.83301 -2.5 8.5l-44 138h-209l-36 -101c-1.33301 -4.66699 -2.66602 -8.83398 -3.99902 -12.501l-4 -11.5c-4.66699 -12.667 -9 -25.5 -13 -38.5s-6 -25.833 -6 -38.5c0 -10 3.83301 -17.167 11.5 -21.5
s16.167 -7.16602 25.5 -8.49902c4 -0.666992 7.66699 -1.16699 11 -1.5s6.66602 -0.5 9.99902 -0.5h0.5h1.5h1.5h0.5v-33c-17.333 0.666992 -34.833 1.5 -52.5 2.5s-35.167 1.5 -52.5 1.5c-16.667 0 -33.167 -0.5 -49.5 -1.5s-32.5 -1.83301 -48.5 -2.5l-1 34
c2 -0.666992 3.83301 -0.833984 5.5 -0.500977s3.5 0.5 5.5 0.5c6 0.666992 11.667 1.5 17 2.5s10.666 2.5 15.999 4.5s10.666 6.33301 15.999 13s11 14.667 17 24c6 10.667 12 22.5 18 35.5s11.667 26.167 17 39.5c8.66699 21.333 16.5 41.5 23.5 60.5l15.5 42.5l75 200
l19 50.5l20 50.5c6 17.333 12.333 34.5 19 51.5l19 50.5v1zM396.001 313.999l-82 256l-94 -256h176v0zM285.001 779.999c0 -13.333 -4.49805 -24.5 -13.498 -33.5s-19.833 -13.5 -32.5 -13.5s-24.167 4.33301 -34.5 13s-15.5 19.334 -15.5 32.001
c0 13.333 4.66699 25.166 14 35.499s20.666 15.5 33.999 15.5s24.666 -5 33.999 -15s14 -21.667 14 -35v1zM451.003 779.999c0 -13.333 -4.49902 -24.5 -13.499 -33.5s-19.833 -13.5 -32.5 -13.5s-24 4.33301 -34 13s-15 19.334 -15 32.001
c0 13.333 4.66699 25.166 14 35.499s20.666 15.5 33.999 15.5s24.5 -5 33.5 -15s13.5 -21.667 13.5 -35v1z" />
    <glyph glyph-name="Aring" unicode="&#xc5;" horiz-adv-x="640" 
d="M300 660l58.001 25.999l21.5 -73c7 -24 14.5 -47.667 22.5 -71l107 -320l7.5 -25c2.33301 -8 4.83301 -15.667 7.5 -23c5.33301 -16 11 -31.833 17 -47.5s12.333 -31.167 19 -46.5c8 -17.333 18.5 -28.666 31.5 -33.999s28.167 -9.33301 45.5 -12
c0 -0.666992 0.333008 -1 1 -1h2v-33c-19.333 0.666992 -38.833 1.5 -58.5 2.5s-39.167 1.5 -58.5 1.5c-14 0 -28.167 -0.333008 -42.5 -1l-42.5 -2c-5.33301 -0.666992 -10.333 -1 -15 -1h-14v34c1.33301 -0.666992 2.83301 -1 4.5 -1s3.16699 0.333008 4.5 1
c2.66699 0 5.33398 0.166992 8.00098 0.5s5.33398 0.5 8.00098 0.5c9.33301 1.33301 17.833 4 25.5 8s11.5 11 11.5 21c0 2.66699 -0.166992 5.33398 -0.5 8.00098s-0.833008 5.66699 -1.5 9c-0.666992 4.66699 -1.83398 9.66699 -3.50098 15l-4.5 15
c-1.33301 3.33301 -2.5 6.5 -3.5 9.5s-1.83301 5.83301 -2.5 8.5l-44 138h-209l-36 -101c-1.33301 -4.66699 -2.66602 -8.83398 -3.99902 -12.501l-4 -11.5c-4.66699 -12.667 -9 -25.5 -13 -38.5s-6 -25.833 -6 -38.5c0 -10 3.83301 -17.167 11.5 -21.5
s16.167 -7.16602 25.5 -8.49902c4 -0.666992 7.66699 -1.16699 11 -1.5s6.66602 -0.5 9.99902 -0.5h0.5h1.5h1.5h0.5v-33c-17.333 0.666992 -34.833 1.5 -52.5 2.5s-35.167 1.5 -52.5 1.5c-16.667 0 -33.167 -0.5 -49.5 -1.5s-32.5 -1.83301 -48.5 -2.5l-1 34
c2 -0.666992 3.83301 -0.833984 5.5 -0.500977s3.5 0.5 5.5 0.5c6 0.666992 11.667 1.5 17 2.5s10.666 2.5 15.999 4.5s10.666 6.33301 15.999 13s11 14.667 17 24c6 10.667 12 22.5 18 35.5s11.667 26.167 17 39.5c8.66699 21.333 16.5 41.5 23.5 60.5l15.5 42.5l75 200
l19 50.5l20 50.5c6 17.333 12.333 34.5 19 51.5l19 50.5v1zM396.001 313.999l-82 256l-94 -256h176v0zM398.001 790.999c0 -21.333 -7.66895 -39.833 -23.002 -55.5s-33.666 -23.5 -54.999 -23.5s-39.666 7.83301 -54.999 23.5s-23 34.167 -23 55.5s7.83301 39.333 23.5 54
s33.834 22 54.501 22c21.333 0 39.666 -7.5 54.999 -22.5s23 -33.167 23 -54.5v1zM364.999 792.999c0 11.333 -4.50098 21.333 -13.501 30s-19.5 13 -31.5 13s-22.667 -4.16699 -32 -12.5s-14 -18.833 -14 -31.5s4.33301 -23.834 13 -33.501s19.334 -14.5 32.001 -14.5
s23.5 4.83301 32.5 14.5s13.5 20.834 13.5 33.501v1z" />
    <glyph glyph-name="Oslash" unicode="&#xc6;" horiz-adv-x="846" 
d="M246 634l-0.00292969 32.998c42 -3.33301 84 -5.33301 126 -6s84.333 -1 127 -1c43.333 0 86.833 0.333008 130.5 1s87.167 2.33398 130.5 5.00098c1.33301 -22.667 3 -45.334 5 -68.001s4.66699 -45.334 8 -68.001l-35 -6c-7.33301 39.333 -19.833 65.666 -37.5 78.999
s-49.167 20 -94.5 20c-7.33301 0 -14.666 -0.166992 -21.999 -0.5s-14.666 -0.5 -21.999 -0.5s-14.666 -0.166992 -21.999 -0.5s-14.666 -0.5 -21.999 -0.5h-3h-3c-4 0 -8 -0.5 -12 -1.5s-6.66699 -2.16699 -8 -3.5c-1.33301 -2 -2.5 -4.83301 -3.5 -8.5
s-1.5 -7.16699 -1.5 -10.5v-3v-2v-14c0 -4.66699 0.333008 -9.33398 1 -14.001v-14v-14v-175h94c37.333 -0.666992 64.333 3.66602 81 12.999s25 33 25 71l37 1c-1.33301 -17.333 -2.5 -34.166 -3.5 -50.499s-1.5 -32.833 -1.5 -49.5s0.5 -33.5 1.5 -50.5
s2.16699 -34.167 3.5 -51.5l-37 1c-2 26.667 -7.16699 46 -15.5 58s-27.5 18 -57.5 18l-127 1v-148v-42c0 -38.667 5.66699 -63.334 17 -74.001s43.333 -16 96 -16c54 0 95.667 4.66699 125 14s52.333 41.333 69 96l34 -8l-34 -144h-28.5
c-9.66699 0 -19.167 0.333008 -28.5 1c-9.33301 0 -18.666 0.166992 -27.999 0.5s-18.666 0.5 -27.999 0.5c-19.333 0.666992 -38.333 1.16699 -57 1.5s-37.667 0.5 -57 0.5c-40.667 0 -81.334 -0.333008 -122.001 -1s-81.334 -1.66699 -122.001 -3v35
c25.333 -0.666992 44.833 2.5 58.5 9.5s20.834 24.5 21.501 52.5l1 67v158h-165l-45 -98c-3.33301 -9.33301 -7.16602 -18.666 -11.499 -27.999l-13.5 -30l-6 -13.5l-6 -13.5c-5.33301 -13.333 -10 -26.666 -14 -39.999s-6 -25.666 -6 -36.999c0 -12 4 -20 12 -24
s17 -6.33301 27 -7c3.33301 -0.666992 6.5 -1 9.5 -1h8.5v-30c-16.667 0.666992 -33.834 1.5 -51.501 2.5s-35.167 1.5 -52.5 1.5s-34.833 -0.5 -52.5 -1.5s-34.834 -1.83301 -51.501 -2.5l-1 31c25.333 2.66699 44 8 56 16s22.333 20 31 36
c3.33301 6 6.83301 12.833 10.5 20.5s7.83398 15.834 12.501 24.501l36 73l114 236c3.33301 6 7.83301 15 13.5 27l18.5 38c1.33301 2.66699 2.66602 5.5 3.99902 8.5s2.66602 5.83301 3.99902 8.5l20 50.5c6 15.667 9 27.5 9 35.5c0 10.667 -4.5 17.834 -13.5 21.501
s-18.833 5.83398 -29.5 6.50098h-7.5h-7.5l-11 1v0zM404.997 360.998v262h-30l-117 -262h147v0z" />
    <glyph glyph-name="Ccedilla" unicode="&#xc7;" horiz-adv-x="679" 
d="M645 487l-33.001 -5c-16 54.667 -40.167 93.667 -72.5 117s-77.5 35 -135.5 35c-86 0 -152.167 -31 -198.5 -93s-69.5 -133 -69.5 -213c0 -80.667 24.5 -150.334 73.5 -209.001s115.5 -88 199.5 -88c62.667 0 109.834 13.333 141.501 40s55.167 69 70.5 127l35 -1
l-23 -155c-30 -15.333 -61.167 -27 -93.5 -35s-64.833 -14 -97.5 -18c-4 0 -8.16699 -0.333008 -12.5 -1s-8.5 -1 -12.5 -1l-22 -25c2 0 4 -0.166992 6 -0.5s4 -0.5 6 -0.5c15.333 -2 29.666 -7.66699 42.999 -17s20 -23.333 20 -42c0 -25.333 -9.5 -44.666 -28.5 -57.999
s-39.833 -22 -62.5 -26c-5.33301 -1.33301 -10.666 -2.16602 -15.999 -2.49902s-10.333 -0.5 -15 -0.5c-2.66699 0 -5.83398 0.166992 -9.50098 0.5s-7.5 0.833008 -11.5 1.5c-7.33301 1.33301 -14.166 3.83301 -20.499 7.5s-9.5 9.5 -9.5 17.5v1
c0.666992 4.66699 3 8.66699 7 12s8.33301 5 13 5c4 0 7.66699 -0.666992 11 -2s6.66602 -3 9.99902 -5c0.666992 -0.666992 1.33398 -1.16699 2.00098 -1.5l1 -0.5l11.5 -6c3.66699 -2 7.83398 -3 12.501 -3c11.333 0 21.166 3.83301 29.499 11.5s12.5 17.167 12.5 28.5
c0 12.667 -4.33301 22.334 -13 29.001s-19 10 -31 10c-6 0 -12 -0.833008 -18 -2.5s-12 -3.83398 -18 -6.50098l-8 19c11.333 8.66699 22 17.834 32 27.501l30 29.5c-100 4.66699 -181.833 37 -245.5 97s-95.5 141.333 -95.5 244c0 103.333 35 187 105 251
s155.333 96 256 96c30.667 0 60.5 -3.33301 89.5 -10s58.167 -14 87.5 -22c2 -0.666992 4.16699 -1.33398 6.5 -2.00098s4.83301 -1.33398 7.5 -2.00098c6 -2 12.167 -3.83301 18.5 -5.5s12.5 -3.16699 18.5 -4.5l16 -143v0z" />
    <glyph glyph-name="ring" unicode="&#xc8;" horiz-adv-x="574" 
d="M501 530l-35.0039 -7.99902l-0.5 1c-0.333008 0.666992 -0.5 1.33398 -0.5 2.00098l-2 10.5l-2 10.5c-2 10 -5 19.5 -9 28.5s-9.66699 16.5 -17 22.5c-10 8.66699 -22.167 14.667 -36.5 18s-28.833 5.66602 -43.5 6.99902c-7.33301 0.666992 -14.666 1 -21.999 1h-21
h-17.5h-16.5c-6 -0.666992 -11.833 -1 -17.5 -1h-17.5c-14 0 -23.333 -1.33301 -28 -4s-7 -11 -7 -25v-230h105c35.333 -0.666992 61.333 3.16602 78 11.499s25 31.166 25 68.499l35 1c-0.666992 -17.333 -1.16699 -34.333 -1.5 -51s-0.5 -33.667 -0.5 -51
c0 -8 0.166992 -16.167 0.5 -24.5s0.5 -16.5 0.5 -24.5l2 -24.5l2 -24.5l-38 1c-1.33301 38.667 -10 61.167 -26 67.5s-42.667 9.5 -80 9.5l-102 1v-137v-38v-11v-10c0.666992 -12.667 1.5 -24.834 2.5 -36.501s3.16699 -20.167 6.5 -25.5
c4 -6.66699 9.5 -11.334 16.5 -14.001s14.167 -4.66699 21.5 -6c12 -2 24 -3.16699 36 -3.5s24 -0.5 36 -0.5l29 1c50 -0.666992 86.833 4.83301 110.5 16.5s42.5 42.834 56.5 93.501l34 -8l-34 -144c-20 0 -40.167 0.333008 -60.5 1l-60.5 2
c-20 0 -40.167 0.166992 -60.5 0.5s-40.5 0.5 -60.5 0.5h-114c-20.667 -1.33301 -41.167 -2.16602 -61.5 -2.49902s-41.166 -0.833008 -62.499 -1.5v35c25.333 -0.666992 44.666 2.5 57.999 9.5s20.333 24.5 21 52.5l1 67v339l-1 65
c-0.666992 28.667 -7.66699 46.334 -21 53.001s-32.666 10 -57.999 10v36c18.667 -2 37.334 -3.33301 56.001 -4s37.334 -1 56.001 -1c18 -0.666992 36.333 -1 55 -1h56c18.667 0 37.167 0.166992 55.5 0.5s36.833 0.5 55.5 0.5l54.5 2l55.5 2l14 -136v0zM292.996 863.001
l70 -170.999l-21 -10l-124 161l-0.5 0.5l-1.5 1.5c-1.33301 2 -2.5 4 -3.5 6s-1.5 3.66699 -1.5 5s0.833008 2.66602 2.5 3.99902s4.5 2 8.5 2l71 1v0z" />
    <glyph glyph-name="Eacute" unicode="&#xc9;" horiz-adv-x="574" 
d="M501 530l-35.0039 -7.99902l-0.5 1c-0.333008 0.666992 -0.5 1.33398 -0.5 2.00098l-2 10.5l-2 10.5c-2 10 -5 19.5 -9 28.5s-9.66699 16.5 -17 22.5c-10 8.66699 -22.167 14.667 -36.5 18s-28.833 5.66602 -43.5 6.99902c-7.33301 0.666992 -14.666 1 -21.999 1h-21
h-17.5h-16.5c-6 -0.666992 -11.833 -1 -17.5 -1h-17.5c-14 0 -23.333 -1.33301 -28 -4s-7 -11 -7 -25v-230h105c35.333 -0.666992 61.333 3.16602 78 11.499s25 31.166 25 68.499l35 1c-0.666992 -17.333 -1.16699 -34.333 -1.5 -51s-0.5 -33.667 -0.5 -51
c0 -8 0.166992 -16.167 0.5 -24.5s0.5 -16.5 0.5 -24.5l2 -24.5l2 -24.5l-38 1c-1.33301 38.667 -10 61.167 -26 67.5s-42.667 9.5 -80 9.5l-102 1v-137v-38v-11v-10c0.666992 -12.667 1.5 -24.834 2.5 -36.501s3.16699 -20.167 6.5 -25.5
c4 -6.66699 9.5 -11.334 16.5 -14.001s14.167 -4.66699 21.5 -6c12 -2 24 -3.16699 36 -3.5s24 -0.5 36 -0.5l29 1c50 -0.666992 86.833 4.83301 110.5 16.5s42.5 42.834 56.5 93.501l34 -8l-34 -144c-20 0 -40.167 0.333008 -60.5 1l-60.5 2
c-20 0 -40.167 0.166992 -60.5 0.5s-40.5 0.5 -60.5 0.5h-114c-20.667 -1.33301 -41.167 -2.16602 -61.5 -2.49902s-41.166 -0.833008 -62.499 -1.5v35c25.333 -0.666992 44.666 2.5 57.999 9.5s20.333 24.5 21 52.5l1 67v339l-1 65
c-0.666992 28.667 -7.66699 46.334 -21 53.001s-32.666 10 -57.999 10v36c18.667 -2 37.334 -3.33301 56.001 -4s37.334 -1 56.001 -1c18 -0.666992 36.333 -1 55 -1h56c18.667 0 37.167 0.166992 55.5 0.5s36.833 0.5 55.5 0.5l54.5 2l55.5 2l14 -136v0zM280.996 863.001
l67 0.00292969c0.666992 -0.666992 1.5 -1 2.5 -1h2.5c2.66699 -0.666992 4.83398 -1.33398 6.50098 -2.00098s2.5 -2.33398 2.5 -5.00098v0c0 -2.66699 -0.666992 -4.83398 -2 -6.50098s-2.66602 -3.5 -3.99902 -5.5c-0.666992 -1.33301 -1.33398 -2.5 -2.00098 -3.5
s-1.33398 -1.83301 -2.00098 -2.5l-116 -155l-23 10l68 171v0z" />
    <glyph glyph-name="macron" unicode="&#xca;" horiz-adv-x="574" 
d="M501 530l-35.0039 -7.99902l-0.5 1c-0.333008 0.666992 -0.5 1.33398 -0.5 2.00098l-2 10.5l-2 10.5c-2 10 -5 19.5 -9 28.5s-9.66699 16.5 -17 22.5c-10 8.66699 -22.167 14.667 -36.5 18s-28.833 5.66602 -43.5 6.99902c-7.33301 0.666992 -14.666 1 -21.999 1h-21
h-17.5h-16.5c-6 -0.666992 -11.833 -1 -17.5 -1h-17.5c-14 0 -23.333 -1.33301 -28 -4s-7 -11 -7 -25v-230h105c35.333 -0.666992 61.333 3.16602 78 11.499s25 31.166 25 68.499l35 1c-0.666992 -17.333 -1.16699 -34.333 -1.5 -51s-0.5 -33.667 -0.5 -51
c0 -8 0.166992 -16.167 0.5 -24.5s0.5 -16.5 0.5 -24.5l2 -24.5l2 -24.5l-38 1c-1.33301 38.667 -10 61.167 -26 67.5s-42.667 9.5 -80 9.5l-102 1v-137v-38v-11v-10c0.666992 -12.667 1.5 -24.834 2.5 -36.501s3.16699 -20.167 6.5 -25.5
c4 -6.66699 9.5 -11.334 16.5 -14.001s14.167 -4.66699 21.5 -6c12 -2 24 -3.16699 36 -3.5s24 -0.5 36 -0.5l29 1c50 -0.666992 86.833 4.83301 110.5 16.5s42.5 42.834 56.5 93.501l34 -8l-34 -144c-20 0 -40.167 0.333008 -60.5 1l-60.5 2
c-20 0 -40.167 0.166992 -60.5 0.5s-40.5 0.5 -60.5 0.5h-114c-20.667 -1.33301 -41.167 -2.16602 -61.5 -2.49902s-41.166 -0.833008 -62.499 -1.5v35c25.333 -0.666992 44.666 2.5 57.999 9.5s20.333 24.5 21 52.5l1 67v339l-1 65
c-0.666992 28.667 -7.66699 46.334 -21 53.001s-32.666 10 -57.999 10v36c18.667 -2 37.334 -3.33301 56.001 -4s37.334 -1 56.001 -1c18 -0.666992 36.333 -1 55 -1h56c18.667 0 37.167 0.166992 55.5 0.5s36.833 0.5 55.5 0.5l54.5 2l55.5 2l14 -136v0zM260.996 867.001
h51l86 -179l-18 -11l-95 116l-91 -116l-17 11l84 179v0z" />
    <glyph glyph-name="dotaccent" unicode="&#xcb;" horiz-adv-x="574" 
d="M501 530l-35.0039 -7.99902l-0.5 1c-0.333008 0.666992 -0.5 1.33398 -0.5 2.00098l-2 10.5l-2 10.5c-2 10 -5 19.5 -9 28.5s-9.66699 16.5 -17 22.5c-10 8.66699 -22.167 14.667 -36.5 18s-28.833 5.66602 -43.5 6.99902c-7.33301 0.666992 -14.666 1 -21.999 1h-21
h-17.5h-16.5c-6 -0.666992 -11.833 -1 -17.5 -1h-17.5c-14 0 -23.333 -1.33301 -28 -4s-7 -11 -7 -25v-230h105c35.333 -0.666992 61.333 3.16602 78 11.499s25 31.166 25 68.499l35 1c-0.666992 -17.333 -1.16699 -34.333 -1.5 -51s-0.5 -33.667 -0.5 -51
c0 -8 0.166992 -16.167 0.5 -24.5s0.5 -16.5 0.5 -24.5l2 -24.5l2 -24.5l-38 1c-1.33301 38.667 -10 61.167 -26 67.5s-42.667 9.5 -80 9.5l-102 1v-137v-38v-11v-10c0.666992 -12.667 1.5 -24.834 2.5 -36.501s3.16699 -20.167 6.5 -25.5
c4 -6.66699 9.5 -11.334 16.5 -14.001s14.167 -4.66699 21.5 -6c12 -2 24 -3.16699 36 -3.5s24 -0.5 36 -0.5l29 1c50 -0.666992 86.833 4.83301 110.5 16.5s42.5 42.834 56.5 93.501l34 -8l-34 -144c-20 0 -40.167 0.333008 -60.5 1l-60.5 2
c-20 0 -40.167 0.166992 -60.5 0.5s-40.5 0.5 -60.5 0.5h-114c-20.667 -1.33301 -41.167 -2.16602 -61.5 -2.49902s-41.166 -0.833008 -62.499 -1.5v35c25.333 -0.666992 44.666 2.5 57.999 9.5s20.333 24.5 21 52.5l1 67v339l-1 65
c-0.666992 28.667 -7.66699 46.334 -21 53.001s-32.666 10 -57.999 10v36c18.667 -2 37.334 -3.33301 56.001 -4s37.334 -1 56.001 -1c18 -0.666992 36.333 -1 55 -1h56c18.667 0 37.167 0.166992 55.5 0.5s36.833 0.5 55.5 0.5l54.5 2l55.5 2l14 -136v0zM251.996 780.001
c0 -13.333 -4.49805 -24.5 -13.498 -33.5s-19.833 -13.5 -32.5 -13.5s-24.167 4.33301 -34.5 13s-15.5 19.334 -15.5 32.001c0 13.333 4.66699 25.166 14 35.499s20.666 15.5 33.999 15.5s24.666 -5 33.999 -15s14 -21.667 14 -35v1zM417.998 780.001
c0 -13.333 -4.49902 -24.5 -13.499 -33.5s-19.833 -13.5 -32.5 -13.5s-24 4.33301 -34 13s-15 19.334 -15 32.001c0 13.333 4.66699 25.166 14 35.499s20.666 15.5 33.999 15.5s24.5 -5 33.5 -15s13.5 -21.667 13.5 -35v1z" />
    <glyph glyph-name="caron" unicode="&#xcc;" horiz-adv-x="328" 
d="M42 632l0.000976562 34.998c10 -1.33301 20.167 -2.33301 30.5 -3l31.5 -2c10.667 -0.666992 21.167 -1 31.5 -1h30.5c20.667 0 41 0.5 61 1.5s40 2.16699 60 3.5v-34h-12c-24 -0.666992 -41.333 -5.16699 -52 -13.5s-16.334 -25.5 -17.001 -51.5l-1 -64v-339l1 -66
c0.666992 -29.333 8.16699 -47.333 22.5 -54s33.833 -10 58.5 -10v-34c-10 0 -20.167 0.333008 -30.5 1l-30.5 2c-10 0 -20.167 0.166992 -30.5 0.5s-20.5 0.5 -30.5 0.5c-20.667 0 -41.167 -0.5 -61.5 -1.5s-40.833 -1.83301 -61.5 -2.5v35
c25.333 -0.666992 45 2.33301 59 9s21.333 24.334 22 53.001l1 67v339l-1 65c-0.666992 28.667 -8 46.334 -22 53.001s-33.667 10 -59 10v1zM170.001 862.998l70 -170.999l-21 -10l-124 161l-0.5 0.5l-1.5 1.5c-1.33301 2 -2.5 4 -3.5 6s-1.5 3.66699 -1.5 5
s0.833008 2.66602 2.5 3.99902s4.5 2 8.5 2l71 1v0z" />
    <glyph glyph-name="cedilla" unicode="&#xcd;" horiz-adv-x="328" 
d="M42 632l0.000976562 34.998c10 -1.33301 20.167 -2.33301 30.5 -3l31.5 -2c10.667 -0.666992 21.167 -1 31.5 -1h30.5c20.667 0 41 0.5 61 1.5s40 2.16699 60 3.5v-34h-12c-24 -0.666992 -41.333 -5.16699 -52 -13.5s-16.334 -25.5 -17.001 -51.5l-1 -64v-339l1 -66
c0.666992 -29.333 8.16699 -47.333 22.5 -54s33.833 -10 58.5 -10v-34c-10 0 -20.167 0.333008 -30.5 1l-30.5 2c-10 0 -20.167 0.166992 -30.5 0.5s-20.5 0.5 -30.5 0.5c-20.667 0 -41.167 -0.5 -61.5 -1.5s-40.833 -1.83301 -61.5 -2.5v35
c25.333 -0.666992 45 2.33301 59 9s21.333 24.334 22 53.001l1 67v339l-1 65c-0.666992 28.667 -8 46.334 -22 53.001s-33.667 10 -59 10v1zM159.001 862.998l67 0.00292969c0.666992 -0.666992 1.5 -1 2.5 -1h2.5c2.66699 -0.666992 4.83398 -1.33398 6.50098 -2.00098
s2.5 -2.33398 2.5 -5.00098v0c0 -2.66699 -0.666992 -4.83398 -2 -6.50098s-2.66602 -3.5 -3.99902 -5.5c-0.666992 -1.33301 -1.33398 -2.5 -2.00098 -3.5s-1.33398 -1.83301 -2.00098 -2.5l-116 -155l-23 10l68 171v0z" />
    <glyph glyph-name="hungarumlaut" unicode="&#xce;" horiz-adv-x="328" 
d="M42 632l0.000976562 34.998c10 -1.33301 20.167 -2.33301 30.5 -3l31.5 -2c10.667 -0.666992 21.167 -1 31.5 -1h30.5c20.667 0 41 0.5 61 1.5s40 2.16699 60 3.5v-34h-12c-24 -0.666992 -41.333 -5.16699 -52 -13.5s-16.334 -25.5 -17.001 -51.5l-1 -64v-339l1 -66
c0.666992 -29.333 8.16699 -47.333 22.5 -54s33.833 -10 58.5 -10v-34c-10 0 -20.167 0.333008 -30.5 1l-30.5 2c-10 0 -20.167 0.166992 -30.5 0.5s-20.5 0.5 -30.5 0.5c-20.667 0 -41.167 -0.5 -61.5 -1.5s-40.833 -1.83301 -61.5 -2.5v35
c25.333 -0.666992 45 2.33301 59 9s21.333 24.334 22 53.001l1 67v339l-1 65c-0.666992 28.667 -8 46.334 -22 53.001s-33.667 10 -59 10v1zM138.001 866.998h51l86 -179l-18 -11l-95 116l-91 -116l-17 11l84 179v0z" />
    <glyph glyph-name="ogonek" unicode="&#xcf;" horiz-adv-x="328" 
d="M42 632l0.000976562 34.998c10 -1.33301 20.167 -2.33301 30.5 -3l31.5 -2c10.667 -0.666992 21.167 -1 31.5 -1h30.5c20.667 0 41 0.5 61 1.5s40 2.16699 60 3.5v-34h-12c-24 -0.666992 -41.333 -5.16699 -52 -13.5s-16.334 -25.5 -17.001 -51.5l-1 -64v-339l1 -66
c0.666992 -29.333 8.16699 -47.333 22.5 -54s33.833 -10 58.5 -10v-34c-10 0 -20.167 0.333008 -30.5 1l-30.5 2c-10 0 -20.167 0.166992 -30.5 0.5s-20.5 0.5 -30.5 0.5c-20.667 0 -41.167 -0.5 -61.5 -1.5s-40.833 -1.83301 -61.5 -2.5v35
c25.333 -0.666992 45 2.33301 59 9s21.333 24.334 22 53.001l1 67v339l-1 65c-0.666992 28.667 -8 46.334 -22 53.001s-33.667 10 -59 10v1zM129.001 761.998c0 -13.333 -4.49805 -24.5 -13.498 -33.5s-19.833 -13.5 -32.5 -13.5s-24.167 4.33301 -34.5 13
s-15.5 19.334 -15.5 32.001c0 13.333 4.66699 25.166 14 35.499s20.666 15.5 33.999 15.5s24.666 -5 33.999 -15s14 -21.667 14 -35v1zM295.003 761.998c0 -13.333 -4.49902 -24.5 -13.499 -33.5s-19.833 -13.5 -32.5 -13.5s-24 4.33301 -34 13s-15 19.334 -15 32.001
c0 13.333 4.66699 25.166 14 35.499s20.666 15.5 33.999 15.5s24.5 -5 33.5 -15s13.5 -21.667 13.5 -35v1z" />
    <glyph glyph-name="glyph232" unicode="&#xd0;" horiz-adv-x="743" 
d="M123 367v135.001l-1 66c-0.666992 28 -7.66699 45.5 -21 52.5s-32.333 10.5 -57 10.5v35c4 -0.666992 8 -1.16699 12 -1.5s7.66699 -0.833008 11 -1.5l36 -2c12 -0.666992 24 -1 36 -1c23.333 0 46.833 0.333008 70.5 1l70.5 2c23.333 0 46.833 0.333008 70.5 1
s47.167 1 70.5 1c92.667 0 162.834 -32.833 210.501 -98.5s71.5 -141.167 71.5 -226.5c0 -46.667 -8 -92 -24 -136s-41 -82.667 -75 -116c-36.667 -36.667 -76.167 -60.834 -118.5 -72.501s-88.5 -17.5 -138.5 -17.5c-14.667 0 -29.5 0.333008 -44.5 1l-44.5 2l-44.5 2
c-15 0.666992 -29.833 1 -44.5 1c-21.333 0 -42.833 -0.5 -64.5 -1.5s-43.167 -1.83301 -64.5 -2.5v34c25.333 -0.666992 45.166 2.5 59.499 9.5s21.833 24.833 22.5 53.5l1 66v161h-83v43h83v0zM207 367.001l185.003 -0.00195312v-43h-185v-115v-50
c0 -11.333 0.166992 -22.166 0.5 -32.499s1.16602 -20.833 2.49902 -31.5c1.33301 -8 3.66602 -15.5 6.99902 -22.5s8.33301 -12.833 15 -17.5c6 -3.33301 13.333 -6 22 -8s17.667 -3.33301 27 -4c8 -0.666992 15.833 -1.16699 23.5 -1.5s14.5 -0.5 20.5 -0.5h6h6
c32.667 0.666992 65 4.66699 97 12s60.667 23 86 47c29.333 27.333 51.166 59.833 65.499 97.5s22.5 76.167 24.5 115.5c0.666992 4.66699 1 9 1 13v12c0 92.667 -26.667 163.167 -80 211.5s-125.333 72.5 -216 72.5c-8.66699 0 -17.5 -0.166992 -26.5 -0.5
s-17.833 -0.833008 -26.5 -1.5h-5.5h-5.5c-7.33301 -0.666992 -14.5 -1.16699 -21.5 -1.5s-14.167 -0.5 -21.5 -0.5v-22v-21c-0.666992 -7.33301 -1 -14.666 -1 -21.999v-22v-164v0z" />
    <glyph glyph-name="Ntilde" unicode="&#xd1;" horiz-adv-x="760" 
d="M40 667c7.33301 -1.33301 14.4951 -2.16992 21.4951 -2.50293s14.167 -0.833008 21.5 -1.5c7.33301 0 14.5 -0.166992 21.5 -0.5s14.167 -0.5 21.5 -0.5c6.66699 0 13.167 0.166992 19.5 0.5s12.833 0.5 19.5 0.5c6 0.666992 12.167 1.16699 18.5 1.5
s12.833 0.833008 19.5 1.5l395 -518v232v58l-4 103c-0.666992 34.667 -5.16699 58.334 -13.5 71.001s-30.833 19.334 -67.5 20.001v35c8.66699 -1.33301 17.5 -2.33301 26.5 -3l26.5 -2c8.66699 -0.666992 17.5 -1 26.5 -1h26.5c9.33301 0 18.333 0.166992 27 0.5
s17.667 0.5 27 0.5l26.5 2l26.5 2v-33c-2.66699 -0.666992 -5.66699 -1 -9 -1h-9c-6.66699 -0.666992 -13 -1.66699 -19 -3s-11.667 -3.66602 -17 -6.99902c-7.33301 -5.33301 -12.833 -12.666 -16.5 -21.999s-6.16699 -19 -7.5 -29c-0.666992 -6 -1 -12 -1 -18v-16v-5
l-2 -105l-4 -443h-18l-456 589l2 -295v-14.5v-13.5l2 -78.5c0.666992 -26.333 2.33398 -52.5 5.00098 -78.5c3.33301 -26.667 11 -43.5 23 -50.5s30.333 -10.5 55 -10.5v-32c-9.33301 0 -18.666 0.333008 -27.999 1l-28 2c-10 0 -19.667 0.166992 -29 0.5
s-18.666 0.5 -27.999 0.5c-8.66699 0 -17.167 -0.166992 -25.5 -0.5s-16.5 -0.833008 -24.5 -1.5c-4.66699 0 -9 -0.166992 -13 -0.5s-8.33301 -0.5 -13 -0.5c-4 -0.666992 -8.16699 -1 -12.5 -1h-12.5v33c38 -0.666992 60.333 8.16602 67 26.499s10.334 42.833 11.001 73.5
v2.5v2.5l2 72l4 301v34c0 36.667 -5.66699 59.667 -17 69s-33.666 15.333 -66.999 18v35v0zM487.995 825.996l22.9951 0.00195312c0 -6 -0.5 -12 -1.5 -18s-2.16699 -12.333 -3.5 -19c-3.33301 -16 -9.66602 -30.667 -18.999 -44s-22.666 -20 -39.999 -20
c-10.667 0 -21.667 2 -33 6s-22.666 8.33301 -33.999 13l-35 12c-12 4 -24 6 -36 6c-10.667 0 -18.667 -4 -24 -12s-8.66602 -16.667 -9.99902 -26l-25 1c0 3.33301 0.333008 7.16602 1 11.499l2 12.5c2.66699 19.333 8.5 36.833 17.5 52.5s24.833 23.5 47.5 23.5
c12 0 23.667 -2 35 -6s22.666 -8.33301 33.999 -13c0.666992 -0.666992 1.33398 -1.16699 2.00098 -1.5s1.33398 -0.5 2.00098 -0.5c10 -4.66699 20.333 -8.83398 31 -12.501s21.667 -5.5 33 -5.5c8.66699 0 15.5 3.33301 20.5 10s8.83301 14 11.5 22
c0 1.33301 0.166992 2.5 0.5 3.5s0.5 2.16699 0.5 3.5v1z" />
    <glyph glyph-name="scaron" unicode="&#xd2;" 
 />
    <glyph glyph-name="Lslash" unicode="&#xd3;" horiz-adv-x="774" 
d="M734 334c0 -99.333 -33.501 -181.5 -100.501 -246.5s-149.833 -97.5 -248.5 -97.5c-99.333 0 -181.666 33 -246.999 99s-98 148.333 -98 247c0 98 34.5 179.167 103.5 243.5s151.5 96.5 247.5 96.5c97.333 0 178.833 -32.833 244.5 -98.5s98.5 -147.167 98.5 -244.5v1z
M640.999 324c0 8 -0.335938 16.501 -1.00293 25.501s-1.66699 17.833 -3 26.5c-9.33301 65.333 -35.166 125 -77.499 179s-98.833 81 -169.5 81c-82.667 0 -146 -30 -190 -90s-66 -128 -66 -204c0 -5.33301 0.166992 -10.833 0.5 -16.5s0.5 -11.167 0.5 -16.5
c6.66699 -70.667 31.834 -135.334 75.501 -194.001s104.5 -88 182.5 -88c80.667 0 141.834 30.167 183.501 90.5s63.167 126.833 64.5 199.5v3.5v2.5v1zM380.996 863.001l67 0.00292969c0.666992 -0.666992 1.5 -1 2.5 -1h2.5
c2.66699 -0.666992 4.83398 -1.33398 6.50098 -2.00098s2.5 -2.33398 2.5 -5.00098v0c0 -2.66699 -0.666992 -4.83398 -2 -6.50098s-2.66602 -3.5 -3.99902 -5.5c-0.666992 -1.33301 -1.33398 -2.5 -2.00098 -3.5s-1.33398 -1.83301 -2.00098 -2.5l-116 -155l-23 10l68 171
v0z" />
    <glyph glyph-name="lslash" unicode="&#xd4;" horiz-adv-x="774" 
d="M734 334c0 -99.333 -33.501 -181.5 -100.501 -246.5s-149.833 -97.5 -248.5 -97.5c-99.333 0 -181.666 33 -246.999 99s-98 148.333 -98 247c0 98 34.5 179.167 103.5 243.5s151.5 96.5 247.5 96.5c97.333 0 178.833 -32.833 244.5 -98.5s98.5 -147.167 98.5 -244.5v1z
M640.999 324c0 8 -0.335938 16.501 -1.00293 25.501s-1.66699 17.833 -3 26.5c-9.33301 65.333 -35.166 125 -77.499 179s-98.833 81 -169.5 81c-82.667 0 -146 -30 -190 -90s-66 -128 -66 -204c0 -5.33301 0.166992 -10.833 0.5 -16.5s0.5 -11.167 0.5 -16.5
c6.66699 -70.667 31.834 -135.334 75.501 -194.001s104.5 -88 182.5 -88c80.667 0 141.834 30.167 183.501 90.5s63.167 126.833 64.5 199.5v3.5v2.5v1zM360.996 867.001h51l86 -179l-18 -11l-95 116l-91 -116l-17 11l84 179v0z" />
    <glyph glyph-name="guilsinglright" unicode="&#xd5;" horiz-adv-x="774" 
d="M734 334c0 -99.333 -33.501 -181.5 -100.501 -246.5s-149.833 -97.5 -248.5 -97.5c-99.333 0 -181.666 33 -246.999 99s-98 148.333 -98 247c0 98 34.5 179.167 103.5 243.5s151.5 96.5 247.5 96.5c97.333 0 178.833 -32.833 244.5 -98.5s98.5 -147.167 98.5 -244.5v1z
M640.999 324c0 8 -0.335938 16.501 -1.00293 25.501s-1.66699 17.833 -3 26.5c-9.33301 65.333 -35.166 125 -77.499 179s-98.833 81 -169.5 81c-82.667 0 -146 -30 -190 -90s-66 -128 -66 -204c0 -5.33301 0.166992 -10.833 0.5 -16.5s0.5 -11.167 0.5 -16.5
c6.66699 -70.667 31.834 -135.334 75.501 -194.001s104.5 -88 182.5 -88c80.667 0 141.834 30.167 183.501 90.5s63.167 126.833 64.5 199.5v3.5v2.5v1zM494.996 826.001l22.9951 0.00195312c0 -6 -0.5 -12 -1.5 -18s-2.16699 -12.333 -3.5 -19
c-3.33301 -16 -9.66602 -30.667 -18.999 -44s-22.666 -20 -39.999 -20c-10.667 0 -21.667 2 -33 6s-22.666 8.33301 -33.999 13l-35 12c-12 4 -24 6 -36 6c-10.667 0 -18.667 -4 -24 -12s-8.66602 -16.667 -9.99902 -26l-25 1c0 3.33301 0.333008 7.16602 1 11.499l2 12.5
c2.66699 19.333 8.5 36.833 17.5 52.5s24.833 23.5 47.5 23.5c12 0 23.667 -2 35 -6s22.666 -8.33301 33.999 -13c0.666992 -0.666992 1.33398 -1.16699 2.00098 -1.5s1.33398 -0.5 2.00098 -0.5c10 -4.66699 20.333 -8.83398 31 -12.501s21.667 -5.5 33 -5.5
c8.66699 0 15.5 3.33301 20.5 10s8.83301 14 11.5 22c0 1.33301 0.166992 2.5 0.5 3.5s0.5 2.16699 0.5 3.5v1z" />
    <glyph glyph-name="Odieresis" unicode="&#xd6;" horiz-adv-x="774" 
d="M734 334c0 -99.333 -33.501 -181.5 -100.501 -246.5s-149.833 -97.5 -248.5 -97.5c-99.333 0 -181.666 33 -246.999 99s-98 148.333 -98 247c0 98 34.5 179.167 103.5 243.5s151.5 96.5 247.5 96.5c97.333 0 178.833 -32.833 244.5 -98.5s98.5 -147.167 98.5 -244.5v1z
M640.999 324c0 8 -0.335938 16.501 -1.00293 25.501s-1.66699 17.833 -3 26.5c-9.33301 65.333 -35.166 125 -77.499 179s-98.833 81 -169.5 81c-82.667 0 -146 -30 -190 -90s-66 -128 -66 -204c0 -5.33301 0.166992 -10.833 0.5 -16.5s0.5 -11.167 0.5 -16.5
c6.66699 -70.667 31.834 -135.334 75.501 -194.001s104.5 -88 182.5 -88c80.667 0 141.834 30.167 183.501 90.5s63.167 126.833 64.5 199.5v3.5v2.5v1zM351.996 780.001c0 -13.333 -4.49805 -24.5 -13.498 -33.5s-19.833 -13.5 -32.5 -13.5s-24.167 4.33301 -34.5 13
s-15.5 19.334 -15.5 32.001c0 13.333 4.66699 25.166 14 35.499s20.666 15.5 33.999 15.5s24.666 -5 33.999 -15s14 -21.667 14 -35v1zM517.998 780.001c0 -13.333 -4.49902 -24.5 -13.499 -33.5s-19.833 -13.5 -32.5 -13.5s-24 4.33301 -34 13s-15 19.334 -15 32.001
c0 13.333 4.66699 25.166 14 35.499s20.666 15.5 33.999 15.5s24.5 -5 33.5 -15s13.5 -21.667 13.5 -35v1z" />
    <glyph glyph-name="multiply" unicode="&#xd7;" 
 />
    <glyph glyph-name="plusminus" unicode="&#xd8;" horiz-adv-x="773" 
d="M613 700l33 -24.0029l-47 -67c42 -33.333 74.833 -74.166 98.5 -122.499s35.5 -99.166 35.5 -152.499c0 -98.667 -33 -180.667 -99 -246s-148.667 -98 -248 -98c-30.667 0 -61 3.5 -91 10.5s-58.667 18.167 -86 33.5l-53 -77l-34 23l52 77
c-42.667 38 -75.667 79.333 -99 124s-35 96.334 -35 155.001c0 97.333 34.167 178.333 102.5 243s150.5 97 246.5 97c20.667 0 39.667 -1.5 57 -4.5s34.333 -7.16699 51 -12.5c11.333 -4 22.5 -8.33301 33.5 -13l34.5 -15l48 69v0zM245 81.9971
c17.333 -16 37.332 -28.668 59.999 -38.001s45.667 -14.666 69 -15.999c3.33301 -0.666992 6.5 -1 9.5 -1h8.5c82.667 0 144.834 30.667 186.501 92s62.5 129.333 62.5 204c0 8 -0.333008 16 -1 24l-2 23c-4 33.333 -12.5 66 -25.5 98s-30.167 60.333 -51.5 85l-316 -471v0z
M529.999 584.996c-18 14.667 -38.167 26.5 -60.5 35.5s-44.833 14.167 -67.5 15.5h-6h-6c-84 0 -147.5 -29.833 -190.5 -89.5s-64.5 -128.167 -64.5 -205.5c0 -41.333 6.5 -81.833 19.5 -121.5s32.833 -75.5 59.5 -107.5l316 473v0z" />
    <glyph glyph-name="Thorn" unicode="&#xd9;" horiz-adv-x="728" 
d="M32 633l-0.000976562 34c8.66699 -1.33301 17.5 -2.33301 26.5 -3l26.5 -2c8.66699 -0.666992 17.5 -1 26.5 -1h26.5c22 0 43.833 0.5 65.5 1.5s43.167 2.16699 64.5 3.5v-33c-1.33301 -0.666992 -2.5 -1 -3.5 -1h-3.5c-2.66699 0 -5.16699 -0.166992 -7.5 -0.5
s-4.83301 -0.5 -7.5 -0.5c-8 -0.666992 -15.5 -2 -22.5 -4s-13.167 -5.66699 -18.5 -11c-5.33301 -6 -9.16602 -13.333 -11.499 -22s-3.83301 -18 -4.5 -28v-8.5v-8.5v-25v-219c0 -70.667 9.66699 -134.167 29 -190.5s72.333 -84.5 159 -84.5c88 0 143.333 26.167 166 78.5
s34 115.166 34 188.499v39v109l-1 75v5v6c-0.666992 29.333 -4.16699 53.5 -10.5 72.5s-28.5 28.5 -66.5 28.5v35c15.333 -2.66699 31 -4.33398 47 -5.00098s32 -1 48 -1c16.667 0 33.167 0.333008 49.5 1s32.833 2 49.5 4v-33
c-30.667 -0.666992 -49.5 -10.834 -56.5 -30.501s-10.5 -43.167 -10.5 -70.5v-22v-22c-0.666992 -7.33301 -1 -14.666 -1 -21.999v-22v-126c0 -93.333 -15.167 -172.166 -45.5 -236.499s-101.166 -96.5 -212.499 -96.5c-7.33301 0 -14.5 0.166992 -21.5 0.5
s-14.167 0.833008 -21.5 1.5c-38 3.33301 -74.5 12.5 -109.5 27.5s-62.167 40.5 -81.5 76.5c-7.33301 13.333 -12.833 27.833 -16.5 43.5s-6.16699 31.834 -7.5 48.501c-0.666992 12 -1.16699 24 -1.5 36s-0.5 23.333 -0.5 34v243v30c0 30.667 -3.33301 56 -10 76
s-28.334 30 -65.001 30v1zM369.999 863l70 -170.999l-21 -10l-124 161l-0.5 0.5l-1.5 1.5c-1.33301 2 -2.5 4 -3.5 6s-1.5 3.66699 -1.5 5s0.833008 2.66602 2.5 3.99902s4.5 2 8.5 2l71 1v0z" />
    <glyph glyph-name="Eth" unicode="&#xda;" horiz-adv-x="728" 
d="M32 633l-0.000976562 34c8.66699 -1.33301 17.5 -2.33301 26.5 -3l26.5 -2c8.66699 -0.666992 17.5 -1 26.5 -1h26.5c22 0 43.833 0.5 65.5 1.5s43.167 2.16699 64.5 3.5v-33c-1.33301 -0.666992 -2.5 -1 -3.5 -1h-3.5c-2.66699 0 -5.16699 -0.166992 -7.5 -0.5
s-4.83301 -0.5 -7.5 -0.5c-8 -0.666992 -15.5 -2 -22.5 -4s-13.167 -5.66699 -18.5 -11c-5.33301 -6 -9.16602 -13.333 -11.499 -22s-3.83301 -18 -4.5 -28v-8.5v-8.5v-25v-219c0 -70.667 9.66699 -134.167 29 -190.5s72.333 -84.5 159 -84.5c88 0 143.333 26.167 166 78.5
s34 115.166 34 188.499v39v109l-1 75v5v6c-0.666992 29.333 -4.16699 53.5 -10.5 72.5s-28.5 28.5 -66.5 28.5v35c15.333 -2.66699 31 -4.33398 47 -5.00098s32 -1 48 -1c16.667 0 33.167 0.333008 49.5 1s32.833 2 49.5 4v-33
c-30.667 -0.666992 -49.5 -10.834 -56.5 -30.501s-10.5 -43.167 -10.5 -70.5v-22v-22c-0.666992 -7.33301 -1 -14.666 -1 -21.999v-22v-126c0 -93.333 -15.167 -172.166 -45.5 -236.499s-101.166 -96.5 -212.499 -96.5c-7.33301 0 -14.5 0.166992 -21.5 0.5
s-14.167 0.833008 -21.5 1.5c-38 3.33301 -74.5 12.5 -109.5 27.5s-62.167 40.5 -81.5 76.5c-7.33301 13.333 -12.833 27.833 -16.5 43.5s-6.16699 31.834 -7.5 48.501c-0.666992 12 -1.16699 24 -1.5 36s-0.5 23.333 -0.5 34v243v30c0 30.667 -3.33301 56 -10 76
s-28.334 30 -65.001 30v1zM357.999 864l67 0.00292969c0.666992 -0.666992 1.5 -1 2.5 -1h2.5c2.66699 -0.666992 4.83398 -1.33398 6.50098 -2.00098s2.5 -2.33398 2.5 -5.00098v0c0 -2.66699 -0.666992 -4.83398 -2 -6.50098s-2.66602 -3.5 -3.99902 -5.5
c-0.666992 -1.33301 -1.33398 -2.5 -2.00098 -3.5s-1.33398 -1.83301 -2.00098 -2.5l-116 -155l-23 10l68 171v0z" />
    <glyph glyph-name="eth" unicode="&#xdb;" horiz-adv-x="728" 
d="M32 633l-0.000976562 34c8.66699 -1.33301 17.5 -2.33301 26.5 -3l26.5 -2c8.66699 -0.666992 17.5 -1 26.5 -1h26.5c22 0 43.833 0.5 65.5 1.5s43.167 2.16699 64.5 3.5v-33c-1.33301 -0.666992 -2.5 -1 -3.5 -1h-3.5c-2.66699 0 -5.16699 -0.166992 -7.5 -0.5
s-4.83301 -0.5 -7.5 -0.5c-8 -0.666992 -15.5 -2 -22.5 -4s-13.167 -5.66699 -18.5 -11c-5.33301 -6 -9.16602 -13.333 -11.499 -22s-3.83301 -18 -4.5 -28v-8.5v-8.5v-25v-219c0 -70.667 9.66699 -134.167 29 -190.5s72.333 -84.5 159 -84.5c88 0 143.333 26.167 166 78.5
s34 115.166 34 188.499v39v109l-1 75v5v6c-0.666992 29.333 -4.16699 53.5 -10.5 72.5s-28.5 28.5 -66.5 28.5v35c15.333 -2.66699 31 -4.33398 47 -5.00098s32 -1 48 -1c16.667 0 33.167 0.333008 49.5 1s32.833 2 49.5 4v-33
c-30.667 -0.666992 -49.5 -10.834 -56.5 -30.501s-10.5 -43.167 -10.5 -70.5v-22v-22c-0.666992 -7.33301 -1 -14.666 -1 -21.999v-22v-126c0 -93.333 -15.167 -172.166 -45.5 -236.499s-101.166 -96.5 -212.499 -96.5c-7.33301 0 -14.5 0.166992 -21.5 0.5
s-14.167 0.833008 -21.5 1.5c-38 3.33301 -74.5 12.5 -109.5 27.5s-62.167 40.5 -81.5 76.5c-7.33301 13.333 -12.833 27.833 -16.5 43.5s-6.16699 31.834 -7.5 48.501c-0.666992 12 -1.16699 24 -1.5 36s-0.5 23.333 -0.5 34v243v30c0 30.667 -3.33301 56 -10 76
s-28.334 30 -65.001 30v1zM337.999 867h51l86 -179l-18 -11l-95 116l-91 -116l-17 11l84 179v0z" />
    <glyph glyph-name="Udieresis" unicode="&#xdc;" horiz-adv-x="728" 
d="M32 633l-0.000976562 34c8.66699 -1.33301 17.5 -2.33301 26.5 -3l26.5 -2c8.66699 -0.666992 17.5 -1 26.5 -1h26.5c22 0 43.833 0.5 65.5 1.5s43.167 2.16699 64.5 3.5v-33c-1.33301 -0.666992 -2.5 -1 -3.5 -1h-3.5c-2.66699 0 -5.16699 -0.166992 -7.5 -0.5
s-4.83301 -0.5 -7.5 -0.5c-8 -0.666992 -15.5 -2 -22.5 -4s-13.167 -5.66699 -18.5 -11c-5.33301 -6 -9.16602 -13.333 -11.499 -22s-3.83301 -18 -4.5 -28v-8.5v-8.5v-25v-219c0 -70.667 9.66699 -134.167 29 -190.5s72.333 -84.5 159 -84.5c88 0 143.333 26.167 166 78.5
s34 115.166 34 188.499v39v109l-1 75v5v6c-0.666992 29.333 -4.16699 53.5 -10.5 72.5s-28.5 28.5 -66.5 28.5v35c15.333 -2.66699 31 -4.33398 47 -5.00098s32 -1 48 -1c16.667 0 33.167 0.333008 49.5 1s32.833 2 49.5 4v-33
c-30.667 -0.666992 -49.5 -10.834 -56.5 -30.501s-10.5 -43.167 -10.5 -70.5v-22v-22c-0.666992 -7.33301 -1 -14.666 -1 -21.999v-22v-126c0 -93.333 -15.167 -172.166 -45.5 -236.499s-101.166 -96.5 -212.499 -96.5c-7.33301 0 -14.5 0.166992 -21.5 0.5
s-14.167 0.833008 -21.5 1.5c-38 3.33301 -74.5 12.5 -109.5 27.5s-62.167 40.5 -81.5 76.5c-7.33301 13.333 -12.833 27.833 -16.5 43.5s-6.16699 31.834 -7.5 48.501c-0.666992 12 -1.16699 24 -1.5 36s-0.5 23.333 -0.5 34v243v30c0 30.667 -3.33301 56 -10 76
s-28.334 30 -65.001 30v1zM328.999 780c0 -13.333 -4.49805 -24.5 -13.498 -33.5s-19.833 -13.5 -32.5 -13.5s-24.167 4.33301 -34.5 13s-15.5 19.334 -15.5 32.001c0 13.333 4.66699 25.166 14 35.499s20.666 15.5 33.999 15.5s24.666 -5 33.999 -15s14 -21.667 14 -35v1z
M495.001 780c0 -13.333 -4.49902 -24.5 -13.499 -33.5s-19.833 -13.5 -32.5 -13.5s-24 4.33301 -34 13s-15 19.334 -15 32.001c0 13.333 4.66699 25.166 14 35.499s20.666 15.5 33.999 15.5s24.5 -5 33.5 -15s13.5 -21.667 13.5 -35v1z" />
    <glyph glyph-name="Yacute" unicode="&#xdd;" 
 />
    <glyph glyph-name="glyph236" unicode="&#xde;" horiz-adv-x="517" 
d="M207 519l0.000976562 -355.001l1 -66c0.666992 -30.667 8.33398 -49 23.001 -55s34.667 -9 60 -9v-34c-10 0 -20 0.333008 -30 1l-30 2c-10.667 0 -21 0.166992 -31 0.5s-20 0.5 -30 0.5c-21.333 0 -42.833 -0.5 -64.5 -1.5s-43.167 -1.83301 -64.5 -2.5v35
c25.333 -0.666992 45 2.33301 59 9s21.333 24.334 22 53.001l2 67v319l-1 43v6.5v7.5c-0.666992 33.333 -4.66699 56.833 -12 70.5s-30.333 20.5 -69 20.5v36c10 -1.33301 20.167 -2.33301 30.5 -3l31.5 -2c10.667 -0.666992 21.167 -1 31.5 -1h30.5
c10 0 20 0.166992 30 0.5s20.333 0.5 31 0.5l30 2l30 2v-34h-12c-24 -0.666992 -41.333 -5.16699 -52 -13.5s-16.334 -25.5 -17.001 -51.5v-10c9.33301 0 18.833 0.166992 28.5 0.5s19.5 0.5 29.5 0.5c9.33301 0.666992 18.833 1 28.5 1h28.5
c53.333 0 95.5 -15.833 126.5 -47.5s46.5 -74.167 46.5 -127.5c0 -66.667 -23.5 -117.5 -70.5 -152.5s-101.167 -52.5 -162.5 -52.5v34c46 2 82.833 16.667 110.5 44s41.5 64.333 41.5 111c0 52.667 -15.833 91 -47.5 115s-71.834 36 -120.501 36h-18.5
c-6.33301 0 -12.833 -0.333008 -19.5 -1v1z" />
    <glyph glyph-name="germandbls" unicode="&#xdf;" horiz-adv-x="516" 
d="M107 375l-57.998 0.00390625l9 31c25.333 1.33301 41.166 9.66602 47.499 24.999s10.833 32.666 13.5 51.999c0 3.33301 0.333008 6.5 1 9.5s1 6.16699 1 9.5c0.666992 0.666992 1 1.16699 1 1.5v1.5c8.66699 52.667 32.334 98.667 71.001 138s85.667 59 141 59
c36.667 0 68.334 -11.333 95.001 -34s40 -53 40 -91c0 -32 -7.16699 -59.333 -21.5 -82s-29.833 -42.334 -46.5 -59.001l-30.5 -29.5c-9.66699 -9 -17.834 -17.833 -24.501 -26.5c-4 -6 -7.33301 -12 -10 -18s-4 -12 -4 -18c0 -10.667 3.16699 -20.667 9.5 -30
s14.833 -18.666 25.5 -27.999l21.5 -18.5c7.66699 -6.33301 15.834 -12.5 24.501 -18.5c20 -16.667 38.333 -34.834 55 -54.501s25 -43.167 25 -70.5c0 -36.667 -12.5 -67.667 -37.5 -93s-56.167 -38 -93.5 -38c-5.33301 0 -11.166 0.5 -17.499 1.5s-12.833 2.5 -19.5 4.5
c-16.667 4 -31.834 11.5 -45.501 22.5s-20.5 25.167 -20.5 42.5c0 10 3.5 19 10.5 27s15.833 12 26.5 12c11.333 0 19.5 -3.5 24.5 -10.5s9.5 -14.833 13.5 -23.5c0 -0.666992 0.166992 -1.33398 0.5 -2.00098l0.5 -1c4 -10 9 -18.833 15 -26.5s16 -11.5 30 -11.5
c16.667 0 30 5.66699 40 17s15 24.666 15 39.999c0 20 -8.16699 38.333 -24.5 55s-34.5 33 -54.5 49c-0.666992 0.666992 -1.33398 1.16699 -2.00098 1.5s-1.33398 0.833008 -2.00098 1.5c-20.667 16 -39.667 32.833 -57 50.5s-26 36.834 -26 57.501c0 18 5 34.333 15 49
s21.667 29.334 35 44.001c3.33301 2.66699 6.5 5.66699 9.5 9s6.16699 6.66602 9.5 9.99902c16 16.667 31.167 34.667 45.5 54s21.833 41.666 22.5 66.999c0 4 -0.166992 7.83301 -0.5 11.5s-0.5 7.5 -0.5 11.5c-4 26.667 -14 51.167 -30 73.5s-39.333 33.5 -70 33.5
c-36.667 0 -64.167 -13 -82.5 -39s-30.166 -55.333 -35.499 -88c-2.66699 -18 -4.83398 -36.167 -6.50098 -54.5s-2.5 -36.833 -2.5 -55.5c-0.666992 -9.33301 -1 -18.5 -1 -27.5v-27.5v-29v-179v-17v-16c-0.666992 -5.33301 -1 -10.666 -1 -15.999v-16
c0 -23.333 3.16699 -40.333 9.5 -51s22.166 -16 47.499 -16l7 1v-32c-16 0.666992 -32 1.5 -48 2.5s-32 1.5 -48 1.5c-13.333 0 -26.5 -0.333008 -39.5 -1l-39.5 -2c-4 -0.666992 -8.16699 -1 -12.5 -1h-13.5v32c28 -0.666992 46.5 3.33301 55.5 12s13.5 27 13.5 55v16v16
c-0.666992 4.66699 -1 9.66699 -1 15v16v213v0z" />
    <glyph glyph-name="agrave" unicode="&#xe0;" horiz-adv-x="415" 
d="M389 52l12.002 -19c-12.667 -10.667 -26.667 -19.834 -42 -27.501s-31.333 -11.5 -48 -11.5c-19.333 0 -32.5 6 -39.5 18s-11.167 26.333 -12.5 43c-16.667 -18 -35.334 -33.5 -56.001 -46.5s-43.667 -19.5 -69 -19.5c-27.333 0 -49.833 9.16699 -67.5 27.5
s-26.5 40.833 -26.5 67.5c0 28 9.5 48.667 28.5 62s39.833 24 62.5 32l10 4l10 4l107 40v33c0 6 -0.166992 12.833 -0.5 20.5s-1.16602 15.834 -2.49902 24.501c-2 17.333 -7.16699 33.5 -15.5 48.5s-22.5 22.5 -42.5 22.5c-4.66699 0 -10 -0.666992 -16 -2
s-12.333 -3.33301 -19 -6c-11.333 -4.66699 -22.166 -11 -32.499 -19s-15.833 -17 -16.5 -27c-2 -15.333 -7 -25.666 -15 -30.999s-20 -8.66602 -36 -9.99902c-2.66699 0 -4.83398 0.833008 -6.50098 2.5s-2.5 3.83398 -2.5 6.50098c0 14.667 3.5 27 10.5 37
s16.167 19 27.5 27l19.5 13.5l21.5 15.5l18.5 12.5c6.33301 4.33301 12.833 8.16602 19.5 11.499c8.66699 4.66699 17.5 8.66699 26.5 12s17.5 5 25.5 5c43.333 0 71.666 -14.667 84.999 -44s20.333 -61.666 21 -96.999v-4v-4c0 -14.667 -0.166992 -29.334 -0.5 -44.001
s-0.5 -29.334 -0.5 -44.001c0 -15.333 -0.166992 -30.333 -0.5 -45s-0.5 -29.334 -0.5 -44.001v-8v-8c1.33301 -11.333 4 -21.833 8 -31.5s11.333 -14.5 22 -14.5c4 0 8.16699 1 12.5 3s8.16602 4.33301 11.499 7c1.33301 1.33301 2.83301 2.5 4.5 3.5
s3.16699 1.83301 4.5 2.5v1zM258.002 198c-8 -3.33301 -16.999 -6.66797 -26.999 -10.001s-20 -7 -30 -11c-21.333 -8 -40.833 -18.333 -58.5 -31s-26.5 -30 -26.5 -52c0 -15.333 5.33301 -28.666 16 -39.999s24 -17 40 -17s30.667 4.5 44 13.5s25.666 18.833 36.999 29.5
l2.5 2.5l2.5 2.5v113v0zM213.003 660.998l70 -170.999l-21 -10l-124 161l-0.5 0.5l-1.5 1.5c-1.33301 2 -2.5 4 -3.5 6s-1.5 3.66699 -1.5 5s0.833008 2.66602 2.5 3.99902s4.5 2 8.5 2l71 1v0z" />
    <glyph glyph-name="aacute" unicode="&#xe1;" horiz-adv-x="415" 
d="M389 52l12.002 -19c-12.667 -10.667 -26.667 -19.834 -42 -27.501s-31.333 -11.5 -48 -11.5c-19.333 0 -32.5 6 -39.5 18s-11.167 26.333 -12.5 43c-16.667 -18 -35.334 -33.5 -56.001 -46.5s-43.667 -19.5 -69 -19.5c-27.333 0 -49.833 9.16699 -67.5 27.5
s-26.5 40.833 -26.5 67.5c0 28 9.5 48.667 28.5 62s39.833 24 62.5 32l10 4l10 4l107 40v33c0 6 -0.166992 12.833 -0.5 20.5s-1.16602 15.834 -2.49902 24.501c-2 17.333 -7.16699 33.5 -15.5 48.5s-22.5 22.5 -42.5 22.5c-4.66699 0 -10 -0.666992 -16 -2
s-12.333 -3.33301 -19 -6c-11.333 -4.66699 -22.166 -11 -32.499 -19s-15.833 -17 -16.5 -27c-2 -15.333 -7 -25.666 -15 -30.999s-20 -8.66602 -36 -9.99902c-2.66699 0 -4.83398 0.833008 -6.50098 2.5s-2.5 3.83398 -2.5 6.50098c0 14.667 3.5 27 10.5 37
s16.167 19 27.5 27l19.5 13.5l21.5 15.5l18.5 12.5c6.33301 4.33301 12.833 8.16602 19.5 11.499c8.66699 4.66699 17.5 8.66699 26.5 12s17.5 5 25.5 5c43.333 0 71.666 -14.667 84.999 -44s20.333 -61.666 21 -96.999v-4v-4c0 -14.667 -0.166992 -29.334 -0.5 -44.001
s-0.5 -29.334 -0.5 -44.001c0 -15.333 -0.166992 -30.333 -0.5 -45s-0.5 -29.334 -0.5 -44.001v-8v-8c1.33301 -11.333 4 -21.833 8 -31.5s11.333 -14.5 22 -14.5c4 0 8.16699 1 12.5 3s8.16602 4.33301 11.499 7c1.33301 1.33301 2.83301 2.5 4.5 3.5
s3.16699 1.83301 4.5 2.5v1zM258.002 198c-8 -3.33301 -16.999 -6.66797 -26.999 -10.001s-20 -7 -30 -11c-21.333 -8 -40.833 -18.333 -58.5 -31s-26.5 -30 -26.5 -52c0 -15.333 5.33301 -28.666 16 -39.999s24 -17 40 -17s30.667 4.5 44 13.5s25.666 18.833 36.999 29.5
l2.5 2.5l2.5 2.5v113v0zM201.003 661.998l67 0.00292969c0.666992 -0.666992 1.5 -1 2.5 -1h2.5c2.66699 -0.666992 4.83398 -1.33398 6.50098 -2.00098s2.5 -2.33398 2.5 -5.00098v0c0 -2.66699 -0.666992 -4.83398 -2 -6.50098s-2.66602 -3.5 -3.99902 -5.5
c-0.666992 -1.33301 -1.33398 -2.5 -2.00098 -3.5s-1.33398 -1.83301 -2.00098 -2.5l-116 -155l-23 10l68 171v0z" />
    <glyph glyph-name="acircumflex" unicode="&#xe2;" horiz-adv-x="415" 
d="M389 52l12.002 -19c-12.667 -10.667 -26.667 -19.834 -42 -27.501s-31.333 -11.5 -48 -11.5c-19.333 0 -32.5 6 -39.5 18s-11.167 26.333 -12.5 43c-16.667 -18 -35.334 -33.5 -56.001 -46.5s-43.667 -19.5 -69 -19.5c-27.333 0 -49.833 9.16699 -67.5 27.5
s-26.5 40.833 -26.5 67.5c0 28 9.5 48.667 28.5 62s39.833 24 62.5 32l10 4l10 4l107 40v33c0 6 -0.166992 12.833 -0.5 20.5s-1.16602 15.834 -2.49902 24.501c-2 17.333 -7.16699 33.5 -15.5 48.5s-22.5 22.5 -42.5 22.5c-4.66699 0 -10 -0.666992 -16 -2
s-12.333 -3.33301 -19 -6c-11.333 -4.66699 -22.166 -11 -32.499 -19s-15.833 -17 -16.5 -27c-2 -15.333 -7 -25.666 -15 -30.999s-20 -8.66602 -36 -9.99902c-2.66699 0 -4.83398 0.833008 -6.50098 2.5s-2.5 3.83398 -2.5 6.50098c0 14.667 3.5 27 10.5 37
s16.167 19 27.5 27l19.5 13.5l21.5 15.5l18.5 12.5c6.33301 4.33301 12.833 8.16602 19.5 11.499c8.66699 4.66699 17.5 8.66699 26.5 12s17.5 5 25.5 5c43.333 0 71.666 -14.667 84.999 -44s20.333 -61.666 21 -96.999v-4v-4c0 -14.667 -0.166992 -29.334 -0.5 -44.001
s-0.5 -29.334 -0.5 -44.001c0 -15.333 -0.166992 -30.333 -0.5 -45s-0.5 -29.334 -0.5 -44.001v-8v-8c1.33301 -11.333 4 -21.833 8 -31.5s11.333 -14.5 22 -14.5c4 0 8.16699 1 12.5 3s8.16602 4.33301 11.499 7c1.33301 1.33301 2.83301 2.5 4.5 3.5
s3.16699 1.83301 4.5 2.5v1zM258.002 198c-8 -3.33301 -16.999 -6.66797 -26.999 -10.001s-20 -7 -30 -11c-21.333 -8 -40.833 -18.333 -58.5 -31s-26.5 -30 -26.5 -52c0 -15.333 5.33301 -28.666 16 -39.999s24 -17 40 -17s30.667 4.5 44 13.5s25.666 18.833 36.999 29.5
l2.5 2.5l2.5 2.5v113v0zM181.003 665.998h51l86 -179l-18 -11l-95 116l-91 -116l-17 11l84 179v0z" />
    <glyph glyph-name="atilde" unicode="&#xe3;" horiz-adv-x="415" 
d="M389 52l12.002 -19c-12.667 -10.667 -26.667 -19.834 -42 -27.501s-31.333 -11.5 -48 -11.5c-19.333 0 -32.5 6 -39.5 18s-11.167 26.333 -12.5 43c-16.667 -18 -35.334 -33.5 -56.001 -46.5s-43.667 -19.5 -69 -19.5c-27.333 0 -49.833 9.16699 -67.5 27.5
s-26.5 40.833 -26.5 67.5c0 28 9.5 48.667 28.5 62s39.833 24 62.5 32l10 4l10 4l107 40v33c0 6 -0.166992 12.833 -0.5 20.5s-1.16602 15.834 -2.49902 24.501c-2 17.333 -7.16699 33.5 -15.5 48.5s-22.5 22.5 -42.5 22.5c-4.66699 0 -10 -0.666992 -16 -2
s-12.333 -3.33301 -19 -6c-11.333 -4.66699 -22.166 -11 -32.499 -19s-15.833 -17 -16.5 -27c-2 -15.333 -7 -25.666 -15 -30.999s-20 -8.66602 -36 -9.99902c-2.66699 0 -4.83398 0.833008 -6.50098 2.5s-2.5 3.83398 -2.5 6.50098c0 14.667 3.5 27 10.5 37
s16.167 19 27.5 27l19.5 13.5l21.5 15.5l18.5 12.5c6.33301 4.33301 12.833 8.16602 19.5 11.499c8.66699 4.66699 17.5 8.66699 26.5 12s17.5 5 25.5 5c43.333 0 71.666 -14.667 84.999 -44s20.333 -61.666 21 -96.999v-4v-4c0 -14.667 -0.166992 -29.334 -0.5 -44.001
s-0.5 -29.334 -0.5 -44.001c0 -15.333 -0.166992 -30.333 -0.5 -45s-0.5 -29.334 -0.5 -44.001v-8v-8c1.33301 -11.333 4 -21.833 8 -31.5s11.333 -14.5 22 -14.5c4 0 8.16699 1 12.5 3s8.16602 4.33301 11.499 7c1.33301 1.33301 2.83301 2.5 4.5 3.5
s3.16699 1.83301 4.5 2.5v1zM258.002 198c-8 -3.33301 -16.999 -6.66797 -26.999 -10.001s-20 -7 -30 -11c-21.333 -8 -40.833 -18.333 -58.5 -31s-26.5 -30 -26.5 -52c0 -15.333 5.33301 -28.666 16 -39.999s24 -17 40 -17s30.667 4.5 44 13.5s25.666 18.833 36.999 29.5
l2.5 2.5l2.5 2.5v113v0zM315.003 617.998l22.9951 0.00195312c0 -6 -0.5 -12 -1.5 -18s-2.16699 -12.333 -3.5 -19c-3.33301 -16 -9.66602 -30.667 -18.999 -44s-22.666 -20 -39.999 -20c-10.667 0 -21.667 2 -33 6s-22.666 8.33301 -33.999 13l-35 12c-12 4 -24 6 -36 6
c-10.667 0 -18.667 -4 -24 -12s-8.66602 -16.667 -9.99902 -26l-25 1c0 3.33301 0.333008 7.16602 1 11.499l2 12.5c2.66699 19.333 8.5 36.833 17.5 52.5s24.833 23.5 47.5 23.5c12 0 23.667 -2 35 -6s22.666 -8.33301 33.999 -13
c0.666992 -0.666992 1.33398 -1.16699 2.00098 -1.5s1.33398 -0.5 2.00098 -0.5c10 -4.66699 20.333 -8.83398 31 -12.501s21.667 -5.5 33 -5.5c8.66699 0 15.5 3.33301 20.5 10s8.83301 14 11.5 22c0 1.33301 0.166992 2.5 0.5 3.5s0.5 2.16699 0.5 3.5v1z" />
    <glyph glyph-name="adieresis" unicode="&#xe4;" horiz-adv-x="415" 
d="M389 52l12.002 -19c-12.667 -10.667 -26.667 -19.834 -42 -27.501s-31.333 -11.5 -48 -11.5c-19.333 0 -32.5 6 -39.5 18s-11.167 26.333 -12.5 43c-16.667 -18 -35.334 -33.5 -56.001 -46.5s-43.667 -19.5 -69 -19.5c-27.333 0 -49.833 9.16699 -67.5 27.5
s-26.5 40.833 -26.5 67.5c0 28 9.5 48.667 28.5 62s39.833 24 62.5 32l10 4l10 4l107 40v33c0 6 -0.166992 12.833 -0.5 20.5s-1.16602 15.834 -2.49902 24.501c-2 17.333 -7.16699 33.5 -15.5 48.5s-22.5 22.5 -42.5 22.5c-4.66699 0 -10 -0.666992 -16 -2
s-12.333 -3.33301 -19 -6c-11.333 -4.66699 -22.166 -11 -32.499 -19s-15.833 -17 -16.5 -27c-2 -15.333 -7 -25.666 -15 -30.999s-20 -8.66602 -36 -9.99902c-2.66699 0 -4.83398 0.833008 -6.50098 2.5s-2.5 3.83398 -2.5 6.50098c0 14.667 3.5 27 10.5 37
s16.167 19 27.5 27l19.5 13.5l21.5 15.5l18.5 12.5c6.33301 4.33301 12.833 8.16602 19.5 11.499c8.66699 4.66699 17.5 8.66699 26.5 12s17.5 5 25.5 5c43.333 0 71.666 -14.667 84.999 -44s20.333 -61.666 21 -96.999v-4v-4c0 -14.667 -0.166992 -29.334 -0.5 -44.001
s-0.5 -29.334 -0.5 -44.001c0 -15.333 -0.166992 -30.333 -0.5 -45s-0.5 -29.334 -0.5 -44.001v-8v-8c1.33301 -11.333 4 -21.833 8 -31.5s11.333 -14.5 22 -14.5c4 0 8.16699 1 12.5 3s8.16602 4.33301 11.499 7c1.33301 1.33301 2.83301 2.5 4.5 3.5
s3.16699 1.83301 4.5 2.5v1zM258.002 198c-8 -3.33301 -16.999 -6.66797 -26.999 -10.001s-20 -7 -30 -11c-21.333 -8 -40.833 -18.333 -58.5 -31s-26.5 -30 -26.5 -52c0 -15.333 5.33301 -28.666 16 -39.999s24 -17 40 -17s30.667 4.5 44 13.5s25.666 18.833 36.999 29.5
l2.5 2.5l2.5 2.5v113v0zM172.003 565.998c0 -13.333 -4.49805 -24.5 -13.498 -33.5s-19.833 -13.5 -32.5 -13.5s-24.167 4.33301 -34.5 13s-15.5 19.334 -15.5 32.001c0 13.333 4.66699 25.166 14 35.499s20.666 15.5 33.999 15.5s24.666 -5 33.999 -15s14 -21.667 14 -35v1
zM338.005 565.998c0 -13.333 -4.49902 -24.5 -13.499 -33.5s-19.833 -13.5 -32.5 -13.5s-24 4.33301 -34 13s-15 19.334 -15 32.001c0 13.333 4.66699 25.166 14 35.499s20.666 15.5 33.999 15.5s24.5 -5 33.5 -15s13.5 -21.667 13.5 -35v1z" />
    <glyph glyph-name="aring" unicode="&#xe5;" horiz-adv-x="415" 
d="M389 52l12.002 -19c-12.667 -10.667 -26.667 -19.834 -42 -27.501s-31.333 -11.5 -48 -11.5c-19.333 0 -32.5 6 -39.5 18s-11.167 26.333 -12.5 43c-16.667 -18 -35.334 -33.5 -56.001 -46.5s-43.667 -19.5 -69 -19.5c-27.333 0 -49.833 9.16699 -67.5 27.5
s-26.5 40.833 -26.5 67.5c0 28 9.5 48.667 28.5 62s39.833 24 62.5 32l10 4l10 4l107 40v33c0 6 -0.166992 12.833 -0.5 20.5s-1.16602 15.834 -2.49902 24.501c-2 17.333 -7.16699 33.5 -15.5 48.5s-22.5 22.5 -42.5 22.5c-4.66699 0 -10 -0.666992 -16 -2
s-12.333 -3.33301 -19 -6c-11.333 -4.66699 -22.166 -11 -32.499 -19s-15.833 -17 -16.5 -27c-2 -15.333 -7 -25.666 -15 -30.999s-20 -8.66602 -36 -9.99902c-2.66699 0 -4.83398 0.833008 -6.50098 2.5s-2.5 3.83398 -2.5 6.50098c0 14.667 3.5 27 10.5 37
s16.167 19 27.5 27l19.5 13.5l21.5 15.5l18.5 12.5c6.33301 4.33301 12.833 8.16602 19.5 11.499c8.66699 4.66699 17.5 8.66699 26.5 12s17.5 5 25.5 5c43.333 0 71.666 -14.667 84.999 -44s20.333 -61.666 21 -96.999v-4v-4c0 -14.667 -0.166992 -29.334 -0.5 -44.001
s-0.5 -29.334 -0.5 -44.001c0 -15.333 -0.166992 -30.333 -0.5 -45s-0.5 -29.334 -0.5 -44.001v-8v-8c1.33301 -11.333 4 -21.833 8 -31.5s11.333 -14.5 22 -14.5c4 0 8.16699 1 12.5 3s8.16602 4.33301 11.499 7c1.33301 1.33301 2.83301 2.5 4.5 3.5
s3.16699 1.83301 4.5 2.5v1zM258.002 198c-8 -3.33301 -16.999 -6.66797 -26.999 -10.001s-20 -7 -30 -11c-21.333 -8 -40.833 -18.333 -58.5 -31s-26.5 -30 -26.5 -52c0 -15.333 5.33301 -28.666 16 -39.999s24 -17 40 -17s30.667 4.5 44 13.5s25.666 18.833 36.999 29.5
l2.5 2.5l2.5 2.5v113v0zM285.003 566.998c0 -21.333 -7.66895 -39.833 -23.002 -55.5s-33.666 -23.5 -54.999 -23.5s-39.666 7.83301 -54.999 23.5s-23 34.167 -23 55.5s7.83301 39.333 23.5 54s33.834 22 54.501 22c21.333 0 39.666 -7.5 54.999 -22.5s23 -33.167 23 -54.5
v1zM252.001 568.998c0 11.333 -4.50098 21.333 -13.501 30s-19.5 13 -31.5 13s-22.667 -4.16699 -32 -12.5s-14 -18.833 -14 -31.5s4.33301 -23.834 13 -33.501s19.334 -14.5 32.001 -14.5s23.5 4.83301 32.5 14.5s13.5 20.834 13.5 33.501v1z" />
    <glyph glyph-name="Otilde" unicode="&#xe6;" horiz-adv-x="578" 
d="M541 80l17.001 -18.0029c-19.333 -21.333 -42.166 -37.833 -68.499 -49.5s-53.833 -18.167 -82.5 -19.5h-4h-4c-30.667 0 -58.334 6.66699 -83.001 20s-44.667 33 -60 59c-16 -20.667 -35.167 -39 -57.5 -55s-47.166 -24 -74.499 -24
c-25.333 0 -46.666 8.83301 -63.999 26.5s-26 38.834 -26 63.501c0 12 2 23.5 6 34.5s11.333 19.833 22 26.5c17.333 12 35.5 22.333 54.5 31s38.5 16.667 58.5 24l14.5 6l14.5 6c4.66699 1.33301 9.5 3 14.5 5l14.5 6c0.666992 6 1.16699 12 1.5 18s0.5 12.333 0.5 19v18
v18c0 22.667 -3.5 43.334 -10.5 62.001s-24.167 28 -51.5 28c-16.667 0 -30.667 -5.16699 -42 -15.5s-17.333 -24.166 -18 -41.499c0 -6 -2.83301 -10.667 -8.5 -14s-11.834 -6 -18.501 -8c-4.66699 -0.666992 -9 -1.33398 -13 -2.00098s-7.33301 -1.33398 -10 -2.00098
c-2.66699 0 -5 0.833008 -7 2.5s-3 3.83398 -3 6.50098c0 27.333 10.333 48.166 31 62.499s43.334 25.5 68.001 33.5c10.667 4 21.167 7.33301 31.5 10s19.833 5.33398 28.5 8.00098c21.333 -2.66699 39.166 -9.66699 53.499 -21s26.166 -26.666 35.499 -45.999
c15.333 17.333 33.666 32.666 54.999 45.999s44.333 20 69 20c5.33301 0 11.166 -0.5 17.499 -1.5s12.5 -2.16699 18.5 -3.5c19.333 -5.33301 37.166 -14.5 53.499 -27.5s24.5 -29.833 24.5 -50.5c0 -14 -5 -24.667 -15 -32s-20.667 -13 -32 -17
c-3.33301 -1.33301 -6.5 -2.5 -9.5 -3.5s-5.83301 -2.16699 -8.5 -3.5c-1.33301 0 -2.5 -0.166992 -3.5 -0.5s-1.83301 -0.833008 -2.5 -1.5l-169 -67c1.33301 -45.333 12.833 -86.166 34.5 -122.499s57.834 -54.5 108.501 -54.5c18.667 0 36.334 3.83301 53.001 11.5
s32 17.167 46 28.5v1zM232.001 191.997c-6.66699 -3.33301 -14.334 -6.49805 -23.001 -9.49805s-17.334 -6.16699 -26.001 -9.5c-19.333 -8 -37 -18 -53 -30s-24 -28.333 -24 -49c0 -14.667 4.83301 -27.334 14.5 -38.001s22.167 -16 37.5 -16c16.667 0 31.834 5 45.501 15
s25.834 21 36.501 33c1.33301 0.666992 2.5 1.66699 3.5 3s2.16699 2.66602 3.5 3.99902c-3.33301 10.667 -6 21.334 -8 32.001s-3.33301 21.334 -4 32.001c-0.666992 5.33301 -1.16699 10.666 -1.5 15.999s-0.833008 10.666 -1.5 15.999v1zM299.001 246.999l133 54.999
c2 0 3.83301 0.333008 5.5 1s3.5 1.33398 5.5 2.00098c8 2.66699 15.167 6.5 21.5 11.5s9.5 11.833 9.5 20.5c0 12.667 -4.83301 23 -14.5 31s-20.5 13.333 -32.5 16c-2 0.666992 -4.33301 1.16699 -7 1.5s-5 0.5 -7 0.5c-32 0 -57 -11.833 -75 -35.5s-30 -49.5 -36 -77.5
l-2 -13.5c-0.666992 -4.33301 -1 -8.83301 -1 -13.5v1z" />
    <glyph glyph-name="ccedilla" unicode="&#xe7;" horiz-adv-x="398" 
d="M369 89l15.998 -19.002c-16.667 -20.667 -36 -37.5 -58 -50.5s-46 -21.5 -72 -25.5l-35 -33c20 0 37.667 -5.16699 53 -15.5s23 -26.5 23 -48.5c0 -23.333 -8.66699 -41 -26 -53s-36.333 -20.333 -57 -25c-6.66699 -1.33301 -13.5 -2.33301 -20.5 -3s-13.5 -1 -19.5 -1
c-2.66699 0 -5.5 0.166992 -8.5 0.5s-6.16699 0.833008 -9.5 1.5c-7.33301 1.33301 -13.833 3.83301 -19.5 7.5s-8.83398 9.16699 -9.50098 16.5c0 6 1.83301 10.667 5.5 14s8.5 5 14.5 5c4 0 7.83301 -0.833008 11.5 -2.5s7.16699 -3.5 10.5 -5.5
c0.666992 0 1.16699 -0.166992 1.5 -0.5l0.5 -0.5l12 -6c4 -2 8.33301 -3 13 -3c11.333 0 20.833 4 28.5 12s11.5 18 11.5 30c0 11.333 -4.16699 20.333 -12.5 27s-18.166 10 -29.499 10c-6.66699 0 -13 -0.666992 -19 -2s-12 -3.33301 -18 -6l-9 20l79 60
c-58.667 4.66699 -104.834 25.334 -138.501 62.001s-50.5 84.334 -50.5 143.001c0 62 19.5 114.667 58.5 158s90.5 65 154.5 65c6.66699 0 15.334 -0.833008 26.001 -2.5s21.667 -4.16699 33 -7.5c17.333 -5.33301 33.5 -12.5 48.5 -21.5s22.5 -19.167 22.5 -30.5
c0 -8 -3.5 -15.333 -10.5 -22s-14.5 -10.667 -22.5 -12h-2.5h-2.5c-1.33301 0 -2.83301 0.166992 -4.5 0.5s-3.16699 1.16602 -4.5 2.49902c-4.66699 2 -9.33398 5.83301 -14.001 11.5s-10 11.5 -16 17.5c-7.33301 8 -16.166 15.333 -26.499 22s-22.5 10 -36.5 10
c-40 0 -70.667 -15 -92 -45s-33.333 -63 -36 -99v-6.5v-6.5v-10c0 -3.33301 0.333008 -6.66602 1 -9.99902c3.33301 -42 17.5 -80.5 42.5 -115.5s60.833 -52.5 107.5 -52.5c20.667 0 39.834 4.16699 57.501 12.5s33.834 18.833 48.501 31.5v1z" />
    <glyph glyph-name="egrave" unicode="&#xe8;" horiz-adv-x="386" 
d="M352 84l14.001 -20c-20 -22.667 -43.333 -40.167 -70 -52.5s-54.667 -18.5 -84 -18.5c-50 0 -90.333 19 -121 57s-48.334 80 -53.001 126c0 4 -0.166992 7.83301 -0.5 11.5s-0.5 7.5 -0.5 11.5c0 58.667 17.5 110.834 52.5 156.501s83.5 68.5 145.5 68.5
c34.667 0 64.667 -11.833 90 -35.5s38 -52.834 38 -87.501c0 -18 -3 -29.667 -9 -35s-17 -8 -33 -8l-216 1c-0.666992 -6 -1.33398 -11.5 -2.00098 -16.5s-1 -10.167 -1 -15.5c0 -44.667 13.667 -85 41 -121s65 -54 113 -54c18 0 34.833 2.83301 50.5 8.5
s30.834 13.167 45.501 22.5v1zM112.001 293l144 -0.000976562c1.33301 -0.666992 2.5 -1 3.5 -1h3.5c8 0 15.333 1.33301 22 4s10 9.33398 10 20.001c0 20.667 -7.16699 37.667 -21.5 51s-31.5 20 -51.5 20c-30 0 -53.5 -9.5 -70.5 -28.5s-30.167 -41.167 -39.5 -66.5v1z
M199.001 660.999l70 -170.999l-21 -10l-124 161l-0.5 0.5l-1.5 1.5c-1.33301 2 -2.5 4 -3.5 6s-1.5 3.66699 -1.5 5s0.833008 2.66602 2.5 3.99902s4.5 2 8.5 2l71 1v0z" />
    <glyph glyph-name="eacute" unicode="&#xe9;" horiz-adv-x="386" 
d="M352 84l14.001 -20c-20 -22.667 -43.333 -40.167 -70 -52.5s-54.667 -18.5 -84 -18.5c-50 0 -90.333 19 -121 57s-48.334 80 -53.001 126c0 4 -0.166992 7.83301 -0.5 11.5s-0.5 7.5 -0.5 11.5c0 58.667 17.5 110.834 52.5 156.501s83.5 68.5 145.5 68.5
c34.667 0 64.667 -11.833 90 -35.5s38 -52.834 38 -87.501c0 -18 -3 -29.667 -9 -35s-17 -8 -33 -8l-216 1c-0.666992 -6 -1.33398 -11.5 -2.00098 -16.5s-1 -10.167 -1 -15.5c0 -44.667 13.667 -85 41 -121s65 -54 113 -54c18 0 34.833 2.83301 50.5 8.5
s30.834 13.167 45.501 22.5v1zM112.001 293l144 -0.000976562c1.33301 -0.666992 2.5 -1 3.5 -1h3.5c8 0 15.333 1.33301 22 4s10 9.33398 10 20.001c0 20.667 -7.16699 37.667 -21.5 51s-31.5 20 -51.5 20c-30 0 -53.5 -9.5 -70.5 -28.5s-30.167 -41.167 -39.5 -66.5v1z
M187.001 660.999l67 0.00292969c0.666992 -0.666992 1.5 -1 2.5 -1h2.5c2.66699 -0.666992 4.83398 -1.33398 6.50098 -2.00098s2.5 -2.33398 2.5 -5.00098v0c0 -2.66699 -0.666992 -4.83398 -2 -6.50098s-2.66602 -3.5 -3.99902 -5.5
c-0.666992 -1.33301 -1.33398 -2.5 -2.00098 -3.5s-1.33398 -1.83301 -2.00098 -2.5l-116 -155l-23 10l68 171v0z" />
    <glyph glyph-name="ecircumflex" unicode="&#xea;" horiz-adv-x="386" 
d="M352 84l14.001 -20c-20 -22.667 -43.333 -40.167 -70 -52.5s-54.667 -18.5 -84 -18.5c-50 0 -90.333 19 -121 57s-48.334 80 -53.001 126c0 4 -0.166992 7.83301 -0.5 11.5s-0.5 7.5 -0.5 11.5c0 58.667 17.5 110.834 52.5 156.501s83.5 68.5 145.5 68.5
c34.667 0 64.667 -11.833 90 -35.5s38 -52.834 38 -87.501c0 -18 -3 -29.667 -9 -35s-17 -8 -33 -8l-216 1c-0.666992 -6 -1.33398 -11.5 -2.00098 -16.5s-1 -10.167 -1 -15.5c0 -44.667 13.667 -85 41 -121s65 -54 113 -54c18 0 34.833 2.83301 50.5 8.5
s30.834 13.167 45.501 22.5v1zM112.001 293l144 -0.000976562c1.33301 -0.666992 2.5 -1 3.5 -1h3.5c8 0 15.333 1.33301 22 4s10 9.33398 10 20.001c0 20.667 -7.16699 37.667 -21.5 51s-31.5 20 -51.5 20c-30 0 -53.5 -9.5 -70.5 -28.5s-30.167 -41.167 -39.5 -66.5v1z
M167.001 664.999h51l86 -179l-18 -11l-95 116l-91 -116l-17 11l84 179v0z" />
    <glyph glyph-name="edieresis" unicode="&#xeb;" horiz-adv-x="386" 
d="M352 84l14.001 -20c-20 -22.667 -43.333 -40.167 -70 -52.5s-54.667 -18.5 -84 -18.5c-50 0 -90.333 19 -121 57s-48.334 80 -53.001 126c0 4 -0.166992 7.83301 -0.5 11.5s-0.5 7.5 -0.5 11.5c0 58.667 17.5 110.834 52.5 156.501s83.5 68.5 145.5 68.5
c34.667 0 64.667 -11.833 90 -35.5s38 -52.834 38 -87.501c0 -18 -3 -29.667 -9 -35s-17 -8 -33 -8l-216 1c-0.666992 -6 -1.33398 -11.5 -2.00098 -16.5s-1 -10.167 -1 -15.5c0 -44.667 13.667 -85 41 -121s65 -54 113 -54c18 0 34.833 2.83301 50.5 8.5
s30.834 13.167 45.501 22.5v1zM112.001 293l144 -0.000976562c1.33301 -0.666992 2.5 -1 3.5 -1h3.5c8 0 15.333 1.33301 22 4s10 9.33398 10 20.001c0 20.667 -7.16699 37.667 -21.5 51s-31.5 20 -51.5 20c-30 0 -53.5 -9.5 -70.5 -28.5s-30.167 -41.167 -39.5 -66.5v1z
M158.001 564.999c0 -13.333 -4.49805 -24.5 -13.498 -33.5s-19.833 -13.5 -32.5 -13.5s-24.167 4.33301 -34.5 13s-15.5 19.334 -15.5 32.001c0 13.333 4.66699 25.166 14 35.499s20.666 15.5 33.999 15.5s24.666 -5 33.999 -15s14 -21.667 14 -35v1zM324.003 564.999
c0 -13.333 -4.49902 -24.5 -13.499 -33.5s-19.833 -13.5 -32.5 -13.5s-24 4.33301 -34 13s-15 19.334 -15 32.001c0 13.333 4.66699 25.166 14 35.499s20.666 15.5 33.999 15.5s24.5 -5 33.5 -15s13.5 -21.667 13.5 -35v1z" />
    <glyph glyph-name="igrave" unicode="&#xec;" horiz-adv-x="276" 
d="M48 354l1.00195 26.002c21.333 5.33301 42 12.5 62 21.5s39.333 19.167 58 30.5l18 -7l-4 -29c-1.33301 -9.33301 -2.33301 -18.666 -3 -27.999c-0.666992 -10 -1.16699 -19.667 -1.5 -29s-0.5 -18.666 -0.5 -27.999l1 -86v-32.5v-30.5
c-0.666992 -10.667 -1 -21.167 -1 -31.5v-31.5c0 -23.333 3 -40.333 9 -51s22 -16 48 -16l5 1v-33c-16.667 0.666992 -33 1.5 -49 2.5s-32 1.5 -48 1.5c-8.66699 0 -17.334 -0.166992 -26.001 -0.5s-17 -0.5 -25 -0.5l-26 -2c-8.66699 -0.666992 -17.334 -1 -26.001 -1v33
c28.667 -0.666992 47 3.66602 55 12.999s12 27.666 12 54.999v46v47c0 15.333 -0.166992 30.666 -0.5 45.999s-0.5 30.666 -0.5 45.999c0 23.333 -3.5 40.333 -10.5 51s-22.833 16 -47.5 16v1zM143.002 661.002l70 -170.999l-21 -10l-124 161l-0.5 0.5l-1.5 1.5
c-1.33301 2 -2.5 4 -3.5 6s-1.5 3.66699 -1.5 5s0.833008 2.66602 2.5 3.99902s4.5 2 8.5 2l71 1v0z" />
    <glyph glyph-name="iacute" unicode="&#xed;" horiz-adv-x="276" 
d="M48 354l1.00195 26.002c21.333 5.33301 42 12.5 62 21.5s39.333 19.167 58 30.5l18 -7l-4 -29c-1.33301 -9.33301 -2.33301 -18.666 -3 -27.999c-0.666992 -10 -1.16699 -19.667 -1.5 -29s-0.5 -18.666 -0.5 -27.999l1 -86v-32.5v-30.5
c-0.666992 -10.667 -1 -21.167 -1 -31.5v-31.5c0 -23.333 3 -40.333 9 -51s22 -16 48 -16l5 1v-33c-16.667 0.666992 -33 1.5 -49 2.5s-32 1.5 -48 1.5c-8.66699 0 -17.334 -0.166992 -26.001 -0.5s-17 -0.5 -25 -0.5l-26 -2c-8.66699 -0.666992 -17.334 -1 -26.001 -1v33
c28.667 -0.666992 47 3.66602 55 12.999s12 27.666 12 54.999v46v47c0 15.333 -0.166992 30.666 -0.5 45.999s-0.5 30.666 -0.5 45.999c0 23.333 -3.5 40.333 -10.5 51s-22.833 16 -47.5 16v1zM131.002 661.002l67 0.00292969c0.666992 -0.666992 1.5 -1 2.5 -1h2.5
c2.66699 -0.666992 4.83398 -1.33398 6.50098 -2.00098s2.5 -2.33398 2.5 -5.00098v0c0 -2.66699 -0.666992 -4.83398 -2 -6.50098s-2.66602 -3.5 -3.99902 -5.5c-0.666992 -1.33301 -1.33398 -2.5 -2.00098 -3.5s-1.33398 -1.83301 -2.00098 -2.5l-116 -155l-23 10l68 171
v0z" />
    <glyph glyph-name="icircumflex" unicode="&#xee;" horiz-adv-x="276" 
d="M48 354l1.00195 26.002c21.333 5.33301 42 12.5 62 21.5s39.333 19.167 58 30.5l18 -7l-4 -29c-1.33301 -9.33301 -2.33301 -18.666 -3 -27.999c-0.666992 -10 -1.16699 -19.667 -1.5 -29s-0.5 -18.666 -0.5 -27.999l1 -86v-32.5v-30.5
c-0.666992 -10.667 -1 -21.167 -1 -31.5v-31.5c0 -23.333 3 -40.333 9 -51s22 -16 48 -16l5 1v-33c-16.667 0.666992 -33 1.5 -49 2.5s-32 1.5 -48 1.5c-8.66699 0 -17.334 -0.166992 -26.001 -0.5s-17 -0.5 -25 -0.5l-26 -2c-8.66699 -0.666992 -17.334 -1 -26.001 -1v33
c28.667 -0.666992 47 3.66602 55 12.999s12 27.666 12 54.999v46v47c0 15.333 -0.166992 30.666 -0.5 45.999s-0.5 30.666 -0.5 45.999c0 23.333 -3.5 40.333 -10.5 51s-22.833 16 -47.5 16v1zM111.002 665.002h51l86 -179l-18 -11l-95 116l-91 -116l-17 11l84 179v0z" />
    <glyph glyph-name="idieresis" unicode="&#xef;" horiz-adv-x="276" 
d="M48 354l1.00195 26.002c21.333 5.33301 42 12.5 62 21.5s39.333 19.167 58 30.5l18 -7l-4 -29c-1.33301 -9.33301 -2.33301 -18.666 -3 -27.999c-0.666992 -10 -1.16699 -19.667 -1.5 -29s-0.5 -18.666 -0.5 -27.999l1 -86v-32.5v-30.5
c-0.666992 -10.667 -1 -21.167 -1 -31.5v-31.5c0 -23.333 3 -40.333 9 -51s22 -16 48 -16l5 1v-33c-16.667 0.666992 -33 1.5 -49 2.5s-32 1.5 -48 1.5c-8.66699 0 -17.334 -0.166992 -26.001 -0.5s-17 -0.5 -25 -0.5l-26 -2c-8.66699 -0.666992 -17.334 -1 -26.001 -1v33
c28.667 -0.666992 47 3.66602 55 12.999s12 27.666 12 54.999v46v47c0 15.333 -0.166992 30.666 -0.5 45.999s-0.5 30.666 -0.5 45.999c0 23.333 -3.5 40.333 -10.5 51s-22.833 16 -47.5 16v1zM102.002 565.002c0 -13.333 -4.49805 -24.5 -13.498 -33.5
s-19.833 -13.5 -32.5 -13.5s-24.167 4.33301 -34.5 13s-15.5 19.334 -15.5 32.001c0 13.333 4.66699 25.166 14 35.499s20.666 15.5 33.999 15.5s24.666 -5 33.999 -15s14 -21.667 14 -35v1zM268.004 565.002c0 -13.333 -4.49902 -24.5 -13.499 -33.5
s-19.833 -13.5 -32.5 -13.5s-24 4.33301 -34 13s-15 19.334 -15 32.001c0 13.333 4.66699 25.166 14 35.499s20.666 15.5 33.999 15.5s24.5 -5 33.5 -15s13.5 -21.667 13.5 -35v1z" />
    <glyph glyph-name="glyph233" unicode="&#xf0;" horiz-adv-x="507" 
d="M222 640l102 77.999l23 -31l-89 -68c66.667 -47.333 118.834 -106 156.501 -176s56.5 -146.333 56.5 -229c0 -66 -21.5 -119.167 -64.5 -159.5s-96.833 -60.5 -161.5 -60.5c-62 0 -112.167 21.667 -150.5 65s-57.5 95 -57.5 155c0 58.667 22.333 109 67 151
s95.667 63 153 63c14.667 0 29.167 -1.33301 43.5 -4s28.5 -6.66699 42.5 -12c-16 33.333 -35 64 -57 92s-47 53.667 -75 77l-108 -84l-25 31l101 79c-22 16.667 -45.167 31.5 -69.5 44.5s-49.833 24.5 -76.5 34.5l11 25c31.333 -8 62.166 -17.667 92.499 -29
s58.833 -25.666 85.5 -42.999v1zM117 217.999c0 -8.66699 0.5 -17.166 1.5 -25.499s2.16699 -16.833 3.5 -25.5c7.33301 -32.667 21.5 -63 42.5 -91s49.167 -43.667 84.5 -47c49.333 0 85.833 17.167 109.5 51.5s35.5 74.166 35.5 119.499
c0 7.33301 -0.333008 14.833 -1 22.5s-1.66699 15.5 -3 23.5c-7.33301 36 -22.333 69.167 -45 99.5s-53.667 45.5 -93 45.5c-44.667 0 -77.667 -16.5 -99 -49.5s-33.333 -69.167 -36 -108.5v-8v-8v1z" />
    <glyph glyph-name="ntilde" unicode="&#xf1;" horiz-adv-x="542" 
d="M179 319l0.00292969 -155.004c0 -6 -0.166992 -11.5 -0.5 -16.5s-0.5 -10.167 -0.5 -15.5v-15.5v-15.5c0 -23.333 2.66699 -40.666 8 -51.999s21.333 -17 48 -17l8 1v-33h-12.5c-4.33301 0 -8.5 0.333008 -12.5 1l-39 2c-12.667 0.666992 -25.334 1 -38.001 1
c-8 0 -16.167 -0.166992 -24.5 -0.5s-16.833 -0.5 -25.5 -0.5l-25.5 -2c-8.33301 -0.666992 -16.5 -1 -24.5 -1v33c27.333 -0.666992 45.5 3.33301 54.5 12s13.5 26.667 13.5 54v46.5c0 15.667 -0.333008 31.5 -1 47.5c0 15.333 -0.166992 30.833 -0.5 46.5
s-0.5 31.167 -0.5 46.5c0 24.667 -3 42 -9 52s-21.333 15 -46 15v27c20 6.66699 39.5 14.334 58.5 23.001s37.833 18.334 56.5 29.001l19 -8c-1.33301 -12 -2.5 -23.833 -3.5 -35.5s-1.83301 -23.167 -2.5 -34.5c3.33301 2.66699 7 5.33398 11 8.00098l12 8
c18.667 13.333 38.834 25.666 60.501 36.999s44.167 17 67.5 17c46 0 77.833 -15.167 95.5 -45.5s26.5 -65.5 26.5 -105.5v-44.5v-44.5c-0.666992 -14.667 -1 -29.5 -1 -44.5v-44.5v-4v-3c0 -10 0.833008 -19.167 2.5 -27.5s4.5 -14.166 8.5 -17.499
c3.33301 -3.33301 7.66602 -5.83301 12.999 -7.5s10.666 -2.5 15.999 -2.5c2.66699 -0.666992 5.5 -1 8.5 -1h8.5l2 1v-33h-12.5c-4.33301 -0 -8.5 0.333008 -12.5 1l-37 2c-12.667 0.666992 -25.334 1 -38.001 1c-8 0 -16 -0.166992 -24 -0.5s-16 -0.833008 -24 -1.5
c-4.66699 0 -9 -0.166992 -13 -0.5s-8 -0.5 -12 -0.5c-4 -0.666992 -8 -1 -12 -1h-12v33c29.333 -0.666992 47.833 3.83301 55.5 13.5s11.5 27.834 11.5 54.501v34.5v34.5c-0.666992 11.333 -1 22.833 -1 34.5v34.5c0 5.33301 -0.166992 10.833 -0.5 16.5
s-0.5 11.167 -0.5 16.5c-2.66699 25.333 -9.66699 48.333 -21 69s-32 31 -62 31c-22.667 0 -43.5 -5.33301 -62.5 -16s-36.833 -23.334 -53.5 -38.001v1zM379.003 617.996l22.9951 0.00195312c0 -6 -0.5 -12 -1.5 -18s-2.16699 -12.333 -3.5 -19
c-3.33301 -16 -9.66602 -30.667 -18.999 -44s-22.666 -20 -39.999 -20c-10.667 0 -21.667 2 -33 6s-22.666 8.33301 -33.999 13l-35 12c-12 4 -24 6 -36 6c-10.667 0 -18.667 -4 -24 -12s-8.66602 -16.667 -9.99902 -26l-25 1c0 3.33301 0.333008 7.16602 1 11.499l2 12.5
c2.66699 19.333 8.5 36.833 17.5 52.5s24.833 23.5 47.5 23.5c12 0 23.667 -2 35 -6s22.666 -8.33301 33.999 -13c0.666992 -0.666992 1.33398 -1.16699 2.00098 -1.5s1.33398 -0.5 2.00098 -0.5c10 -4.66699 20.333 -8.83398 31 -12.501s21.667 -5.5 33 -5.5
c8.66699 0 15.5 3.33301 20.5 10s8.83301 14 11.5 22c0 1.33301 0.166992 2.5 0.5 3.5s0.5 2.16699 0.5 3.5v1z" />
    <glyph glyph-name="ograve" unicode="&#xf2;" horiz-adv-x="508" 
d="M472 207c0 -61.333 -21.833 -112.334 -65.5 -153.001s-95.167 -61 -154.5 -61c-63.333 0 -115 20.667 -155 62s-60 93.333 -60 156c0 62 22 113.667 66 155s96.333 62 157 62c63.333 0 114.5 -21.667 153.5 -65s58.5 -95.666 58.5 -156.999v1zM394 197.999
c0 6.66699 -0.330078 13.833 -0.99707 21.5s-1.66699 15.167 -3 22.5c-6.66699 37.333 -21.5 71.5 -44.5 102.5s-54.833 46.5 -95.5 46.5c-42.667 0 -75.334 -16.333 -98.001 -49s-34.334 -68.334 -35.001 -107.001v-1.5v-1.5c0 -9.33301 0.5 -19.166 1.5 -29.499
s2.5 -20.5 4.5 -30.5c7.33301 -36 21.666 -69 42.999 -99s52.333 -45 93 -45c46.667 0 80.667 17.333 102 52s32.333 72.667 33 114v1.5v1.5v1zM260.003 660.998l70 -170.999l-21 -10l-124 161l-0.5 0.5l-1.5 1.5c-1.33301 2 -2.5 4 -3.5 6s-1.5 3.66699 -1.5 5
s0.833008 2.66602 2.5 3.99902s4.5 2 8.5 2l71 1v0z" />
    <glyph glyph-name="oacute" unicode="&#xf3;" horiz-adv-x="508" 
d="M472 207c0 -61.333 -21.833 -112.334 -65.5 -153.001s-95.167 -61 -154.5 -61c-63.333 0 -115 20.667 -155 62s-60 93.333 -60 156c0 62 22 113.667 66 155s96.333 62 157 62c63.333 0 114.5 -21.667 153.5 -65s58.5 -95.666 58.5 -156.999v1zM394 197.999
c0 6.66699 -0.330078 13.833 -0.99707 21.5s-1.66699 15.167 -3 22.5c-6.66699 37.333 -21.5 71.5 -44.5 102.5s-54.833 46.5 -95.5 46.5c-42.667 0 -75.334 -16.333 -98.001 -49s-34.334 -68.334 -35.001 -107.001v-1.5v-1.5c0 -9.33301 0.5 -19.166 1.5 -29.499
s2.5 -20.5 4.5 -30.5c7.33301 -36 21.666 -69 42.999 -99s52.333 -45 93 -45c46.667 0 80.667 17.333 102 52s32.333 72.667 33 114v1.5v1.5v1zM248.003 660.998l67 0.00292969c0.666992 -0.666992 1.5 -1 2.5 -1h2.5c2.66699 -0.666992 4.83398 -1.33398 6.50098 -2.00098
s2.5 -2.33398 2.5 -5.00098v0c0 -2.66699 -0.666992 -4.83398 -2 -6.50098s-2.66602 -3.5 -3.99902 -5.5c-0.666992 -1.33301 -1.33398 -2.5 -2.00098 -3.5s-1.33398 -1.83301 -2.00098 -2.5l-116 -155l-23 10l68 171v0z" />
    <glyph glyph-name="ocircumflex" unicode="&#xf4;" horiz-adv-x="508" 
d="M472 207c0 -61.333 -21.833 -112.334 -65.5 -153.001s-95.167 -61 -154.5 -61c-63.333 0 -115 20.667 -155 62s-60 93.333 -60 156c0 62 22 113.667 66 155s96.333 62 157 62c63.333 0 114.5 -21.667 153.5 -65s58.5 -95.666 58.5 -156.999v1zM394 197.999
c0 6.66699 -0.330078 13.833 -0.99707 21.5s-1.66699 15.167 -3 22.5c-6.66699 37.333 -21.5 71.5 -44.5 102.5s-54.833 46.5 -95.5 46.5c-42.667 0 -75.334 -16.333 -98.001 -49s-34.334 -68.334 -35.001 -107.001v-1.5v-1.5c0 -9.33301 0.5 -19.166 1.5 -29.499
s2.5 -20.5 4.5 -30.5c7.33301 -36 21.666 -69 42.999 -99s52.333 -45 93 -45c46.667 0 80.667 17.333 102 52s32.333 72.667 33 114v1.5v1.5v1zM228.003 664.998h51l86 -179l-18 -11l-95 116l-91 -116l-17 11l84 179v0z" />
    <glyph glyph-name="otilde" unicode="&#xf5;" horiz-adv-x="508" 
d="M472 207c0 -61.333 -21.833 -112.334 -65.5 -153.001s-95.167 -61 -154.5 -61c-63.333 0 -115 20.667 -155 62s-60 93.333 -60 156c0 62 22 113.667 66 155s96.333 62 157 62c63.333 0 114.5 -21.667 153.5 -65s58.5 -95.666 58.5 -156.999v1zM394 197.999
c0 6.66699 -0.330078 13.833 -0.99707 21.5s-1.66699 15.167 -3 22.5c-6.66699 37.333 -21.5 71.5 -44.5 102.5s-54.833 46.5 -95.5 46.5c-42.667 0 -75.334 -16.333 -98.001 -49s-34.334 -68.334 -35.001 -107.001v-1.5v-1.5c0 -9.33301 0.5 -19.166 1.5 -29.499
s2.5 -20.5 4.5 -30.5c7.33301 -36 21.666 -69 42.999 -99s52.333 -45 93 -45c46.667 0 80.667 17.333 102 52s32.333 72.667 33 114v1.5v1.5v1zM362.003 616.998l22.9951 0.00195312c0 -6 -0.5 -12 -1.5 -18s-2.16699 -12.333 -3.5 -19
c-3.33301 -16 -9.66602 -30.667 -18.999 -44s-22.666 -20 -39.999 -20c-10.667 0 -21.667 2 -33 6s-22.666 8.33301 -33.999 13l-35 12c-12 4 -24 6 -36 6c-10.667 0 -18.667 -4 -24 -12s-8.66602 -16.667 -9.99902 -26l-25 1c0 3.33301 0.333008 7.16602 1 11.499l2 12.5
c2.66699 19.333 8.5 36.833 17.5 52.5s24.833 23.5 47.5 23.5c12 0 23.667 -2 35 -6s22.666 -8.33301 33.999 -13c0.666992 -0.666992 1.33398 -1.16699 2.00098 -1.5s1.33398 -0.5 2.00098 -0.5c10 -4.66699 20.333 -8.83398 31 -12.501s21.667 -5.5 33 -5.5
c8.66699 0 15.5 3.33301 20.5 10s8.83301 14 11.5 22c0 1.33301 0.166992 2.5 0.5 3.5s0.5 2.16699 0.5 3.5v1z" />
    <glyph glyph-name="odieresis" unicode="&#xf6;" horiz-adv-x="508" 
d="M472 207c0 -61.333 -21.833 -112.334 -65.5 -153.001s-95.167 -61 -154.5 -61c-63.333 0 -115 20.667 -155 62s-60 93.333 -60 156c0 62 22 113.667 66 155s96.333 62 157 62c63.333 0 114.5 -21.667 153.5 -65s58.5 -95.666 58.5 -156.999v1zM394 197.999
c0 6.66699 -0.330078 13.833 -0.99707 21.5s-1.66699 15.167 -3 22.5c-6.66699 37.333 -21.5 71.5 -44.5 102.5s-54.833 46.5 -95.5 46.5c-42.667 0 -75.334 -16.333 -98.001 -49s-34.334 -68.334 -35.001 -107.001v-1.5v-1.5c0 -9.33301 0.5 -19.166 1.5 -29.499
s2.5 -20.5 4.5 -30.5c7.33301 -36 21.666 -69 42.999 -99s52.333 -45 93 -45c46.667 0 80.667 17.333 102 52s32.333 72.667 33 114v1.5v1.5v1zM219.003 564.998c0 -13.333 -4.49805 -24.5 -13.498 -33.5s-19.833 -13.5 -32.5 -13.5s-24.167 4.33301 -34.5 13
s-15.5 19.334 -15.5 32.001c0 13.333 4.66699 25.166 14 35.499s20.666 15.5 33.999 15.5s24.666 -5 33.999 -15s14 -21.667 14 -35v1zM385.005 564.998c0 -13.333 -4.49902 -24.5 -13.499 -33.5s-19.833 -13.5 -32.5 -13.5s-24 4.33301 -34 13s-15 19.334 -15 32.001
c0 13.333 4.66699 25.166 14 35.499s20.666 15.5 33.999 15.5s24.5 -5 33.5 -15s13.5 -21.667 13.5 -35v1z" />
    <glyph glyph-name="Aacute" unicode="&#xf7;" 
 />
    <glyph glyph-name="OE" unicode="&#xf8;" horiz-adv-x="506" 
d="M404 457l30.998 -19l-38 -58c22.667 -21.333 40 -46.5 52 -75.5s18.667 -58.833 20 -89.5v-4.5v-4.5c0 -60.667 -21.167 -111.334 -63.5 -152.001s-93.5 -61 -153.5 -61c-16.667 0 -33 1.5 -49 4.5s-31.667 7.83301 -47 14.5l-41 -60l-29 18l39 59
c-28 21.333 -49.833 47.333 -65.5 78s-23.5 64.334 -23.5 101.001c0 62 21.333 114 64 156s94.667 63 156 63c4 0 8.16699 -0.166992 12.5 -0.5s8.83301 -0.5 13.5 -0.5c14.667 -2 29.334 -5.33301 44.001 -10s28.334 -10.667 41.001 -18l37 59v0zM184.998 55
c8 -8 17.167 -14 27.5 -18s20.833 -6.33301 31.5 -7c2 -0.666992 4.16699 -1 6.5 -1h7.5c47.333 0 81.333 17.5 102 52.5s31 73.5 31 115.5c0 22.667 -2.83301 45 -8.5 67s-14.167 42.333 -25.5 61l-172 -270v0zM334.998 353c-12 12 -25.6689 21.001 -41.002 27.001
s-31.666 9 -48.999 9c-40.667 0 -71.834 -15.333 -93.501 -46s-33.5 -64.334 -35.5 -101.001v-5.5v-5.5c0 -6.66699 0.166992 -13.5 0.5 -20.5s0.833008 -14.167 1.5 -21.5c2.66699 -19.333 7.33398 -38.5 14.001 -57.5s16.334 -36.167 29.001 -51.5l174 273v0z" />
    <glyph glyph-name="ugrave" unicode="&#xf9;" horiz-adv-x="521" 
d="M484 39l0.00195312 -29.0068c-21.333 -2.66699 -42.5 -5.66699 -63.5 -9s-41.833 -8 -62.5 -14l-12 13c2 10 3.83301 20.333 5.5 31s2.5 21.334 2.5 32.001c-20 -20 -43 -37.333 -69 -52s-53.667 -22 -83 -22c-40 0 -67.833 13.5 -83.5 40.5s-24.834 56.833 -27.501 89.5
c-0.666992 4.66699 -1 9.16699 -1 13.5v12.5v19.5c0 6.33301 0.333008 12.833 1 19.5v18.5v19.5v24c0 8 0.333008 16 1 24v24v24c0 25.333 -4.16699 42.333 -12.5 51s-24.5 13 -48.5 13v33c2 -1.33301 4 -2 6 -2h5c21.333 0 42.166 0.333008 62.499 1s40.833 3 61.5 7
c-2 -38 -3.33301 -76 -4 -114s-1 -76 -1 -114v-5v-5c0.666992 -5.33301 1 -10.666 1 -15.999s0.333008 -10.666 1 -15.999c1.33301 -25.333 7 -48.666 17 -69.999s31 -32 63 -32c21.333 0 41 4.33301 59 13s35.333 19.334 52 32.001v159v15.5
c0 5.66699 0.333008 11.167 1 16.5v16.5v16.5c0 24.667 -3.83301 41.5 -11.5 50.5s-24.167 13.5 -49.5 13.5v33c1.33301 -1.33301 2.66602 -2 3.99902 -2h4h7.5h7.5c2.66699 -0.666992 5.16699 -1 7.5 -1h7.5c16.667 0 33.167 0.833008 49.5 2.5s32.5 3.83398 48.5 6.50098
l-2 -19c-0.666992 -21.333 -1.16699 -42.5 -1.5 -63.5s-0.833008 -41.833 -1.5 -62.5v-62.5v-62.5v-7.5v-7.5c0 -17.333 0.5 -33.5 1.5 -48.5s2.5 -24.833 4.5 -29.5c3.33301 -6.66699 8.16602 -11.167 14.499 -13.5s12.833 -4.16602 19.5 -5.49902
c2.66699 0 5.33398 -0.166992 8.00098 -0.5s5.33398 -0.5 8.00098 -0.5h1.5h1.5v1zM267.002 660.993l70 -170.999l-21 -10l-124 161l-0.5 0.5l-1.5 1.5c-1.33301 2 -2.5 4 -3.5 6s-1.5 3.66699 -1.5 5s0.833008 2.66602 2.5 3.99902s4.5 2 8.5 2l71 1v0z" />
    <glyph glyph-name="uacute" unicode="&#xfa;" horiz-adv-x="521" 
d="M484 39l0.00195312 -29.0068c-21.333 -2.66699 -42.5 -5.66699 -63.5 -9s-41.833 -8 -62.5 -14l-12 13c2 10 3.83301 20.333 5.5 31s2.5 21.334 2.5 32.001c-20 -20 -43 -37.333 -69 -52s-53.667 -22 -83 -22c-40 0 -67.833 13.5 -83.5 40.5s-24.834 56.833 -27.501 89.5
c-0.666992 4.66699 -1 9.16699 -1 13.5v12.5v19.5c0 6.33301 0.333008 12.833 1 19.5v18.5v19.5v24c0 8 0.333008 16 1 24v24v24c0 25.333 -4.16699 42.333 -12.5 51s-24.5 13 -48.5 13v33c2 -1.33301 4 -2 6 -2h5c21.333 0 42.166 0.333008 62.499 1s40.833 3 61.5 7
c-2 -38 -3.33301 -76 -4 -114s-1 -76 -1 -114v-5v-5c0.666992 -5.33301 1 -10.666 1 -15.999s0.333008 -10.666 1 -15.999c1.33301 -25.333 7 -48.666 17 -69.999s31 -32 63 -32c21.333 0 41 4.33301 59 13s35.333 19.334 52 32.001v159v15.5
c0 5.66699 0.333008 11.167 1 16.5v16.5v16.5c0 24.667 -3.83301 41.5 -11.5 50.5s-24.167 13.5 -49.5 13.5v33c1.33301 -1.33301 2.66602 -2 3.99902 -2h4h7.5h7.5c2.66699 -0.666992 5.16699 -1 7.5 -1h7.5c16.667 0 33.167 0.833008 49.5 2.5s32.5 3.83398 48.5 6.50098
l-2 -19c-0.666992 -21.333 -1.16699 -42.5 -1.5 -63.5s-0.833008 -41.833 -1.5 -62.5v-62.5v-62.5v-7.5v-7.5c0 -17.333 0.5 -33.5 1.5 -48.5s2.5 -24.833 4.5 -29.5c3.33301 -6.66699 8.16602 -11.167 14.499 -13.5s12.833 -4.16602 19.5 -5.49902
c2.66699 0 5.33398 -0.166992 8.00098 -0.5s5.33398 -0.5 8.00098 -0.5h1.5h1.5v1zM255.002 660.993l67 0.00292969c0.666992 -0.666992 1.5 -1 2.5 -1h2.5c2.66699 -0.666992 4.83398 -1.33398 6.50098 -2.00098s2.5 -2.33398 2.5 -5.00098v0
c0 -2.66699 -0.666992 -4.83398 -2 -6.50098s-2.66602 -3.5 -3.99902 -5.5c-0.666992 -1.33301 -1.33398 -2.5 -2.00098 -3.5s-1.33398 -1.83301 -2.00098 -2.5l-116 -155l-23 10l68 171v0z" />
    <glyph glyph-name="ucircumflex" unicode="&#xfb;" horiz-adv-x="521" 
d="M484 39l0.00195312 -29.0068c-21.333 -2.66699 -42.5 -5.66699 -63.5 -9s-41.833 -8 -62.5 -14l-12 13c2 10 3.83301 20.333 5.5 31s2.5 21.334 2.5 32.001c-20 -20 -43 -37.333 -69 -52s-53.667 -22 -83 -22c-40 0 -67.833 13.5 -83.5 40.5s-24.834 56.833 -27.501 89.5
c-0.666992 4.66699 -1 9.16699 -1 13.5v12.5v19.5c0 6.33301 0.333008 12.833 1 19.5v18.5v19.5v24c0 8 0.333008 16 1 24v24v24c0 25.333 -4.16699 42.333 -12.5 51s-24.5 13 -48.5 13v33c2 -1.33301 4 -2 6 -2h5c21.333 0 42.166 0.333008 62.499 1s40.833 3 61.5 7
c-2 -38 -3.33301 -76 -4 -114s-1 -76 -1 -114v-5v-5c0.666992 -5.33301 1 -10.666 1 -15.999s0.333008 -10.666 1 -15.999c1.33301 -25.333 7 -48.666 17 -69.999s31 -32 63 -32c21.333 0 41 4.33301 59 13s35.333 19.334 52 32.001v159v15.5
c0 5.66699 0.333008 11.167 1 16.5v16.5v16.5c0 24.667 -3.83301 41.5 -11.5 50.5s-24.167 13.5 -49.5 13.5v33c1.33301 -1.33301 2.66602 -2 3.99902 -2h4h7.5h7.5c2.66699 -0.666992 5.16699 -1 7.5 -1h7.5c16.667 0 33.167 0.833008 49.5 2.5s32.5 3.83398 48.5 6.50098
l-2 -19c-0.666992 -21.333 -1.16699 -42.5 -1.5 -63.5s-0.833008 -41.833 -1.5 -62.5v-62.5v-62.5v-7.5v-7.5c0 -17.333 0.5 -33.5 1.5 -48.5s2.5 -24.833 4.5 -29.5c3.33301 -6.66699 8.16602 -11.167 14.499 -13.5s12.833 -4.16602 19.5 -5.49902
c2.66699 0 5.33398 -0.166992 8.00098 -0.5s5.33398 -0.5 8.00098 -0.5h1.5h1.5v1zM235.002 664.993h51l86 -179l-18 -11l-95 116l-91 -116l-17 11l84 179v0z" />
    </font>
</defs>
</svg>
